<ttFont>
    <TTGlyph name="A" xMin="-2" yMin="0" xMax="1368" yMax="1595">
      <contour>
        <pt x="554" y="393" on="1"/>
        <pt x="513" y="0" on="1"/>
        <pt x="-2" y="0" on="1"/>
        <pt x="254" y="1595" on="1"/>
        <pt x="1112" y="1595" on="1"/>
        <pt x="1368" y="0" on="1"/>
        <pt x="851" y="0" on="1"/>
        <pt x="812" y="393" on="1"/>
      </contour>
      <contour>
        <pt x="580" y="572" on="1"/>
        <pt x="786" y="572" on="1"/>
        <pt x="682" y="1361" on="1"/>
      </contour>
    </TTGlyph>
    <TTGlyph name="AE" xMin="-31" yMin="0" xMax="1668" yMax="1595">
      <contour>
        <pt x="635" y="348" on="1"/>
        <pt x="535" y="0" on="1"/>
        <pt x="-31" y="0" on="1"/>
        <pt x="544" y="1595" on="1"/>
        <pt x="976" y="1595" on="1"/>
        <pt x="976" y="0" on="1"/>
        <pt x="828" y="0" on="1"/>
        <pt x="828" y="348" on="1"/>
      </contour>
      <contour>
        <pt x="701" y="578" on="1"/>
        <pt x="828" y="578" on="1"/>
        <pt x="828" y="1001" on="1"/>
      </contour>
      <contour>
        <pt x="1668" y="1595" on="1"/>
        <pt x="1668" y="1354" on="1"/>
        <pt x="1359" y="1354" on="1"/>
        <pt x="1359" y="961" on="1"/>
        <pt x="1647" y="961" on="1"/>
        <pt x="1647" y="711" on="1"/>
        <pt x="1359" y="711" on="1"/>
        <pt x="1359" y="244" on="1"/>
        <pt x="1668" y="244" on="1"/>
        <pt x="1668" y="0" on="1"/>
        <pt x="841" y="0" on="1"/>
        <pt x="841" y="1595" on="1"/>
      </contour>
    </TTGlyph>
    <TTGlyph name="AEacute" xMin="-42" yMin="0" xMax="1657" yMax="2447">
      <component glyphName="acute" x="140" y="1638" flags="0x1004"/>
      <component glyphName="AE" x="-11" y="0" flags="0x1004"/>
    </TTGlyph>
    <TTGlyph name="Aacute" xMin="-2" yMin="0" xMax="1368" yMax="2447">
      <component glyphName="A" x="0" y="0" flags="0x1204"/>
      <component glyphName="acute" x="-75" y="1638" flags="0x1004"/>
    </TTGlyph>
    <TTGlyph name="Abreve" xMin="-2" yMin="0" xMax="1368" yMax="2371">
      <component glyphName="A" x="0" y="0" flags="0x1204"/>
      <component glyphName="breve" x="89" y="1640" flags="0x1004"/>
    </TTGlyph>
    <TTGlyph name="Acircumflex" xMin="-2" yMin="0" xMax="1368" yMax="2314">
      <component glyphName="A" x="0" y="0" flags="0x1204"/>
      <component glyphName="circumflex" x="-77" y="1638" flags="0x1004"/>
    </TTGlyph>
    <TTGlyph name="Adieresis" xMin="-2" yMin="0" xMax="1368" yMax="2056">
      <component glyphName="A" x="0" y="0" flags="0x1204"/>
      <component glyphName="dieresis" x="294" y="1638" flags="0x1004"/>
    </TTGlyph>
    <TTGlyph name="Agrave" xMin="-2" yMin="0" xMax="1368" yMax="2447">
      <component glyphName="A" x="0" y="0" flags="0x1204"/>
      <component glyphName="grave" x="-77" y="1638" flags="0x1004"/>
    </TTGlyph>
    <TTGlyph name="Amacron" xMin="-2" yMin="0" xMax="1368" yMax="2056">
      <component glyphName="A" x="0" y="0" flags="0x1204"/>
      <component glyphName="macron" x="308" y="1638" flags="0x1004"/>
    </TTGlyph>
    <TTGlyph name="Aogonek" xMin="-2" yMin="-737" xMax="1368" yMax="1595">
      <component glyphName="A" x="0" y="0" flags="0x1204"/>
      <component glyphName="ogonek" x="573" y="0" flags="0x1004"/>
    </TTGlyph>
    <TTGlyph name="Aring" xMin="-2" yMin="0" xMax="1368" yMax="2359">
      <component glyphName="A" x="0" y="0" flags="0x1204"/>
      <component glyphName="ring" x="325" y="1638" flags="0x1004"/>
    </TTGlyph>
    <TTGlyph name="Atilde" xMin="-2" yMin="0" xMax="1370" yMax="2321">
      <component glyphName="A" x="2" y="0" flags="0x1204"/>
      <component glyphName="tilde" x="39" y="1615" flags="0x1004"/>
    </TTGlyph>
    <TTGlyph name="B" xMin="96" yMin="0" xMax="1326" yMax="1595">
      <contour>
        <pt x="1326" y="460" on="1"/>
        <pt x="1326" y="397" on="0"/>
        <pt x="1321" y="279" on="0"/>
        <pt x="1290" y="177" on="0"/>
        <pt x="1222" y="93" on="0"/>
        <pt x="1098" y="33" on="0"/>
        <pt x="906" y="0" on="0"/>
        <pt x="766" y="0" on="1"/>
        <pt x="96" y="0" on="1"/>
        <pt x="96" y="1595" on="1"/>
        <pt x="775" y="1595" on="1"/>
        <pt x="905" y="1595" on="0"/>
        <pt x="1083" y="1561" on="0"/>
        <pt x="1198" y="1501" on="0"/>
        <pt x="1260" y="1421" on="0"/>
        <pt x="1289" y="1331" on="0"/>
        <pt x="1294" y="1234" on="0"/>
        <pt x="1294" y="1188" on="1"/>
        <pt x="1294" y="1123" on="0"/>
        <pt x="1270" y="1030" on="0"/>
        <pt x="1232" y="965" on="0"/>
        <pt x="1182" y="923" on="0"/>
        <pt x="1157" y="909" on="1"/>
        <pt x="1097" y="876" on="0"/>
        <pt x="1021" y="870" on="1"/>
        <pt x="1109" y="864" on="0"/>
        <pt x="1177" y="827" on="1"/>
        <pt x="1207" y="811" on="0"/>
        <pt x="1261" y="762" on="0"/>
        <pt x="1302" y="678" on="0"/>
        <pt x="1326" y="553" on="0"/>
      </contour>
      <contour>
        <pt x="593" y="237" on="1"/>
        <pt x="829" y="237" on="1"/>
        <pt x="829" y="750" on="1"/>
        <pt x="593" y="750" on="1"/>
      </contour>
      <contour>
        <pt x="593" y="981" on="1"/>
        <pt x="829" y="981" on="1"/>
        <pt x="829" y="1358" on="1"/>
        <pt x="593" y="1358" on="1"/>
      </contour>
    </TTGlyph>
    <TTGlyph name="C" xMin="78" yMin="-39" xMax="1308" yMax="1632">
      <contour>
        <pt x="811" y="1358" on="1"/>
        <pt x="575" y="1358" on="1"/>
        <pt x="575" y="237" on="1"/>
        <pt x="811" y="237" on="1"/>
        <pt x="811" y="686" on="1"/>
        <pt x="1308" y="686" on="1"/>
        <pt x="1308" y="371" on="1"/>
        <pt x="1308" y="331" on="0"/>
        <pt x="1299" y="239" on="0"/>
        <pt x="1260" y="148" on="0"/>
        <pt x="1182" y="64" on="0"/>
        <pt x="1045" y="0" on="0"/>
        <pt x="840" y="-39" on="0"/>
        <pt x="693" y="-39" on="1"/>
        <pt x="547" y="-39" on="0"/>
        <pt x="343" y="0" on="0"/>
        <pt x="206" y="64" on="0"/>
        <pt x="128" y="148" on="0"/>
        <pt x="88" y="239" on="0"/>
        <pt x="78" y="331" on="0"/>
        <pt x="78" y="371" on="1"/>
        <pt x="78" y="1227" on="1"/>
        <pt x="78" y="1267" on="0"/>
        <pt x="88" y="1358" on="0"/>
        <pt x="127" y="1448" on="0"/>
        <pt x="206" y="1531" on="0"/>
        <pt x="342" y="1594" on="0"/>
        <pt x="545" y="1632" on="0"/>
        <pt x="690" y="1632" on="1"/>
        <pt x="838" y="1632" on="0"/>
        <pt x="1044" y="1594" on="0"/>
        <pt x="1182" y="1531" on="0"/>
        <pt x="1260" y="1448" on="0"/>
        <pt x="1299" y="1358" on="0"/>
        <pt x="1308" y="1267" on="0"/>
        <pt x="1308" y="1227" on="1"/>
        <pt x="1308" y="909" on="1"/>
        <pt x="811" y="909" on="1"/>
      </contour>
    </TTGlyph>
    <TTGlyph name="Cacute" xMin="78" yMin="-39" xMax="1308" yMax="2447">
      <component glyphName="C" x="0" y="0" flags="0x1204"/>
      <component glyphName="acute" x="-100" y="1638" flags="0x1004"/>
    </TTGlyph>
    <TTGlyph name="Ccaron" xMin="78" yMin="-39" xMax="1308" yMax="2334">
      <component glyphName="C" x="0" y="0" flags="0x1204"/>
      <component glyphName="caron" x="-56" y="1638" flags="0x1004"/>
    </TTGlyph>
    <TTGlyph name="Ccedilla" xMin="80" yMin="-782" xMax="1310" yMax="1632">
      <component glyphName="C" x="2" y="0" flags="0x1004"/>
      <component glyphName="cedilla" x="62" y="0" flags="0x1004"/>
    </TTGlyph>
    <TTGlyph name="Ccircumflex" xMin="78" yMin="-39" xMax="1308" yMax="2314">
      <component glyphName="C" x="0" y="0" flags="0x1204"/>
      <component glyphName="circumflex" x="-52" y="1638" flags="0x1004"/>
    </TTGlyph>
    <TTGlyph name="Cdotaccent" xMin="78" yMin="-39" xMax="1308" yMax="2170">
      <component glyphName="C" x="0" y="0" flags="0x1204"/>
      <component glyphName="dotaccent" x="398" y="1703" flags="0x1004"/>
    </TTGlyph>
    <TTGlyph name="D" xMin="96" yMin="0" xMax="1326" yMax="1595">
      <contour>
        <pt x="593" y="237" on="1"/>
        <pt x="829" y="237" on="1"/>
        <pt x="829" y="1358" on="1"/>
        <pt x="593" y="1358" on="1"/>
      </contour>
      <contour>
        <pt x="1326" y="393" on="1"/>
        <pt x="1326" y="353" on="0"/>
        <pt x="1321" y="264" on="0"/>
        <pt x="1290" y="176" on="0"/>
        <pt x="1222" y="97" on="0"/>
        <pt x="1098" y="36" on="0"/>
        <pt x="907" y="0" on="0"/>
        <pt x="767" y="0" on="1"/>
        <pt x="96" y="0" on="1"/>
        <pt x="96" y="1595" on="1"/>
        <pt x="767" y="1595" on="1"/>
        <pt x="907" y="1595" on="0"/>
        <pt x="1098" y="1559" on="0"/>
        <pt x="1222" y="1499" on="0"/>
        <pt x="1290" y="1420" on="0"/>
        <pt x="1321" y="1333" on="0"/>
        <pt x="1326" y="1244" on="0"/>
        <pt x="1326" y="1204" on="1"/>
      </contour>
    </TTGlyph>
    <TTGlyph name="Dcaron" xMin="96" yMin="0" xMax="1326" yMax="2336">
      <component glyphName="D" x="0" y="0" flags="0x1204"/>
      <component glyphName="caron" x="-48" y="1640" flags="0x1004"/>
    </TTGlyph>
    <TTGlyph name="Dcroat" xMin="20" yMin="0" xMax="1346" yMax="1595">
      <contour>
        <pt x="741" y="868" on="1"/>
        <pt x="741" y="726" on="1"/>
        <pt x="20" y="726" on="1"/>
        <pt x="20" y="868" on="1"/>
      </contour>
      <contour>
        <pt x="613" y="237" on="1"/>
        <pt x="849" y="237" on="1"/>
        <pt x="849" y="1358" on="1"/>
        <pt x="613" y="1358" on="1"/>
      </contour>
      <contour>
        <pt x="1346" y="393" on="1"/>
        <pt x="1346" y="353" on="0"/>
        <pt x="1341" y="264" on="0"/>
        <pt x="1310" y="176" on="0"/>
        <pt x="1242" y="97" on="0"/>
        <pt x="1118" y="36" on="0"/>
        <pt x="927" y="0" on="0"/>
        <pt x="787" y="0" on="1"/>
        <pt x="116" y="0" on="1"/>
        <pt x="116" y="1595" on="1"/>
        <pt x="787" y="1595" on="1"/>
        <pt x="927" y="1595" on="0"/>
        <pt x="1118" y="1559" on="0"/>
        <pt x="1242" y="1499" on="0"/>
        <pt x="1310" y="1420" on="0"/>
        <pt x="1341" y="1333" on="0"/>
        <pt x="1346" y="1244" on="0"/>
        <pt x="1346" y="1204" on="1"/>
      </contour>
    </TTGlyph>
    <TTGlyph name="E" xMin="96" yMin="0" xMax="902" yMax="1595">
      <contour>
        <pt x="902" y="1595" on="1"/>
        <pt x="902" y="1358" on="1"/>
        <pt x="593" y="1358" on="1"/>
        <pt x="593" y="961" on="1"/>
        <pt x="881" y="961" on="1"/>
        <pt x="881" y="711" on="1"/>
        <pt x="593" y="711" on="1"/>
        <pt x="593" y="237" on="1"/>
        <pt x="902" y="237" on="1"/>
        <pt x="902" y="0" on="1"/>
        <pt x="96" y="0" on="1"/>
        <pt x="96" y="1595" on="1"/>
      </contour>
    </TTGlyph>
    <TTGlyph name="Eacute" xMin="96" yMin="0" xMax="1139" yMax="2447">
      <component glyphName="E" x="0" y="0" flags="0x1204"/>
      <component glyphName="acute" x="-224" y="1638" flags="0x1004"/>
    </TTGlyph>
    <TTGlyph name="Ebreve" xMin="77" yMin="0" xMax="905" yMax="2371">
      <component glyphName="E" x="0" y="0" flags="0x1004"/>
      <component glyphName="breve" x="-73" y="1640" flags="0x1004"/>
    </TTGlyph>
    <TTGlyph name="Ecaron" xMin="13" yMin="0" xMax="1038" yMax="2334">
      <component glyphName="E" x="-76" y="0" flags="0x1204"/>
      <component glyphName="caron" x="-302" y="1638" flags="0x1004"/>
    </TTGlyph>
    <TTGlyph name="Ecircumflex" xMin="13" yMin="0" xMax="1038" yMax="2314">
      <component glyphName="E" x="-76" y="0" flags="0x1204"/>
      <component glyphName="circumflex" x="-302" y="1638" flags="0x1004"/>
    </TTGlyph>
    <TTGlyph name="Edieresis" xMin="23" yMin="0" xMax="1048" yMax="2056">
      <component glyphName="E" x="88" y="0" flags="0x1204"/>
      <component glyphName="dieresis" x="232" y="1638" flags="0x1004"/>
    </TTGlyph>
    <TTGlyph name="Edotaccent" xMin="96" yMin="0" xMax="902" yMax="2144">
      <component glyphName="E" x="0" y="0" flags="0x1204"/>
      <component glyphName="dotaccent" x="216" y="1677" flags="0x1004"/>
    </TTGlyph>
    <TTGlyph name="Egrave" xMin="85" yMin="0" xMax="1043" yMax="2447">
      <component glyphName="E" x="-11" y="0" flags="0x1204"/>
      <component glyphName="grave" x="-237" y="1638" flags="0x1004"/>
    </TTGlyph>
    <TTGlyph name="Emacron" xMin="86" yMin="0" xMax="1010" yMax="2056">
      <component glyphName="E" x="73" y="0" flags="0x1204"/>
      <component glyphName="macron" x="233" y="1638" flags="0x1004"/>
    </TTGlyph>
    <TTGlyph name="Eng" xMin="96" yMin="-772" xMax="1409" yMax="1595">
      <contour>
        <pt x="1010" y="-144" on="1"/>
        <pt x="498" y="711" on="1"/>
        <pt x="498" y="0" on="1"/>
        <pt x="96" y="0" on="1"/>
        <pt x="96" y="1595" on="1"/>
        <pt x="600" y="1595" on="1"/>
        <pt x="1008" y="834" on="1"/>
        <pt x="1008" y="1595" on="1"/>
        <pt x="1409" y="1595" on="1"/>
        <pt x="1409" y="-245" on="1"/>
        <pt x="1409" y="-376" on="0"/>
        <pt x="1330" y="-573" on="0"/>
        <pt x="1201" y="-705" on="0"/>
        <pt x="1036" y="-772" on="0"/>
        <pt x="950" y="-772" on="1"/>
        <pt x="865" y="-772" on="0"/>
        <pt x="703" y="-707" on="0"/>
        <pt x="577" y="-575" on="0"/>
        <pt x="500" y="-377" on="0"/>
        <pt x="500" y="-245" on="1"/>
        <pt x="500" y="-125" on="1"/>
        <pt x="900" y="-125" on="1"/>
        <pt x="900" y="-383" on="1"/>
        <pt x="1010" y="-383" on="1"/>
      </contour>
    </TTGlyph>
    <TTGlyph name="Eogonek" xMin="96" yMin="-737" xMax="902" yMax="1595">
      <component glyphName="E" x="0" y="0" flags="0x1204"/>
      <component glyphName="ogonek" x="163" y="0" flags="0x1004"/>
    </TTGlyph>
    <TTGlyph name="Eth" xMin="49" yMin="0" xMax="1375" yMax="1595">
      <contour>
        <pt x="770" y="868" on="1"/>
        <pt x="770" y="726" on="1"/>
        <pt x="49" y="726" on="1"/>
        <pt x="49" y="868" on="1"/>
      </contour>
      <contour>
        <pt x="642" y="237" on="1"/>
        <pt x="878" y="237" on="1"/>
        <pt x="878" y="1358" on="1"/>
        <pt x="642" y="1358" on="1"/>
      </contour>
      <contour>
        <pt x="1375" y="393" on="1"/>
        <pt x="1375" y="353" on="0"/>
        <pt x="1370" y="264" on="0"/>
        <pt x="1339" y="176" on="0"/>
        <pt x="1271" y="97" on="0"/>
        <pt x="1147" y="36" on="0"/>
        <pt x="956" y="0" on="0"/>
        <pt x="816" y="0" on="1"/>
        <pt x="145" y="0" on="1"/>
        <pt x="145" y="1595" on="1"/>
        <pt x="816" y="1595" on="1"/>
        <pt x="956" y="1595" on="0"/>
        <pt x="1147" y="1559" on="0"/>
        <pt x="1271" y="1499" on="0"/>
        <pt x="1339" y="1420" on="0"/>
        <pt x="1370" y="1333" on="0"/>
        <pt x="1375" y="1244" on="0"/>
        <pt x="1375" y="1204" on="1"/>
      </contour>
    </TTGlyph>
    <TTGlyph name="Euro" xMin="41" yMin="-39" xMax="1338" yMax="1582">
      <contour>
        <pt x="183" y="814" on="1"/>
        <pt x="41" y="814" on="1"/>
        <pt x="41" y="990" on="1"/>
        <pt x="183" y="990" on="1"/>
        <pt x="183" y="1014" on="1"/>
        <pt x="183" y="1122" on="0"/>
        <pt x="199" y="1291" on="0"/>
        <pt x="244" y="1417" on="0"/>
        <pt x="326" y="1504" on="0"/>
        <pt x="459" y="1558" on="0"/>
        <pt x="649" y="1582" on="0"/>
        <pt x="780" y="1582" on="1"/>
        <pt x="917" y="1582" on="0"/>
        <pt x="1107" y="1547" on="0"/>
        <pt x="1231" y="1488" on="0"/>
        <pt x="1299" y="1411" on="0"/>
        <pt x="1332" y="1325" on="0"/>
        <pt x="1338" y="1237" on="0"/>
        <pt x="1338" y="1197" on="1"/>
        <pt x="1338" y="1070" on="1"/>
        <pt x="811" y="1070" on="1"/>
        <pt x="811" y="1314" on="1"/>
        <pt x="715" y="1314" on="1"/>
        <pt x="715" y="990" on="1"/>
        <pt x="1015" y="990" on="1"/>
        <pt x="1015" y="814" on="1"/>
        <pt x="715" y="814" on="1"/>
        <pt x="715" y="726" on="1"/>
        <pt x="1015" y="726" on="1"/>
        <pt x="1015" y="553" on="1"/>
        <pt x="715" y="553" on="1"/>
        <pt x="715" y="179" on="1"/>
        <pt x="811" y="179" on="1"/>
        <pt x="811" y="473" on="1"/>
        <pt x="1338" y="473" on="1"/>
        <pt x="1338" y="346" on="1"/>
        <pt x="1338" y="306" on="0"/>
        <pt x="1332" y="218" on="0"/>
        <pt x="1299" y="132" on="0"/>
        <pt x="1231" y="55" on="0"/>
        <pt x="1107" y="-4" on="0"/>
        <pt x="917" y="-39" on="0"/>
        <pt x="780" y="-39" on="1"/>
        <pt x="649" y="-39" on="0"/>
        <pt x="459" y="-15" on="0"/>
        <pt x="326" y="39" on="0"/>
        <pt x="244" y="126" on="0"/>
        <pt x="199" y="252" on="0"/>
        <pt x="183" y="421" on="0"/>
        <pt x="183" y="529" on="1"/>
        <pt x="183" y="553" on="1"/>
        <pt x="41" y="553" on="1"/>
        <pt x="41" y="726" on="1"/>
        <pt x="183" y="726" on="1"/>
      </contour>
    </TTGlyph>
    <TTGlyph name="Euro#1" xMin="51" yMin="-39" xMax="1350" yMax="1632">
      <contour>
        <pt x="759" y="696" on="1"/>
        <pt x="759" y="441" on="1"/>
        <pt x="51" y="441" on="1"/>
        <pt x="51" y="696" on="1"/>
      </contour>
      <contour>
        <pt x="759" y="1123" on="1"/>
        <pt x="759" y="868" on="1"/>
        <pt x="51" y="868" on="1"/>
        <pt x="51" y="1123" on="1"/>
      </contour>
      <contour>
        <pt x="853" y="1358" on="1"/>
        <pt x="617" y="1358" on="1"/>
        <pt x="617" y="237" on="1"/>
        <pt x="853" y="237" on="1"/>
        <pt x="853" y="686" on="1"/>
        <pt x="1350" y="686" on="1"/>
        <pt x="1350" y="371" on="1"/>
        <pt x="1350" y="331" on="0"/>
        <pt x="1341" y="239" on="0"/>
        <pt x="1302" y="148" on="0"/>
        <pt x="1224" y="64" on="0"/>
        <pt x="1087" y="0" on="0"/>
        <pt x="882" y="-39" on="0"/>
        <pt x="735" y="-39" on="1"/>
        <pt x="589" y="-39" on="0"/>
        <pt x="385" y="0" on="0"/>
        <pt x="248" y="64" on="0"/>
        <pt x="170" y="148" on="0"/>
        <pt x="130" y="239" on="0"/>
        <pt x="120" y="331" on="0"/>
        <pt x="120" y="371" on="1"/>
        <pt x="120" y="1227" on="1"/>
        <pt x="120" y="1267" on="0"/>
        <pt x="130" y="1358" on="0"/>
        <pt x="169" y="1448" on="0"/>
        <pt x="248" y="1531" on="0"/>
        <pt x="384" y="1594" on="0"/>
        <pt x="587" y="1632" on="0"/>
        <pt x="732" y="1632" on="1"/>
        <pt x="880" y="1632" on="0"/>
        <pt x="1086" y="1594" on="0"/>
        <pt x="1224" y="1531" on="0"/>
        <pt x="1302" y="1448" on="0"/>
        <pt x="1341" y="1358" on="0"/>
        <pt x="1350" y="1267" on="0"/>
        <pt x="1350" y="1227" on="1"/>
        <pt x="1350" y="909" on="1"/>
        <pt x="853" y="909" on="1"/>
      </contour>
    </TTGlyph>
    <TTGlyph name="F" xMin="96" yMin="0" xMax="902" yMax="1595">
      <contour>
        <pt x="902" y="1595" on="1"/>
        <pt x="902" y="1358" on="1"/>
        <pt x="593" y="1358" on="1"/>
        <pt x="593" y="954" on="1"/>
        <pt x="881" y="954" on="1"/>
        <pt x="881" y="705" on="1"/>
        <pt x="593" y="705" on="1"/>
        <pt x="593" y="0" on="1"/>
        <pt x="96" y="0" on="1"/>
        <pt x="96" y="1595" on="1"/>
      </contour>
    </TTGlyph>
    <TTGlyph name="G" xMin="78" yMin="-37" xMax="1308" yMax="1632">
      <contour>
        <pt x="1308" y="686" on="1"/>
        <pt x="1308" y="0" on="1"/>
        <pt x="873" y="0" on="1"/>
        <pt x="825" y="104" on="1"/>
        <pt x="805" y="64" on="0"/>
        <pt x="770" y="33" on="1"/>
        <pt x="740" y="7" on="0"/>
        <pt x="639" y="-37" on="0"/>
        <pt x="562" y="-37" on="1"/>
        <pt x="467" y="-37" on="0"/>
        <pt x="322" y="-1" on="0"/>
        <pt x="214" y="61" on="0"/>
        <pt x="141" y="141" on="0"/>
        <pt x="97" y="229" on="0"/>
        <pt x="78" y="318" on="0"/>
        <pt x="78" y="358" on="1"/>
        <pt x="78" y="1227" on="1"/>
        <pt x="78" y="1270" on="0"/>
        <pt x="89" y="1364" on="0"/>
        <pt x="128" y="1454" on="0"/>
        <pt x="207" y="1535" on="0"/>
        <pt x="342" y="1596" on="0"/>
        <pt x="545" y="1632" on="0"/>
        <pt x="689" y="1632" on="1"/>
        <pt x="830" y="1632" on="0"/>
        <pt x="1031" y="1594" on="0"/>
        <pt x="1168" y="1531" on="0"/>
        <pt x="1251" y="1448" on="0"/>
        <pt x="1294" y="1358" on="0"/>
        <pt x="1308" y="1267" on="0"/>
        <pt x="1308" y="1227" on="1"/>
        <pt x="1308" y="909" on="1"/>
        <pt x="811" y="909" on="1"/>
        <pt x="811" y="1358" on="1"/>
        <pt x="575" y="1358" on="1"/>
        <pt x="575" y="237" on="1"/>
        <pt x="897" y="237" on="1"/>
        <pt x="897" y="455" on="1"/>
        <pt x="753" y="455" on="1"/>
        <pt x="753" y="686" on="1"/>
      </contour>
    </TTGlyph>
    <TTGlyph name="Gbreve" xMin="78" yMin="-37" xMax="1308" yMax="2371">
      <component glyphName="G" x="0" y="0" flags="0x1204"/>
      <component glyphName="breve" x="73" y="1640" flags="0x1004"/>
    </TTGlyph>
    <TTGlyph name="Gcaron" xMin="78" yMin="-37" xMax="1308" yMax="2334">
      <component glyphName="G" x="0" y="0" flags="0x1204"/>
      <component glyphName="caron" x="-93" y="1638" flags="0x1004"/>
    </TTGlyph>
    <TTGlyph name="Gcircumflex" xMin="78" yMin="-37" xMax="1308" yMax="2314">
      <component glyphName="G" x="0" y="0" flags="0x1204"/>
      <component glyphName="circumflex" x="-59" y="1638" flags="0x1004"/>
    </TTGlyph>
    <TTGlyph name="Gcommaaccent" xMin="78" yMin="-930" xMax="1308" yMax="1632">
      <component glyphName="G" x="0" y="0" flags="0x1204"/>
      <component glyphName="comma" x="410" y="-563" flags="0x1004"/>
    </TTGlyph>
    <TTGlyph name="Gdotaccent" xMin="78" yMin="-37" xMax="1308" yMax="2175">
      <component glyphName="G" x="0" y="0" flags="0x1204"/>
      <component glyphName="dotaccent" x="389" y="1708" flags="0x1004"/>
    </TTGlyph>
    <TTGlyph name="H" xMin="96" yMin="0" xMax="1376" yMax="1595">
      <contour>
        <pt x="1376" y="1595" on="1"/>
        <pt x="1376" y="0" on="1"/>
        <pt x="879" y="0" on="1"/>
        <pt x="879" y="688" on="1"/>
        <pt x="593" y="688" on="1"/>
        <pt x="593" y="0" on="1"/>
        <pt x="96" y="0" on="1"/>
        <pt x="96" y="1595" on="1"/>
        <pt x="593" y="1595" on="1"/>
        <pt x="593" y="938" on="1"/>
        <pt x="879" y="938" on="1"/>
        <pt x="879" y="1595" on="1"/>
      </contour>
    </TTGlyph>
    <TTGlyph name="Hbar" xMin="45" yMin="0" xMax="1539" yMax="1595">
      <contour>
        <pt x="1539" y="1300" on="1"/>
        <pt x="1539" y="1176" on="1"/>
        <pt x="45" y="1176" on="1"/>
        <pt x="45" y="1300" on="1"/>
      </contour>
      <contour>
        <pt x="1421" y="1595" on="1"/>
        <pt x="1421" y="0" on="1"/>
        <pt x="924" y="0" on="1"/>
        <pt x="924" y="688" on="1"/>
        <pt x="638" y="688" on="1"/>
        <pt x="638" y="0" on="1"/>
        <pt x="141" y="0" on="1"/>
        <pt x="141" y="1595" on="1"/>
        <pt x="638" y="1595" on="1"/>
        <pt x="638" y="938" on="1"/>
        <pt x="924" y="938" on="1"/>
        <pt x="924" y="1595" on="1"/>
      </contour>
    </TTGlyph>
    <TTGlyph name="Hcircumflex" xMin="96" yMin="0" xMax="1376" yMax="2318">
      <component glyphName="H" x="0" y="0" flags="0x1204"/>
      <component glyphName="circumflex" x="-37" y="1642" flags="0x1004"/>
    </TTGlyph>
    <TTGlyph name="I" xMin="96" yMin="0" xMax="593" yMax="1595">
      <contour>
        <pt x="593" y="1595" on="1"/>
        <pt x="593" y="0" on="1"/>
        <pt x="96" y="0" on="1"/>
        <pt x="96" y="1595" on="1"/>
      </contour>
    </TTGlyph>
    <TTGlyph name="IJ" xMin="96" yMin="-39" xMax="2018" yMax="1595">
      <component glyphName="I" x="0" y="0" flags="0x1004"/>
      <component glyphName="J" x="753" y="0" flags="0x1004"/>
    </TTGlyph>
    <TTGlyph name="Iacute" xMin="-15" yMin="0" xMax="881" yMax="2447">
      <component glyphName="I" x="-103" y="0" flags="0x1204"/>
      <component glyphName="acute" x="-482" y="1638" flags="0x1004"/>
    </TTGlyph>
    <TTGlyph name="Iacute_Jacute" xMin="56" yMin="0" xMax="952" yMax="2447">
      <component glyphName="I" x="-32" y="0" flags="0x1004"/>
      <component glyphName="acute" x="-411" y="1638" flags="0x1004"/>
    </TTGlyph>
    <TTGlyph name="Ibreve" xMin="-103" yMin="0" xMax="725" yMax="2371">
      <component glyphName="I" x="0" y="0" flags="0x1004"/>
      <component glyphName="breve" x="-253" y="1640" flags="0x1004"/>
    </TTGlyph>
    <TTGlyph name="Icircumflex" xMin="-167" yMin="0" xMax="858" yMax="2314">
      <component glyphName="I" x="-102" y="0" flags="0x1204"/>
      <component glyphName="circumflex" x="-482" y="1638" flags="0x1004"/>
    </TTGlyph>
    <TTGlyph name="Idieresis" xMin="-158" yMin="0" xMax="867" yMax="2056">
      <component glyphName="I" x="60" y="0" flags="0x1204"/>
      <component glyphName="dieresis" x="51" y="1638" flags="0x1004"/>
    </TTGlyph>
    <TTGlyph name="Idotaccent" xMin="96" yMin="0" xMax="601" yMax="2144">
      <component glyphName="I" x="0" y="0" flags="0x1204"/>
      <component glyphName="dotaccent" x="63" y="1677" flags="0x1004"/>
    </TTGlyph>
    <TTGlyph name="Igrave" xMin="-97" yMin="0" xMax="798" yMax="2447">
      <component glyphName="I" x="-102" y="0" flags="0x1204"/>
      <component glyphName="grave" x="-482" y="1638" flags="0x1004"/>
    </TTGlyph>
    <TTGlyph name="Imacron" xMin="-94" yMin="0" xMax="830" yMax="2056">
      <component glyphName="I" x="47" y="0" flags="0x1204"/>
      <component glyphName="macron" x="53" y="1638" flags="0x1004"/>
    </TTGlyph>
    <TTGlyph name="Iogonek" xMin="96" yMin="-737" xMax="593" yMax="1595">
      <component glyphName="I" x="0" y="0" flags="0x1204"/>
      <component glyphName="ogonek" x="-144" y="0" flags="0x1004"/>
    </TTGlyph>
    <TTGlyph name="Itilde" xMin="-247" yMin="0" xMax="913" yMax="2346">
      <component glyphName="I" x="37" y="0" flags="0x1204"/>
      <component glyphName="tilde" x="-206" y="1640" flags="0x1004"/>
    </TTGlyph>
    <TTGlyph name="J" xMin="35" yMin="-39" xMax="1265" yMax="1595">
      <contour>
        <pt x="768" y="1595" on="1"/>
        <pt x="1265" y="1595" on="1"/>
        <pt x="1265" y="371" on="1"/>
        <pt x="1265" y="331" on="0"/>
        <pt x="1252" y="239" on="0"/>
        <pt x="1211" y="148" on="0"/>
        <pt x="1131" y="64" on="0"/>
        <pt x="998" y="0" on="0"/>
        <pt x="802" y="-39" on="0"/>
        <pt x="664" y="-39" on="1"/>
        <pt x="510" y="-39" on="0"/>
        <pt x="296" y="0" on="0"/>
        <pt x="156" y="64" on="0"/>
        <pt x="79" y="148" on="0"/>
        <pt x="42" y="239" on="0"/>
        <pt x="35" y="331" on="0"/>
        <pt x="35" y="371" on="1"/>
        <pt x="35" y="603" on="1"/>
        <pt x="532" y="603" on="1"/>
        <pt x="532" y="237" on="1"/>
        <pt x="768" y="237" on="1"/>
      </contour>
    </TTGlyph>
    <TTGlyph name="Jcircumflex" xMin="35" yMin="-39" xMax="1275" yMax="2319">
      <component glyphName="J" x="0" y="0" flags="0x1204"/>
      <component glyphName="circumflex" x="-65" y="1643" flags="0x1004"/>
    </TTGlyph>
    <TTGlyph name="K" xMin="96" yMin="0" xMax="1531" yMax="1595">
      <contour>
        <pt x="593" y="0" on="1"/>
        <pt x="96" y="0" on="1"/>
        <pt x="96" y="1595" on="1"/>
        <pt x="593" y="1595" on="1"/>
        <pt x="593" y="1034" on="1"/>
        <pt x="913" y="1595" on="1"/>
        <pt x="1513" y="1595" on="1"/>
        <pt x="1058" y="834" on="1"/>
        <pt x="1531" y="0" on="1"/>
        <pt x="930" y="0" on="1"/>
        <pt x="667" y="531" on="1"/>
        <pt x="593" y="440" on="1"/>
      </contour>
    </TTGlyph>
    <TTGlyph name="Kcommaaccent" xMin="96" yMin="-941" xMax="1531" yMax="1595">
      <component glyphName="K" x="0" y="0" flags="0x1004"/>
      <component glyphName="comma" x="478" y="-574" flags="0x1004"/>
    </TTGlyph>
    <TTGlyph name="L" xMin="96" yMin="0" xMax="901" yMax="1595">
      <contour>
        <pt x="96" y="0" on="1"/>
        <pt x="96" y="1595" on="1"/>
        <pt x="593" y="1595" on="1"/>
        <pt x="593" y="237" on="1"/>
        <pt x="901" y="237" on="1"/>
        <pt x="901" y="0" on="1"/>
      </contour>
    </TTGlyph>
    <TTGlyph name="Lacute" xMin="-9" yMin="0" xMax="898" yMax="2448">
      <component glyphName="L" x="-105" y="0" flags="0x1204"/>
      <component glyphName="acute" x="-465" y="1639" flags="0x1004"/>
    </TTGlyph>
    <TTGlyph name="Lcaron" xMin="96" yMin="0" xMax="1236" yMax="1905">
      <component glyphName="L" x="0" y="0" flags="0x1004"/>
      <component glyphName="quoteright" x="678" y="302" flags="0x1004"/>
    </TTGlyph>
    <TTGlyph name="Lcommaaccent" xMin="96" yMin="-938" xMax="901" yMax="1595">
      <component glyphName="L" x="0" y="0" flags="0x1004"/>
      <component glyphName="comma" x="186" y="-571" flags="0x1004"/>
    </TTGlyph>
    <TTGlyph name="Ldot" xMin="96" yMin="0" xMax="901" yMax="1595">
      <component glyphName="L" x="0" y="0" flags="0x1004"/>
      <component glyphName="periodcentered" x="140" y="295" flags="0x1004"/>
    </TTGlyph>
    <TTGlyph name="Lslash" xMin="29" yMin="0" xMax="1302" yMax="1595">
      <contour>
        <pt x="1302" y="1072" on="1"/>
        <pt x="29" y="410" on="1"/>
        <pt x="29" y="750" on="1"/>
        <pt x="1302" y="1410" on="1"/>
      </contour>
      <contour>
        <pt x="291" y="0" on="1"/>
        <pt x="291" y="1595" on="1"/>
        <pt x="788" y="1595" on="1"/>
        <pt x="788" y="237" on="1"/>
        <pt x="1096" y="237" on="1"/>
        <pt x="1096" y="0" on="1"/>
      </contour>
    </TTGlyph>
    <TTGlyph name="M" xMin="59" yMin="0" xMax="1593" yMax="1595">
      <contour>
        <pt x="1008" y="0" on="1"/>
        <pt x="644" y="0" on="1"/>
        <pt x="439" y="916" on="1"/>
        <pt x="439" y="0" on="1"/>
        <pt x="59" y="0" on="1"/>
        <pt x="59" y="1595" on="1"/>
        <pt x="673" y="1595" on="1"/>
        <pt x="826" y="622" on="1"/>
        <pt x="979" y="1595" on="1"/>
        <pt x="1593" y="1595" on="1"/>
        <pt x="1593" y="0" on="1"/>
        <pt x="1213" y="0" on="1"/>
        <pt x="1213" y="916" on="1"/>
      </contour>
    </TTGlyph>
    <TTGlyph name="N" xMin="96" yMin="0" xMax="1357" yMax="1595">
      <contour>
        <pt x="893" y="0" on="1"/>
        <pt x="508" y="711" on="1"/>
        <pt x="508" y="0" on="1"/>
        <pt x="96" y="0" on="1"/>
        <pt x="96" y="1595" on="1"/>
        <pt x="550" y="1595" on="1"/>
        <pt x="958" y="834" on="1"/>
        <pt x="958" y="1595" on="1"/>
        <pt x="1357" y="1595" on="1"/>
        <pt x="1357" y="0" on="1"/>
      </contour>
    </TTGlyph>
    <TTGlyph name="Nacute" xMin="96" yMin="0" xMax="1357" yMax="2447">
      <component glyphName="N" x="0" y="0" flags="0x1204"/>
      <component glyphName="acute" x="-10" y="1638" flags="0x1004"/>
    </TTGlyph>
    <TTGlyph name="Ncaron" xMin="96" yMin="0" xMax="1357" yMax="2334">
      <component glyphName="N" x="0" y="0" flags="0x1204"/>
      <component glyphName="caron" x="-11" y="1638" flags="0x1004"/>
    </TTGlyph>
    <TTGlyph name="Ncommaaccent" xMin="96" yMin="-935" xMax="1357" yMax="1595">
      <component glyphName="N" x="0" y="0" flags="0x1204"/>
      <component glyphName="comma" x="435" y="-568" flags="0x1004"/>
    </TTGlyph>
    <TTGlyph name="Ntilde" xMin="96" yMin="0" xMax="1370" yMax="2346">
      <component glyphName="N" x="13" y="0" flags="0x1204"/>
      <component glyphName="tilde" x="137" y="1640" flags="0x1004"/>
    </TTGlyph>
    <TTGlyph name="O" xMin="80" yMin="-39" xMax="1310" yMax="1632">
      <contour>
        <pt x="577" y="237" on="1"/>
        <pt x="813" y="237" on="1"/>
        <pt x="813" y="1358" on="1"/>
        <pt x="577" y="1358" on="1"/>
      </contour>
      <contour>
        <pt x="688" y="-39" on="1"/>
        <pt x="543" y="-39" on="0"/>
        <pt x="339" y="0" on="0"/>
        <pt x="204" y="64" on="0"/>
        <pt x="127" y="148" on="0"/>
        <pt x="89" y="239" on="0"/>
        <pt x="80" y="331" on="0"/>
        <pt x="80" y="371" on="1"/>
        <pt x="80" y="1227" on="1"/>
        <pt x="80" y="1267" on="0"/>
        <pt x="89" y="1358" on="0"/>
        <pt x="127" y="1448" on="0"/>
        <pt x="204" y="1531" on="0"/>
        <pt x="339" y="1594" on="0"/>
        <pt x="542" y="1632" on="0"/>
        <pt x="688" y="1632" on="1"/>
        <pt x="835" y="1632" on="0"/>
        <pt x="1042" y="1594" on="0"/>
        <pt x="1180" y="1531" on="0"/>
        <pt x="1260" y="1448" on="0"/>
        <pt x="1300" y="1358" on="0"/>
        <pt x="1310" y="1267" on="0"/>
        <pt x="1310" y="1227" on="1"/>
        <pt x="1310" y="371" on="1"/>
        <pt x="1310" y="331" on="0"/>
        <pt x="1300" y="239" on="0"/>
        <pt x="1260" y="148" on="0"/>
        <pt x="1180" y="64" on="0"/>
        <pt x="1042" y="0" on="0"/>
        <pt x="835" y="-39" on="0"/>
      </contour>
    </TTGlyph>
    <TTGlyph name="OE" xMin="82" yMin="0" xMax="1597" yMax="1595">
      <contour>
        <pt x="651" y="0" on="1"/>
        <pt x="509" y="0" on="0"/>
        <pt x="314" y="33" on="0"/>
        <pt x="187" y="89" on="0"/>
        <pt x="119" y="162" on="0"/>
        <pt x="87" y="245" on="0"/>
        <pt x="82" y="331" on="0"/>
        <pt x="82" y="371" on="1"/>
        <pt x="82" y="1227" on="1"/>
        <pt x="82" y="1266" on="0"/>
        <pt x="87" y="1351" on="0"/>
        <pt x="119" y="1433" on="0"/>
        <pt x="187" y="1507" on="0"/>
        <pt x="314" y="1562" on="0"/>
        <pt x="509" y="1595" on="0"/>
        <pt x="651" y="1595" on="1"/>
        <pt x="1597" y="1595" on="1"/>
        <pt x="1597" y="1354" on="1"/>
        <pt x="1286" y="1354" on="1"/>
        <pt x="1286" y="961" on="1"/>
        <pt x="1575" y="961" on="1"/>
        <pt x="1575" y="711" on="1"/>
        <pt x="1286" y="711" on="1"/>
        <pt x="1286" y="244" on="1"/>
        <pt x="1597" y="244" on="1"/>
        <pt x="1597" y="0" on="1"/>
      </contour>
      <contour>
        <pt x="612" y="233" on="1"/>
        <pt x="715" y="233" on="1"/>
        <pt x="715" y="1364" on="1"/>
        <pt x="612" y="1364" on="1"/>
      </contour>
    </TTGlyph>
    <TTGlyph name="Oacute" xMin="80" yMin="-39" xMax="1310" yMax="2447">
      <component glyphName="O" x="0" y="0" flags="0x1204"/>
      <component glyphName="acute" x="-86" y="1638" flags="0x1004"/>
    </TTGlyph>
    <TTGlyph name="Obreve" xMin="80" yMin="-39" xMax="1310" yMax="2371">
      <component glyphName="O" x="0" y="0" flags="0x1004"/>
      <component glyphName="breve" x="89" y="1640" flags="0x1004"/>
    </TTGlyph>
    <TTGlyph name="Ocircumflex" xMin="80" yMin="-39" xMax="1310" yMax="2314">
      <component glyphName="O" x="0" y="0" flags="0x1204"/>
      <component glyphName="circumflex" x="-88" y="1638" flags="0x1004"/>
    </TTGlyph>
    <TTGlyph name="Odieresis" xMin="80" yMin="-39" xMax="1316" yMax="2056">
      <component glyphName="O" x="6" y="0" flags="0x1204"/>
      <component glyphName="dieresis" x="289" y="1638" flags="0x1004"/>
    </TTGlyph>
    <TTGlyph name="Ograve" xMin="80" yMin="-39" xMax="1310" yMax="2447">
      <component glyphName="O" x="0" y="0" flags="0x1204"/>
      <component glyphName="grave" x="-88" y="1638" flags="0x1004"/>
    </TTGlyph>
    <TTGlyph name="Ohungarumlaut" xMin="80" yMin="-39" xMax="1316" yMax="2653">
      <component glyphName="O" x="0" y="0" flags="0x1204"/>
      <component glyphName="hungarumlaut" x="-473" y="1638" flags="0x1004"/>
    </TTGlyph>
    <TTGlyph name="Omacron" xMin="80" yMin="-39" xMax="1310" yMax="2056">
      <component glyphName="O" x="0" y="0" flags="0x1204"/>
      <component glyphName="macron" x="297" y="1638" flags="0x1004"/>
    </TTGlyph>
    <TTGlyph name="Oslash" xMin="78" yMin="-166" xMax="1308" yMax="1817">
      <contour>
        <pt x="1149" y="1817" on="1"/>
        <pt x="1259" y="1716" on="1"/>
        <pt x="215" y="-166" on="1"/>
        <pt x="99" y="-70" on="1"/>
      </contour>
      <contour>
        <pt x="575" y="237" on="1"/>
        <pt x="811" y="237" on="1"/>
        <pt x="811" y="1358" on="1"/>
        <pt x="575" y="1358" on="1"/>
      </contour>
      <contour>
        <pt x="686" y="-39" on="1"/>
        <pt x="541" y="-39" on="0"/>
        <pt x="337" y="0" on="0"/>
        <pt x="202" y="64" on="0"/>
        <pt x="125" y="148" on="0"/>
        <pt x="87" y="239" on="0"/>
        <pt x="78" y="331" on="0"/>
        <pt x="78" y="371" on="1"/>
        <pt x="78" y="1227" on="1"/>
        <pt x="78" y="1267" on="0"/>
        <pt x="87" y="1358" on="0"/>
        <pt x="125" y="1448" on="0"/>
        <pt x="202" y="1531" on="0"/>
        <pt x="337" y="1594" on="0"/>
        <pt x="540" y="1632" on="0"/>
        <pt x="686" y="1632" on="1"/>
        <pt x="833" y="1632" on="0"/>
        <pt x="1040" y="1594" on="0"/>
        <pt x="1178" y="1531" on="0"/>
        <pt x="1258" y="1448" on="0"/>
        <pt x="1298" y="1358" on="0"/>
        <pt x="1308" y="1267" on="0"/>
        <pt x="1308" y="1227" on="1"/>
        <pt x="1308" y="371" on="1"/>
        <pt x="1308" y="331" on="0"/>
        <pt x="1298" y="239" on="0"/>
        <pt x="1258" y="148" on="0"/>
        <pt x="1178" y="64" on="0"/>
        <pt x="1040" y="0" on="0"/>
        <pt x="833" y="-39" on="0"/>
      </contour>
    </TTGlyph>
    <TTGlyph name="Otilde" xMin="80" yMin="-39" xMax="1383" yMax="2346">
      <component glyphName="O" x="73" y="0" flags="0x1204"/>
      <component glyphName="tilde" x="121" y="1640" flags="0x1004"/>
    </TTGlyph>
    <TTGlyph name="P" xMin="96" yMin="0" xMax="1326" yMax="1595">
      <contour>
        <pt x="96" y="1595" on="1"/>
        <pt x="766" y="1595" on="1"/>
        <pt x="906" y="1595" on="0"/>
        <pt x="1097" y="1559" on="0"/>
        <pt x="1222" y="1499" on="0"/>
        <pt x="1289" y="1420" on="0"/>
        <pt x="1321" y="1333" on="0"/>
        <pt x="1326" y="1244" on="0"/>
        <pt x="1326" y="1204" on="1"/>
        <pt x="1326" y="823" on="1"/>
        <pt x="1326" y="783" on="0"/>
        <pt x="1321" y="694" on="0"/>
        <pt x="1289" y="608" on="0"/>
        <pt x="1222" y="528" on="0"/>
        <pt x="1097" y="468" on="0"/>
        <pt x="906" y="432" on="0"/>
        <pt x="766" y="432" on="1"/>
        <pt x="593" y="432" on="1"/>
        <pt x="593" y="0" on="1"/>
        <pt x="96" y="0" on="1"/>
      </contour>
      <contour>
        <pt x="593" y="650" on="1"/>
        <pt x="829" y="650" on="1"/>
        <pt x="829" y="1358" on="1"/>
        <pt x="593" y="1358" on="1"/>
      </contour>
    </TTGlyph>
    <TTGlyph name="Q" xMin="59" yMin="-39" xMax="1289" yMax="1632">
      <component glyphName="O" x="-21" y="0" flags="0x1004"/>
    </TTGlyph>
    <TTGlyph name="R" xMin="96" yMin="0" xMax="1326" yMax="1595">
      <contour>
        <pt x="829" y="649" on="1"/>
        <pt x="593" y="649" on="1"/>
        <pt x="593" y="0" on="1"/>
        <pt x="96" y="0" on="1"/>
        <pt x="96" y="1595" on="1"/>
        <pt x="745" y="1595" on="1"/>
        <pt x="890" y="1595" on="0"/>
        <pt x="1089" y="1558" on="0"/>
        <pt x="1218" y="1493" on="0"/>
        <pt x="1288" y="1403" on="0"/>
        <pt x="1320" y="1295" on="0"/>
        <pt x="1326" y="1173" on="0"/>
        <pt x="1326" y="1110" on="1"/>
        <pt x="1326" y="1051" on="0"/>
        <pt x="1311" y="940" on="0"/>
        <pt x="1265" y="850" on="0"/>
        <pt x="1180" y="786" on="0"/>
        <pt x="1111" y="774" on="1"/>
        <pt x="1143" y="771" on="0"/>
        <pt x="1218" y="742" on="0"/>
        <pt x="1283" y="677" on="0"/>
        <pt x="1326" y="569" on="0"/>
        <pt x="1326" y="487" on="1"/>
        <pt x="1326" y="0" on="1"/>
        <pt x="829" y="0" on="1"/>
      </contour>
      <contour>
        <pt x="593" y="881" on="1"/>
        <pt x="829" y="881" on="1"/>
        <pt x="829" y="1358" on="1"/>
        <pt x="593" y="1358" on="1"/>
      </contour>
    </TTGlyph>
    <TTGlyph name="Racute" xMin="96" yMin="0" xMax="1346" yMax="2449">
      <component glyphName="R" x="0" y="0" flags="0x1204"/>
      <component glyphName="acute" x="-17" y="1640" flags="0x1004"/>
    </TTGlyph>
    <TTGlyph name="Rcaron" xMin="96" yMin="0" xMax="1326" yMax="2336">
      <component glyphName="R" x="0" y="0" flags="0x1204"/>
      <component glyphName="caron" x="-19" y="1640" flags="0x1004"/>
    </TTGlyph>
    <TTGlyph name="Rcommaaccent" xMin="96" yMin="-929" xMax="1326" yMax="1595">
      <component glyphName="R" x="0" y="0" flags="0x1004"/>
      <component glyphName="comma" x="421" y="-562" flags="0x1004"/>
    </TTGlyph>
    <TTGlyph name="S" xMin="57" yMin="-37" xMax="1310" yMax="1632">
      <contour>
        <pt x="577" y="1128" on="1"/>
        <pt x="577" y="1096" on="0"/>
        <pt x="640" y="1058" on="0"/>
        <pt x="743" y="1029" on="0"/>
        <pt x="875" y="1001" on="0"/>
        <pt x="1012" y="958" on="0"/>
        <pt x="1144" y="891" on="0"/>
        <pt x="1247" y="784" on="0"/>
        <pt x="1310" y="628" on="0"/>
        <pt x="1310" y="518" on="1"/>
        <pt x="1310" y="439" on="0"/>
        <pt x="1302" y="295" on="0"/>
        <pt x="1266" y="172" on="0"/>
        <pt x="1190" y="72" on="0"/>
        <pt x="1053" y="1" on="0"/>
        <pt x="845" y="-37" on="0"/>
        <pt x="695" y="-37" on="1"/>
        <pt x="562" y="-37" on="0"/>
        <pt x="363" y="-10" on="0"/>
        <pt x="221" y="46" on="0"/>
        <pt x="130" y="133" on="0"/>
        <pt x="77" y="251" on="0"/>
        <pt x="57" y="403" on="0"/>
        <pt x="57" y="496" on="1"/>
        <pt x="577" y="496" on="1"/>
        <pt x="577" y="237" on="1"/>
        <pt x="813" y="237" on="1"/>
        <pt x="813" y="533" on="1"/>
        <pt x="813" y="562" on="0"/>
        <pt x="750" y="600" on="0"/>
        <pt x="647" y="631" on="0"/>
        <pt x="515" y="661" on="0"/>
        <pt x="378" y="703" on="0"/>
        <pt x="246" y="763" on="0"/>
        <pt x="143" y="852" on="0"/>
        <pt x="80" y="977" on="0"/>
        <pt x="80" y="1064" on="1"/>
        <pt x="80" y="1172" on="0"/>
        <pt x="102" y="1341" on="0"/>
        <pt x="156" y="1467" on="0"/>
        <pt x="248" y="1554" on="0"/>
        <pt x="387" y="1608" on="0"/>
        <pt x="578" y="1632" on="0"/>
        <pt x="705" y="1632" on="1"/>
        <pt x="887" y="1632" on="0"/>
        <pt x="1122" y="1584" on="0"/>
        <pt x="1258" y="1472" on="0"/>
        <pt x="1310" y="1290" on="0"/>
        <pt x="1310" y="1158" on="1"/>
        <pt x="813" y="1158" on="1"/>
        <pt x="813" y="1358" on="1"/>
        <pt x="577" y="1358" on="1"/>
      </contour>
    </TTGlyph>
    <TTGlyph name="Sacute" xMin="57" yMin="-37" xMax="1310" yMax="2447">
      <component glyphName="S" x="0" y="0" flags="0x1204"/>
      <component glyphName="acute" x="-88" y="1638" flags="0x1004"/>
    </TTGlyph>
    <TTGlyph name="Scaron" xMin="57" yMin="-37" xMax="1310" yMax="2334">
      <component glyphName="S" x="0" y="0" flags="0x1204"/>
      <component glyphName="caron" x="-90" y="1638" flags="0x1004"/>
    </TTGlyph>
    <TTGlyph name="Scedilla" xMin="57" yMin="-782" xMax="1310" yMax="1632">
      <component glyphName="S" x="0" y="0" flags="0x1204"/>
      <component glyphName="cedilla" x="51" y="0" flags="0x1004"/>
    </TTGlyph>
    <TTGlyph name="Scircumflex" xMin="57" yMin="-37" xMax="1310" yMax="2314">
      <component glyphName="S" x="0" y="0" flags="0x1204"/>
      <component glyphName="circumflex" x="-90" y="1638" flags="0x1004"/>
    </TTGlyph>
    <TTGlyph name="Scommaaccent" xMin="57" yMin="-1021" xMax="1310" yMax="1632">
      <component glyphName="S" x="0" y="0" flags="0x1204"/>
      <component glyphName="comma" x="352" y="-654" flags="0x1004"/>
    </TTGlyph>
    <TTGlyph name="T" xMin="25" yMin="0" xMax="1212" yMax="1595">
      <contour>
        <pt x="1212" y="1595" on="1"/>
        <pt x="1212" y="1358" on="1"/>
        <pt x="866" y="1358" on="1"/>
        <pt x="866" y="0" on="1"/>
        <pt x="369" y="0" on="1"/>
        <pt x="369" y="1358" on="1"/>
        <pt x="25" y="1358" on="1"/>
        <pt x="25" y="1595" on="1"/>
      </contour>
    </TTGlyph>
    <TTGlyph name="Tbar" xMin="29" yMin="0" xMax="1216" yMax="1595">
      <component glyphName="T" x="4" y="0" flags="0x1004"/>
      <component glyphName="macron" x="218" y="572" flags="0x1004"/>
    </TTGlyph>
    <TTGlyph name="Tcaron" xMin="25" yMin="0" xMax="1212" yMax="2336">
      <component glyphName="T" x="0" y="0" flags="0x1204"/>
      <component glyphName="caron" x="-173" y="1640" flags="0x1004"/>
    </TTGlyph>
    <TTGlyph name="Tcommaaccent" xMin="25" yMin="-1021" xMax="1212" yMax="1595">
      <component glyphName="T" x="0" y="0" flags="0x1204"/>
      <component glyphName="comma" x="269" y="-654" flags="0x1004"/>
    </TTGlyph>
    <TTGlyph name="Thorn" xMin="96" yMin="0" xMax="1326" yMax="1595">
      <contour>
        <pt x="96" y="1595" on="1"/>
        <pt x="593" y="1595" on="1"/>
        <pt x="593" y="1413" on="1"/>
        <pt x="764" y="1413" on="1"/>
        <pt x="906" y="1413" on="0"/>
        <pt x="1100" y="1377" on="0"/>
        <pt x="1225" y="1317" on="0"/>
        <pt x="1292" y="1238" on="0"/>
        <pt x="1322" y="1151" on="0"/>
        <pt x="1326" y="1062" on="0"/>
        <pt x="1326" y="1022" on="1"/>
        <pt x="1326" y="641" on="1"/>
        <pt x="1326" y="601" on="0"/>
        <pt x="1322" y="512" on="0"/>
        <pt x="1292" y="426" on="0"/>
        <pt x="1225" y="346" on="0"/>
        <pt x="1100" y="286" on="0"/>
        <pt x="906" y="250" on="0"/>
        <pt x="764" y="250" on="1"/>
        <pt x="593" y="250" on="1"/>
        <pt x="593" y="0" on="1"/>
        <pt x="96" y="0" on="1"/>
      </contour>
      <contour>
        <pt x="593" y="482" on="1"/>
        <pt x="829" y="482" on="1"/>
        <pt x="829" y="1182" on="1"/>
        <pt x="593" y="1182" on="1"/>
      </contour>
    </TTGlyph>
    <TTGlyph name="U" xMin="94" yMin="-39" xMax="1324" yMax="1595">
      <contour>
        <pt x="591" y="237" on="1"/>
        <pt x="827" y="237" on="1"/>
        <pt x="827" y="1595" on="1"/>
        <pt x="1324" y="1595" on="1"/>
        <pt x="1324" y="371" on="1"/>
        <pt x="1324" y="331" on="0"/>
        <pt x="1314" y="239" on="0"/>
        <pt x="1274" y="148" on="0"/>
        <pt x="1194" y="64" on="0"/>
        <pt x="1056" y="0" on="0"/>
        <pt x="850" y="-39" on="0"/>
        <pt x="703" y="-39" on="1"/>
        <pt x="558" y="-39" on="0"/>
        <pt x="354" y="0" on="0"/>
        <pt x="219" y="64" on="0"/>
        <pt x="142" y="148" on="0"/>
        <pt x="103" y="239" on="0"/>
        <pt x="94" y="331" on="0"/>
        <pt x="94" y="371" on="1"/>
        <pt x="94" y="1595" on="1"/>
        <pt x="591" y="1595" on="1"/>
      </contour>
    </TTGlyph>
    <TTGlyph name="Uacute" xMin="94" yMin="-39" xMax="1324" yMax="2447">
      <component glyphName="U" x="0" y="0" flags="0x1204"/>
      <component glyphName="acute" x="-58" y="1638" flags="0x1004"/>
    </TTGlyph>
    <TTGlyph name="Ubreve" xMin="94" yMin="-39" xMax="1324" yMax="2373">
      <component glyphName="U" x="0" y="0" flags="0x1204"/>
      <component glyphName="breve" x="105" y="1642" flags="0x1004"/>
    </TTGlyph>
    <TTGlyph name="Ucircumflex" xMin="94" yMin="-39" xMax="1324" yMax="2314">
      <component glyphName="U" x="0" y="0" flags="0x1204"/>
      <component glyphName="circumflex" x="-60" y="1638" flags="0x1004"/>
    </TTGlyph>
    <TTGlyph name="Udieresis" xMin="94" yMin="-39" xMax="1324" yMax="2056">
      <component glyphName="U" x="0" y="0" flags="0x1204"/>
      <component glyphName="dieresis" x="310" y="1638" flags="0x1004"/>
    </TTGlyph>
    <TTGlyph name="Ugrave" xMin="94" yMin="-39" xMax="1324" yMax="2447">
      <component glyphName="U" x="0" y="0" flags="0x1204"/>
      <component glyphName="grave" x="-60" y="1638" flags="0x1004"/>
    </TTGlyph>
    <TTGlyph name="Uhungarumlaut" xMin="94" yMin="-39" xMax="2007" yMax="2655">
      <component glyphName="U" x="0" y="0" flags="0x1204"/>
      <component glyphName="hungarumlaut" x="218" y="1640" flags="0x1004"/>
    </TTGlyph>
    <TTGlyph name="Umacron" xMin="94" yMin="-39" xMax="1324" yMax="2056">
      <component glyphName="U" x="0" y="0" flags="0x1204"/>
      <component glyphName="macron" x="326" y="1638" flags="0x1004"/>
    </TTGlyph>
    <TTGlyph name="Uogonek" xMin="94" yMin="-737" xMax="1324" yMax="1595">
      <component glyphName="U" x="0" y="0" flags="0x1204"/>
      <component glyphName="ogonek" x="289" y="0" flags="0x1004"/>
    </TTGlyph>
    <TTGlyph name="Uring" xMin="94" yMin="-39" xMax="1324" yMax="2361">
      <component glyphName="U" x="0" y="0" flags="0x1204"/>
      <component glyphName="ring" x="342" y="1640" flags="0x1004"/>
    </TTGlyph>
    <TTGlyph name="Utilde" xMin="94" yMin="-39" xMax="1384" yMax="2348">
      <component glyphName="U" x="60" y="0" flags="0x1204"/>
      <component glyphName="tilde" x="135" y="1642" flags="0x1004"/>
    </TTGlyph>
    <TTGlyph name="V" xMin="-14" yMin="0" xMax="1356" yMax="1595">
      <contour>
        <pt x="551" y="1595" on="1"/>
        <pt x="670" y="224" on="1"/>
        <pt x="789" y="1595" on="1"/>
        <pt x="1356" y="1595" on="1"/>
        <pt x="1100" y="0" on="1"/>
        <pt x="242" y="0" on="1"/>
        <pt x="-14" y="1595" on="1"/>
      </contour>
    </TTGlyph>
    <TTGlyph name="W" xMin="0" yMin="0" xMax="1958" yMax="1595">
      <contour>
        <pt x="1958" y="1595" on="1"/>
        <pt x="1696" y="0" on="1"/>
        <pt x="1118" y="0" on="1"/>
        <pt x="979" y="718" on="1"/>
        <pt x="840" y="0" on="1"/>
        <pt x="261" y="0" on="1"/>
        <pt x="0" y="1595" on="1"/>
        <pt x="543" y="1595" on="1"/>
        <pt x="657" y="666" on="1"/>
        <pt x="765" y="1595" on="1"/>
        <pt x="1194" y="1595" on="1"/>
        <pt x="1300" y="666" on="1"/>
        <pt x="1415" y="1595" on="1"/>
      </contour>
    </TTGlyph>
    <TTGlyph name="Wcircumflex" xMin="0" yMin="0" xMax="1958" yMax="2324">
      <component glyphName="W" x="0" y="0" flags="0x1204"/>
      <component glyphName="circumflex" x="236" y="1648" flags="0x1004"/>
    </TTGlyph>
    <TTGlyph name="X" xMin="-20" yMin="0" xMax="1339" yMax="1595">
      <contour>
        <pt x="496" y="1595" on="1"/>
        <pt x="657" y="1162" on="1"/>
        <pt x="822" y="1595" on="1"/>
        <pt x="1339" y="1595" on="1"/>
        <pt x="977" y="782" on="1"/>
        <pt x="1339" y="0" on="1"/>
        <pt x="789" y="0" on="1"/>
        <pt x="657" y="388" on="1"/>
        <pt x="529" y="0" on="1"/>
        <pt x="-20" y="0" on="1"/>
        <pt x="339" y="782" on="1"/>
        <pt x="-20" y="1595" on="1"/>
      </contour>
    </TTGlyph>
    <TTGlyph name="Y" xMin="-18" yMin="0" xMax="1298" yMax="1595">
      <contour>
        <pt x="476" y="1595" on="1"/>
        <pt x="643" y="988" on="1"/>
        <pt x="816" y="1595" on="1"/>
        <pt x="1298" y="1595" on="1"/>
        <pt x="894" y="449" on="1"/>
        <pt x="894" y="0" on="1"/>
        <pt x="397" y="0" on="1"/>
        <pt x="397" y="459" on="1"/>
        <pt x="-18" y="1595" on="1"/>
      </contour>
    </TTGlyph>
    <TTGlyph name="Yacute" xMin="-18" yMin="0" xMax="1298" yMax="2447">
      <component glyphName="Y" x="0" y="0" flags="0x1204"/>
      <component glyphName="acute" x="-112" y="1638" flags="0x1004"/>
    </TTGlyph>
    <TTGlyph name="Ycircumflex" xMin="-18" yMin="0" xMax="1298" yMax="2321">
      <component glyphName="Y" x="0" y="0" flags="0x1204"/>
      <component glyphName="circumflex" x="-114" y="1645" flags="0x1004"/>
    </TTGlyph>
    <TTGlyph name="Ydieresis" xMin="-18" yMin="0" xMax="1298" yMax="2056">
      <component glyphName="Y" x="0" y="0" flags="0x1204"/>
      <component glyphName="dieresis" x="257" y="1638" flags="0x1004"/>
    </TTGlyph>
    <TTGlyph name="Z" xMin="23" yMin="0" xMax="960" yMax="1595">
      <contour>
        <pt x="960" y="1595" on="1"/>
        <pt x="646" y="294" on="1"/>
        <pt x="950" y="294" on="1"/>
        <pt x="950" y="0" on="1"/>
        <pt x="23" y="0" on="1"/>
        <pt x="369" y="1304" on="1"/>
        <pt x="33" y="1304" on="1"/>
        <pt x="33" y="1595" on="1"/>
      </contour>
    </TTGlyph>
    <TTGlyph name="Zacute" xMin="23" yMin="0" xMax="1094" yMax="2447">
      <component glyphName="Z" x="0" y="0" flags="0x1204"/>
      <component glyphName="acute" x="-269" y="1638" flags="0x1004"/>
    </TTGlyph>
    <TTGlyph name="Zcaron" xMin="-30" yMin="0" xMax="1016" yMax="2334">
      <component glyphName="Z" x="-53" y="0" flags="0x1204"/>
      <component glyphName="caron" x="-324" y="1638" flags="0x1004"/>
    </TTGlyph>
    <TTGlyph name="Zdotaccent" xMin="23" yMin="0" xMax="960" yMax="2105">
      <component glyphName="Z" x="0" y="0" flags="0x1204"/>
      <component glyphName="period" x="218" y="1638" flags="0x1004"/>
    </TTGlyph>
    <TTGlyph name="a" xMin="35" yMin="-36" xMax="1308" yMax="1343">
      <contour>
        <pt x="852" y="0" on="1"/>
        <pt x="807" y="167" on="1"/>
        <pt x="781" y="116" on="0"/>
        <pt x="701" y="40" on="0"/>
        <pt x="603" y="-11" on="0"/>
        <pt x="492" y="-36" on="0"/>
        <pt x="437" y="-36" on="1"/>
        <pt x="322" y="-36" on="0"/>
        <pt x="167" y="33" on="0"/>
        <pt x="74" y="146" on="0"/>
        <pt x="35" y="291" on="0"/>
        <pt x="35" y="368" on="1"/>
        <pt x="35" y="447" on="0"/>
        <pt x="82" y="600" on="0"/>
        <pt x="197" y="721" on="0"/>
        <pt x="392" y="795" on="0"/>
        <pt x="540" y="795" on="1"/>
        <pt x="591" y="795" on="0"/>
        <pt x="709" y="789" on="0"/>
        <pt x="768" y="782" on="1"/>
        <pt x="768" y="1060" on="1"/>
        <pt x="532" y="1060" on="1"/>
        <pt x="532" y="893" on="1"/>
        <pt x="138" y="894" on="1"/>
        <pt x="127" y="933" on="0"/>
        <pt x="113" y="1009" on="0"/>
        <pt x="113" y="1044" on="1"/>
        <pt x="113" y="1104" on="0"/>
        <pt x="164" y="1213" on="0"/>
        <pt x="289" y="1295" on="0"/>
        <pt x="500" y="1343" on="0"/>
        <pt x="661" y="1343" on="1"/>
        <pt x="806" y="1343" on="0"/>
        <pt x="1008" y="1307" on="0"/>
        <pt x="1142" y="1247" on="0"/>
        <pt x="1218" y="1168" on="0"/>
        <pt x="1256" y="1081" on="0"/>
        <pt x="1265" y="992" on="0"/>
        <pt x="1265" y="952" on="1"/>
        <pt x="1265" y="257" on="1"/>
        <pt x="1265" y="209" on="0"/>
        <pt x="1278" y="119" on="0"/>
        <pt x="1286" y="82" on="1"/>
        <pt x="1296" y="39" on="0"/>
        <pt x="1308" y="0" on="1"/>
      </contour>
      <contour>
        <pt x="532" y="602" on="1"/>
        <pt x="532" y="237" on="1"/>
        <pt x="768" y="237" on="1"/>
        <pt x="768" y="602" on="1"/>
      </contour>
    </TTGlyph>
    <TTGlyph name="aacute" xMin="35" yMin="-36" xMax="1308" yMax="2202">
      <component glyphName="a" x="0" y="0" flags="0x1204"/>
      <component glyphName="acute" x="-147" y="1393" flags="0x1004"/>
    </TTGlyph>
    <TTGlyph name="abreve" xMin="35" yMin="-36" xMax="1308" yMax="2126">
      <component glyphName="a" x="0" y="0" flags="0x1204"/>
      <component glyphName="breve" x="17" y="1395" flags="0x1004"/>
    </TTGlyph>
    <TTGlyph name="acircumflex" xMin="35" yMin="-36" xMax="1308" yMax="2069">
      <component glyphName="a" x="0" y="0" flags="0x1204"/>
      <component glyphName="circumflex" x="-110" y="1393" flags="0x1004"/>
    </TTGlyph>
    <TTGlyph name="acute" xMin="467" yMin="41" xMax="1363" yMax="809">
      <contour>
        <pt x="1363" y="266" on="1"/>
        <pt x="537" y="41" on="1"/>
        <pt x="467" y="246" on="1"/>
        <pt x="1153" y="809" on="1"/>
      </contour>
    </TTGlyph>
    <TTGlyph name="adieresis" xMin="35" yMin="-36" xMax="1308" yMax="1811">
      <component glyphName="a" x="0" y="0" flags="0x1204"/>
      <component glyphName="dieresis" x="322" y="1393" flags="0x1004"/>
    </TTGlyph>
    <TTGlyph name="ae" xMin="31" yMin="-36" xMax="1891" yMax="1343">
      <contour>
        <pt x="1890" y="451" on="1"/>
        <pt x="1890" y="380" on="0"/>
        <pt x="1881" y="253" on="0"/>
        <pt x="1844" y="144" on="0"/>
        <pt x="1770" y="58" on="0"/>
        <pt x="1639" y="-3" on="0"/>
        <pt x="1441" y="-36" on="0"/>
        <pt x="1299" y="-36" on="1"/>
        <pt x="1229" y="-36" on="0"/>
        <pt x="1109" y="-3" on="0"/>
        <pt x="1064" y="17" on="1"/>
        <pt x="1012" y="40" on="0"/>
        <pt x="969" y="70" on="1"/>
        <pt x="829" y="13" on="0"/>
        <pt x="595" y="-36" on="0"/>
        <pt x="498" y="-36" on="1"/>
        <pt x="379" y="-36" on="0"/>
        <pt x="203" y="31" on="0"/>
        <pt x="87" y="142" on="0"/>
        <pt x="31" y="288" on="0"/>
        <pt x="31" y="368" on="1"/>
        <pt x="31" y="447" on="0"/>
        <pt x="75" y="600" on="0"/>
        <pt x="188" y="721" on="0"/>
        <pt x="380" y="795" on="0"/>
        <pt x="528" y="795" on="1"/>
        <pt x="572" y="795" on="0"/>
        <pt x="666" y="789" on="0"/>
        <pt x="717" y="782" on="1"/>
        <pt x="717" y="1029" on="1"/>
        <pt x="520" y="1029" on="1"/>
        <pt x="520" y="893" on="1"/>
        <pt x="126" y="894" on="1"/>
        <pt x="115" y="933" on="0"/>
        <pt x="101" y="1009" on="0"/>
        <pt x="101" y="1044" on="1"/>
        <pt x="101" y="1104" on="0"/>
        <pt x="150" y="1213" on="0"/>
        <pt x="270" y="1295" on="0"/>
        <pt x="474" y="1343" on="0"/>
        <pt x="629" y="1343" on="1"/>
        <pt x="718" y="1343" on="0"/>
        <pt x="844" y="1318" on="0"/>
        <pt x="885" y="1303" on="1"/>
        <pt x="933" y="1285" on="0"/>
        <pt x="964" y="1263" on="1"/>
        <pt x="1000" y="1285" on="0"/>
        <pt x="1049" y="1303" on="1"/>
        <pt x="1091" y="1318" on="0"/>
        <pt x="1216" y="1343" on="0"/>
        <pt x="1299" y="1343" on="1"/>
        <pt x="1440" y="1343" on="0"/>
        <pt x="1638" y="1307" on="0"/>
        <pt x="1770" y="1247" on="0"/>
        <pt x="1845" y="1168" on="0"/>
        <pt x="1882" y="1082" on="0"/>
        <pt x="1891" y="993" on="0"/>
        <pt x="1891" y="954" on="1"/>
        <pt x="1891" y="579" on="1"/>
        <pt x="1214" y="579" on="1"/>
        <pt x="1214" y="278" on="1"/>
        <pt x="1394" y="278" on="1"/>
        <pt x="1394" y="450" on="1"/>
      </contour>
      <contour>
        <pt x="520" y="602" on="1"/>
        <pt x="520" y="278" on="1"/>
        <pt x="717" y="278" on="1"/>
        <pt x="717" y="329" on="1"/>
        <pt x="717" y="602" on="1"/>
      </contour>
      <contour>
        <pt x="1214" y="757" on="1"/>
        <pt x="1394" y="757" on="1"/>
        <pt x="1394" y="1029" on="1"/>
        <pt x="1214" y="1029" on="1"/>
      </contour>
    </TTGlyph>
    <TTGlyph name="aeacute" xMin="2" yMin="-36" xMax="1862" yMax="2208">
      <component glyphName="ae" x="-29" y="0" flags="0x1004"/>
      <component glyphName="acute" x="118" y="1399" flags="0x1004"/>
    </TTGlyph>
    <TTGlyph name="afii00208" xMin="59" yMin="461" xMax="1583" yMax="897">
      <contour>
        <pt x="1583" y="897" on="1"/>
        <pt x="1583" y="461" on="1"/>
        <pt x="59" y="461" on="1"/>
        <pt x="59" y="897" on="1"/>
      </contour>
    </TTGlyph>
    <TTGlyph name="agrave" xMin="35" yMin="-36" xMax="1308" yMax="2202">
      <component glyphName="a" x="0" y="0" flags="0x1204"/>
      <component glyphName="grave" x="-148" y="1393" flags="0x1004"/>
    </TTGlyph>
    <TTGlyph name="amacron" xMin="35" yMin="-36" xMax="1308" yMax="1811">
      <component glyphName="a" x="0" y="0" flags="0x1204"/>
      <component glyphName="macron" x="238" y="1393" flags="0x1004"/>
    </TTGlyph>
    <TTGlyph name="ampersand" xMin="68" yMin="-38" xMax="1433" yMax="1635">
      <contour>
        <pt x="784" y="1154" on="1"/>
        <pt x="784" y="1364" on="1"/>
        <pt x="598" y="1364" on="1"/>
        <pt x="598" y="952" on="1"/>
        <pt x="787" y="952" on="1"/>
        <pt x="787" y="1080" on="1"/>
        <pt x="1296" y="1080" on="1"/>
        <pt x="1296" y="952" on="1"/>
        <pt x="1433" y="952" on="1"/>
        <pt x="1433" y="728" on="1"/>
        <pt x="1296" y="728" on="1"/>
        <pt x="1296" y="635" on="1"/>
        <pt x="1296" y="503" on="0"/>
        <pt x="1281" y="301" on="0"/>
        <pt x="1236" y="152" on="0"/>
        <pt x="1153" y="50" on="0"/>
        <pt x="1017" y="-11" on="0"/>
        <pt x="821" y="-38" on="0"/>
        <pt x="685" y="-38" on="1"/>
        <pt x="546" y="-38" on="0"/>
        <pt x="346" y="-12" on="0"/>
        <pt x="209" y="44" on="0"/>
        <pt x="126" y="134" on="0"/>
        <pt x="82" y="264" on="0"/>
        <pt x="68" y="434" on="0"/>
        <pt x="68" y="543" on="1"/>
        <pt x="68" y="631" on="0"/>
        <pt x="104" y="746" on="0"/>
        <pt x="149" y="812" on="0"/>
        <pt x="187" y="839" on="0"/>
        <pt x="189" y="840" on="1"/>
        <pt x="187" y="841" on="0"/>
        <pt x="149" y="869" on="0"/>
        <pt x="104" y="937" on="0"/>
        <pt x="68" y="1050" on="0"/>
        <pt x="68" y="1137" on="1"/>
        <pt x="68" y="1290" on="0"/>
        <pt x="121" y="1484" on="0"/>
        <pt x="259" y="1594" on="0"/>
        <pt x="499" y="1635" on="0"/>
        <pt x="685" y="1635" on="1"/>
        <pt x="821" y="1635" on="0"/>
        <pt x="1016" y="1619" on="0"/>
        <pt x="1151" y="1578" on="0"/>
        <pt x="1233" y="1508" on="0"/>
        <pt x="1277" y="1401" on="0"/>
        <pt x="1292" y="1253" on="0"/>
        <pt x="1292" y="1154" on="1"/>
      </contour>
      <contour>
        <pt x="787" y="236" on="1"/>
        <pt x="787" y="728" on="1"/>
        <pt x="598" y="728" on="1"/>
        <pt x="598" y="236" on="1"/>
      </contour>
    </TTGlyph>
    <TTGlyph name="aogonek" xMin="35" yMin="-737" xMax="1308" yMax="1343">
      <component glyphName="a" x="0" y="0" flags="0x1204"/>
      <component glyphName="ogonek" x="434" y="0" flags="0x1004"/>
    </TTGlyph>
    <TTGlyph name="aring" xMin="35" yMin="-36" xMax="1308" yMax="2114">
      <component glyphName="a" x="0" y="0" flags="0x1204"/>
      <component glyphName="ring" x="313" y="1393" flags="0x1004"/>
    </TTGlyph>
    <TTGlyph name="asciicircum" xMin="315" yMin="61" xMax="1340" yMax="676">
      <contour>
        <pt x="1084" y="676" on="1"/>
        <pt x="1340" y="61" on="1"/>
        <pt x="905" y="61" on="1"/>
        <pt x="825" y="381" on="1"/>
        <pt x="749" y="61" on="1"/>
        <pt x="315" y="61" on="1"/>
        <pt x="561" y="676" on="1"/>
      </contour>
    </TTGlyph>
    <TTGlyph name="asciitilde" xMin="43" yMin="616" xMax="1203" yMax="1252">
      <contour>
        <pt x="835" y="806" on="1"/>
        <pt x="810" y="806" on="0"/>
        <pt x="767" y="778" on="0"/>
        <pt x="718" y="736" on="0"/>
        <pt x="660" y="686" on="0"/>
        <pt x="582" y="644" on="0"/>
        <pt x="479" y="616" on="0"/>
        <pt x="410" y="616" on="1"/>
        <pt x="321" y="616" on="0"/>
        <pt x="184" y="668" on="0"/>
        <pt x="91" y="804" on="0"/>
        <pt x="43" y="1041" on="0"/>
        <pt x="43" y="1227" on="1"/>
        <pt x="311" y="1227" on="1"/>
        <pt x="311" y="1194" on="0"/>
        <pt x="321" y="1133" on="0"/>
        <pt x="345" y="1087" on="0"/>
        <pt x="383" y="1059" on="0"/>
        <pt x="412" y="1059" on="1"/>
        <pt x="437" y="1059" on="0"/>
        <pt x="484" y="1088" on="0"/>
        <pt x="537" y="1130" on="0"/>
        <pt x="598" y="1181" on="0"/>
        <pt x="675" y="1223" on="0"/>
        <pt x="773" y="1252" on="0"/>
        <pt x="835" y="1252" on="1"/>
        <pt x="924" y="1252" on="0"/>
        <pt x="1062" y="1201" on="0"/>
        <pt x="1155" y="1065" on="0"/>
        <pt x="1203" y="828" on="0"/>
        <pt x="1203" y="642" on="1"/>
        <pt x="934" y="642" on="1"/>
        <pt x="934" y="670" on="0"/>
        <pt x="924" y="728" on="0"/>
        <pt x="901" y="776" on="0"/>
        <pt x="863" y="806" on="0"/>
      </contour>
    </TTGlyph>
    <TTGlyph name="asterisk" xMin="43" yMin="346" xMax="1110" yMax="1601">
      <contour>
        <pt x="494" y="346" on="1"/>
        <pt x="142" y="478" on="1"/>
        <pt x="320" y="791" on="1"/>
        <pt x="43" y="733" on="1"/>
        <pt x="43" y="1164" on="1"/>
        <pt x="320" y="1097" on="1"/>
        <pt x="122" y="1347" on="1"/>
        <pt x="464" y="1601" on="1"/>
        <pt x="576" y="1287" on="1"/>
        <pt x="690" y="1601" on="1"/>
        <pt x="1032" y="1347" on="1"/>
        <pt x="832" y="1097" on="1"/>
        <pt x="1110" y="1164" on="1"/>
        <pt x="1110" y="733" on="1"/>
        <pt x="832" y="791" on="1"/>
        <pt x="1011" y="478" on="1"/>
        <pt x="660" y="346" on="1"/>
        <pt x="576" y="647" on="1"/>
      </contour>
    </TTGlyph>
    <TTGlyph name="at" xMin="43" yMin="-394" xMax="1906" yMax="1741">
      <contour>
        <pt x="1063" y="235" on="1"/>
        <pt x="1036" y="199" on="0"/>
        <pt x="1002" y="172" on="1"/>
        <pt x="973" y="148" on="0"/>
        <pt x="888" y="109" on="0"/>
        <pt x="834" y="109" on="1"/>
        <pt x="757" y="109" on="0"/>
        <pt x="653" y="142" on="0"/>
        <pt x="585" y="198" on="0"/>
        <pt x="548" y="273" on="0"/>
        <pt x="531" y="357" on="0"/>
        <pt x="528" y="446" on="0"/>
        <pt x="528" y="489" on="1"/>
        <pt x="528" y="522" on="0"/>
        <pt x="531" y="598" on="0"/>
        <pt x="548" y="674" on="0"/>
        <pt x="585" y="745" on="0"/>
        <pt x="653" y="799" on="0"/>
        <pt x="757" y="832" on="0"/>
        <pt x="834" y="832" on="1"/>
        <pt x="915" y="832" on="0"/>
        <pt x="1012" y="802" on="0"/>
        <pt x="1036" y="784" on="1"/>
        <pt x="1036" y="1018" on="1"/>
        <pt x="983" y="1018" on="1"/>
        <pt x="983" y="883" on="1"/>
        <pt x="574" y="883" on="1"/>
        <pt x="574" y="922" on="0"/>
        <pt x="573" y="1006" on="0"/>
        <pt x="590" y="1086" on="0"/>
        <pt x="637" y="1158" on="0"/>
        <pt x="732" y="1213" on="0"/>
        <pt x="887" y="1245" on="0"/>
        <pt x="1004" y="1245" on="1"/>
        <pt x="1103" y="1245" on="0"/>
        <pt x="1243" y="1217" on="0"/>
        <pt x="1338" y="1170" on="0"/>
        <pt x="1394" y="1105" on="0"/>
        <pt x="1423" y="1030" on="0"/>
        <pt x="1431" y="950" on="0"/>
        <pt x="1431" y="910" on="1"/>
        <pt x="1431" y="888" on="0"/>
        <pt x="1430" y="847" on="0"/>
        <pt x="1430" y="827" on="1"/>
        <pt x="1428" y="328" on="1"/>
        <pt x="1510" y="328" on="1"/>
        <pt x="1510" y="458" on="0"/>
        <pt x="1509" y="702" on="0"/>
        <pt x="1509" y="830" on="1"/>
        <pt x="1509" y="955" on="0"/>
        <pt x="1481" y="1129" on="0"/>
        <pt x="1426" y="1245" on="0"/>
        <pt x="1343" y="1311" on="0"/>
        <pt x="1234" y="1344" on="0"/>
        <pt x="1098" y="1352" on="0"/>
        <pt x="1017" y="1352" on="1"/>
        <pt x="888" y="1352" on="0"/>
        <pt x="701" y="1319" on="0"/>
        <pt x="569" y="1250" on="0"/>
        <pt x="487" y="1143" on="0"/>
        <pt x="441" y="996" on="0"/>
        <pt x="425" y="807" on="0"/>
        <pt x="425" y="690" on="1"/>
        <pt x="425" y="523" on="0"/>
        <pt x="450" y="288" on="0"/>
        <pt x="511" y="130" on="0"/>
        <pt x="610" y="39" on="0"/>
        <pt x="759" y="-7" on="0"/>
        <pt x="961" y="-19" on="0"/>
        <pt x="1093" y="-19" on="1"/>
        <pt x="1120" y="-19" on="0"/>
        <pt x="1186" y="-16" on="0"/>
        <pt x="1255" y="-10" on="0"/>
        <pt x="1326" y="-3" on="0"/>
        <pt x="1359" y="1" on="1"/>
        <pt x="1436" y="10" on="0"/>
        <pt x="1516" y="21" on="1"/>
        <pt x="1569" y="-234" on="1"/>
        <pt x="1506" y="-279" on="0"/>
        <pt x="1431" y="-314" on="1"/>
        <pt x="1367" y="-344" on="0"/>
        <pt x="1196" y="-394" on="0"/>
        <pt x="1097" y="-394" on="1"/>
        <pt x="917" y="-394" on="0"/>
        <pt x="620" y="-362" on="0"/>
        <pt x="386" y="-276" on="0"/>
        <pt x="213" y="-124" on="0"/>
        <pt x="99" y="117" on="0"/>
        <pt x="43" y="456" on="0"/>
        <pt x="43" y="687" on="1"/>
        <pt x="43" y="893" on="0"/>
        <pt x="95" y="1210" on="0"/>
        <pt x="201" y="1444" on="0"/>
        <pt x="361" y="1603" on="0"/>
        <pt x="577" y="1699" on="0"/>
        <pt x="849" y="1741" on="0"/>
        <pt x="1015" y="1741" on="1"/>
        <pt x="1191" y="1741" on="0"/>
        <pt x="1459" y="1694" on="0"/>
        <pt x="1657" y="1600" on="0"/>
        <pt x="1790" y="1457" on="0"/>
        <pt x="1871" y="1265" on="0"/>
        <pt x="1905" y="1024" on="0"/>
        <pt x="1906" y="878" on="1"/>
        <pt x="1906" y="643" on="0"/>
        <pt x="1840" y="337" on="0"/>
        <pt x="1709" y="159" on="0"/>
        <pt x="1512" y="88" on="0"/>
        <pt x="1381" y="88" on="1"/>
        <pt x="1287" y="88" on="0"/>
        <pt x="1165" y="133" on="0"/>
        <pt x="1129" y="161" on="1"/>
        <pt x="1087" y="194" on="0"/>
      </contour>
      <contour>
        <pt x="952" y="637" on="1"/>
        <pt x="952" y="332" on="1"/>
        <pt x="1036" y="332" on="1"/>
        <pt x="1036" y="637" on="1"/>
      </contour>
    </TTGlyph>
    <TTGlyph name="atilde" xMin="31" yMin="-36" xMax="1353" yMax="2101">
      <component glyphName="a" x="45" y="0" flags="0x1204"/>
      <component glyphName="tilde" x="72" y="1395" flags="0x1004"/>
    </TTGlyph>
    <TTGlyph name="b" xMin="80" yMin="-37" xMax="1310" yMax="1710">
      <contour>
        <pt x="577" y="1710" on="1"/>
        <pt x="577" y="1199" on="1"/>
        <pt x="641" y="1270" on="0"/>
        <pt x="828" y="1344" on="0"/>
        <pt x="935" y="1344" on="1"/>
        <pt x="1006" y="1344" on="0"/>
        <pt x="1141" y="1298" on="0"/>
        <pt x="1246" y="1202" on="0"/>
        <pt x="1310" y="1055" on="0"/>
        <pt x="1310" y="955" on="1"/>
        <pt x="1310" y="377" on="1"/>
        <pt x="1310" y="272" on="0"/>
        <pt x="1245" y="116" on="0"/>
        <pt x="1138" y="13" on="0"/>
        <pt x="1000" y="-37" on="0"/>
        <pt x="928" y="-37" on="1"/>
        <pt x="868" y="-37" on="0"/>
        <pt x="754" y="-11" on="0"/>
        <pt x="652" y="40" on="0"/>
        <pt x="567" y="117" on="0"/>
        <pt x="537" y="167" on="1"/>
        <pt x="491" y="0" on="1"/>
        <pt x="80" y="0" on="1"/>
        <pt x="80" y="1710" on="1"/>
      </contour>
      <contour>
        <pt x="577" y="237" on="1"/>
        <pt x="813" y="237" on="1"/>
        <pt x="813" y="1060" on="1"/>
        <pt x="577" y="1060" on="1"/>
      </contour>
    </TTGlyph>
    <TTGlyph name="backslash" xMin="29" yMin="0" xMax="921" yMax="1595">
      <contour>
        <pt x="603" y="1595" on="1"/>
        <pt x="921" y="0" on="1"/>
        <pt x="347" y="0" on="1"/>
        <pt x="29" y="1595" on="1"/>
      </contour>
    </TTGlyph>
    <TTGlyph name="bar" xMin="92" yMin="-100" xMax="666" yMax="1795">
      <contour>
        <pt x="666" y="1795" on="1"/>
        <pt x="666" y="-100" on="1"/>
        <pt x="92" y="-100" on="1"/>
        <pt x="92" y="1795" on="1"/>
      </contour>
    </TTGlyph>
    <TTGlyph name="braceleft" xMin="12" yMin="-330" xMax="958" yMax="1925">
      <contour>
        <pt x="694" y="1348" on="1"/>
        <pt x="681" y="1241" on="0"/>
        <pt x="669" y="1071" on="0"/>
        <pt x="649" y="936" on="0"/>
        <pt x="610" y="834" on="0"/>
        <pt x="569" y="797" on="1"/>
        <pt x="610" y="760" on="0"/>
        <pt x="649" y="659" on="0"/>
        <pt x="669" y="524" on="0"/>
        <pt x="681" y="353" on="0"/>
        <pt x="694" y="247" on="1"/>
        <pt x="708" y="136" on="0"/>
        <pt x="752" y="16" on="0"/>
        <pt x="817" y="-41" on="0"/>
        <pt x="902" y="-51" on="0"/>
        <pt x="958" y="-51" on="1"/>
        <pt x="958" y="-330" on="1"/>
        <pt x="853" y="-330" on="0"/>
        <pt x="667" y="-316" on="0"/>
        <pt x="508" y="-269" on="0"/>
        <pt x="377" y="-178" on="0"/>
        <pt x="275" y="-23" on="0"/>
        <pt x="203" y="206" on="0"/>
        <pt x="183" y="367" on="1"/>
        <pt x="174" y="439" on="0"/>
        <pt x="159" y="539" on="0"/>
        <pt x="142" y="603" on="0"/>
        <pt x="121" y="639" on="0"/>
        <pt x="89" y="655" on="0"/>
        <pt x="44" y="658" on="0"/>
        <pt x="12" y="658" on="1"/>
        <pt x="12" y="937" on="1"/>
        <pt x="44" y="937" on="0"/>
        <pt x="89" y="940" on="0"/>
        <pt x="121" y="956" on="0"/>
        <pt x="142" y="992" on="0"/>
        <pt x="159" y="1056" on="0"/>
        <pt x="174" y="1156" on="0"/>
        <pt x="183" y="1228" on="1"/>
        <pt x="203" y="1389" on="0"/>
        <pt x="275" y="1618" on="0"/>
        <pt x="377" y="1773" on="0"/>
        <pt x="508" y="1864" on="0"/>
        <pt x="667" y="1911" on="0"/>
        <pt x="853" y="1925" on="0"/>
        <pt x="958" y="1925" on="1"/>
        <pt x="958" y="1646" on="1"/>
        <pt x="902" y="1646" on="0"/>
        <pt x="817" y="1636" on="0"/>
        <pt x="752" y="1579" on="0"/>
        <pt x="708" y="1459" on="0"/>
      </contour>
    </TTGlyph>
    <TTGlyph name="braceright" xMin="-68" yMin="-330" xMax="878" yMax="1925">
      <contour>
        <pt x="196" y="1348" on="1"/>
        <pt x="182" y="1459" on="0"/>
        <pt x="138" y="1579" on="0"/>
        <pt x="73" y="1636" on="0"/>
        <pt x="-13" y="1646" on="0"/>
        <pt x="-68" y="1646" on="1"/>
        <pt x="-68" y="1925" on="1"/>
        <pt x="36" y="1925" on="0"/>
        <pt x="221" y="1911" on="0"/>
        <pt x="380" y="1864" on="0"/>
        <pt x="512" y="1773" on="0"/>
        <pt x="615" y="1618" on="0"/>
        <pt x="687" y="1389" on="0"/>
        <pt x="707" y="1228" on="1"/>
        <pt x="716" y="1156" on="0"/>
        <pt x="730" y="1056" on="0"/>
        <pt x="746" y="992" on="0"/>
        <pt x="768" y="956" on="0"/>
        <pt x="800" y="940" on="0"/>
        <pt x="846" y="937" on="0"/>
        <pt x="878" y="937" on="1"/>
        <pt x="878" y="658" on="1"/>
        <pt x="846" y="658" on="0"/>
        <pt x="800" y="655" on="0"/>
        <pt x="768" y="639" on="0"/>
        <pt x="746" y="603" on="0"/>
        <pt x="730" y="539" on="0"/>
        <pt x="716" y="439" on="0"/>
        <pt x="707" y="367" on="1"/>
        <pt x="687" y="206" on="0"/>
        <pt x="615" y="-23" on="0"/>
        <pt x="512" y="-178" on="0"/>
        <pt x="380" y="-269" on="0"/>
        <pt x="221" y="-316" on="0"/>
        <pt x="36" y="-330" on="0"/>
        <pt x="-68" y="-330" on="1"/>
        <pt x="-68" y="-51" on="1"/>
        <pt x="-13" y="-51" on="0"/>
        <pt x="73" y="-41" on="0"/>
        <pt x="138" y="16" on="0"/>
        <pt x="182" y="136" on="0"/>
        <pt x="196" y="247" on="1"/>
        <pt x="209" y="353" on="0"/>
        <pt x="221" y="524" on="0"/>
        <pt x="241" y="659" on="0"/>
        <pt x="280" y="760" on="0"/>
        <pt x="321" y="797" on="1"/>
        <pt x="280" y="834" on="0"/>
        <pt x="241" y="936" on="0"/>
        <pt x="221" y="1071" on="0"/>
        <pt x="209" y="1241" on="0"/>
      </contour>
    </TTGlyph>
    <TTGlyph name="bracketleft" xMin="92" yMin="-319" xMax="973" yMax="1819">
      <contour>
        <pt x="92" y="1819" on="1"/>
        <pt x="973" y="1819" on="1"/>
        <pt x="973" y="1578" on="1"/>
        <pt x="666" y="1578" on="1"/>
        <pt x="666" y="-77" on="1"/>
        <pt x="973" y="-77" on="1"/>
        <pt x="973" y="-319" on="1"/>
        <pt x="92" y="-319" on="1"/>
      </contour>
    </TTGlyph>
    <TTGlyph name="bracketright" xMin="-27" yMin="-319" xMax="854" yMax="1819">
      <contour>
        <pt x="854" y="-319" on="1"/>
        <pt x="-27" y="-319" on="1"/>
        <pt x="-27" y="-77" on="1"/>
        <pt x="282" y="-77" on="1"/>
        <pt x="282" y="1578" on="1"/>
        <pt x="-27" y="1578" on="1"/>
        <pt x="-27" y="1819" on="1"/>
        <pt x="854" y="1819" on="1"/>
      </contour>
    </TTGlyph>
    <TTGlyph name="breve" xMin="150" yMin="70" xMax="978" yMax="731">
      <contour>
        <pt x="568" y="70" on="1"/>
        <pt x="461" y="70" on="0"/>
        <pt x="303" y="137" on="0"/>
        <pt x="200" y="292" on="0"/>
        <pt x="150" y="545" on="0"/>
        <pt x="150" y="731" on="1"/>
        <pt x="419" y="731" on="1"/>
        <pt x="419" y="671" on="0"/>
        <pt x="425" y="576" on="0"/>
        <pt x="453" y="509" on="0"/>
        <pt x="514" y="473" on="0"/>
        <pt x="568" y="473" on="1"/>
        <pt x="619" y="473" on="0"/>
        <pt x="676" y="509" on="0"/>
        <pt x="703" y="576" on="0"/>
        <pt x="708" y="672" on="0"/>
        <pt x="708" y="731" on="1"/>
        <pt x="978" y="731" on="1"/>
        <pt x="978" y="545" on="0"/>
        <pt x="927" y="292" on="0"/>
        <pt x="826" y="137" on="0"/>
        <pt x="672" y="70" on="0"/>
      </contour>
    </TTGlyph>
    <TTGlyph name="brokenbar" xMin="94" yMin="-255" xMax="668" yMax="1708">
      <contour>
        <pt x="668" y="656" on="1"/>
        <pt x="668" y="-255" on="1"/>
        <pt x="94" y="-255" on="1"/>
        <pt x="94" y="656" on="1"/>
      </contour>
      <contour>
        <pt x="668" y="1708" on="1"/>
        <pt x="668" y="797" on="1"/>
        <pt x="94" y="797" on="1"/>
        <pt x="94" y="1708" on="1"/>
      </contour>
    </TTGlyph>
    <TTGlyph name="bullet" xMin="57" yMin="156" xMax="945" yMax="1294">
      <contour>
        <pt x="945" y="726" on="1"/>
        <pt x="945" y="584" on="0"/>
        <pt x="900" y="388" on="0"/>
        <pt x="827" y="262" on="0"/>
        <pt x="734" y="193" on="0"/>
        <pt x="639" y="161" on="0"/>
        <pt x="549" y="156" on="0"/>
        <pt x="515" y="156" on="1"/>
        <pt x="468" y="156" on="0"/>
        <pt x="363" y="162" on="0"/>
        <pt x="261" y="194" on="0"/>
        <pt x="169" y="263" on="0"/>
        <pt x="99" y="390" on="0"/>
        <pt x="57" y="584" on="0"/>
        <pt x="57" y="726" on="1"/>
        <pt x="57" y="867" on="0"/>
        <pt x="99" y="1061" on="0"/>
        <pt x="169" y="1187" on="0"/>
        <pt x="261" y="1256" on="0"/>
        <pt x="363" y="1288" on="0"/>
        <pt x="468" y="1294" on="0"/>
        <pt x="515" y="1294" on="1"/>
        <pt x="549" y="1294" on="0"/>
        <pt x="639" y="1289" on="0"/>
        <pt x="734" y="1257" on="0"/>
        <pt x="827" y="1189" on="0"/>
        <pt x="900" y="1063" on="0"/>
        <pt x="945" y="868" on="0"/>
      </contour>
    </TTGlyph>
    <TTGlyph name="c" xMin="61" yMin="-37" xMax="1291" yMax="1343">
      <contour>
        <pt x="1291" y="451" on="1"/>
        <pt x="1291" y="354" on="1"/>
        <pt x="1291" y="315" on="0"/>
        <pt x="1285" y="226" on="0"/>
        <pt x="1251" y="139" on="0"/>
        <pt x="1176" y="60" on="0"/>
        <pt x="1039" y="-1" on="0"/>
        <pt x="827" y="-37" on="0"/>
        <pt x="673" y="-37" on="1"/>
        <pt x="523" y="-37" on="0"/>
        <pt x="316" y="-1" on="0"/>
        <pt x="180" y="59" on="0"/>
        <pt x="104" y="139" on="0"/>
        <pt x="68" y="225" on="0"/>
        <pt x="61" y="314" on="0"/>
        <pt x="61" y="354" on="1"/>
        <pt x="61" y="954" on="1"/>
        <pt x="61" y="994" on="0"/>
        <pt x="68" y="1082" on="0"/>
        <pt x="104" y="1168" on="0"/>
        <pt x="180" y="1247" on="0"/>
        <pt x="316" y="1307" on="0"/>
        <pt x="523" y="1343" on="0"/>
        <pt x="673" y="1343" on="1"/>
        <pt x="819" y="1343" on="0"/>
        <pt x="1024" y="1311" on="0"/>
        <pt x="1161" y="1255" on="0"/>
        <pt x="1241" y="1183" on="0"/>
        <pt x="1281" y="1101" on="0"/>
        <pt x="1291" y="1017" on="0"/>
        <pt x="1291" y="978" on="1"/>
        <pt x="1291" y="855" on="1"/>
        <pt x="794" y="855" on="1"/>
        <pt x="794" y="1060" on="1"/>
        <pt x="558" y="1060" on="1"/>
        <pt x="558" y="237" on="1"/>
        <pt x="794" y="237" on="1"/>
        <pt x="794" y="451" on="1"/>
      </contour>
    </TTGlyph>
    <TTGlyph name="cacute" xMin="61" yMin="-37" xMax="1291" yMax="2202">
      <component glyphName="c" x="0" y="0" flags="0x1204"/>
      <component glyphName="acute" x="-120" y="1393" flags="0x1004"/>
    </TTGlyph>
    <TTGlyph name="caron" xMin="315" yMin="82" xMax="1340" yMax="696">
      <contour>
        <pt x="561" y="82" on="1"/>
        <pt x="315" y="696" on="1"/>
        <pt x="749" y="696" on="1"/>
        <pt x="825" y="377" on="1"/>
        <pt x="905" y="696" on="1"/>
        <pt x="1340" y="696" on="1"/>
        <pt x="1084" y="82" on="1"/>
      </contour>
    </TTGlyph>
    <TTGlyph name="ccaron" xMin="61" yMin="-37" xMax="1291" yMax="2089">
      <component glyphName="c" x="0" y="0" flags="0x1204"/>
      <component glyphName="caron" x="-122" y="1393" flags="0x1004"/>
    </TTGlyph>
    <TTGlyph name="ccedilla" xMin="63" yMin="-782" xMax="1293" yMax="1343">
      <component glyphName="c" x="2" y="0" flags="0x1004"/>
      <component glyphName="cedilla" x="46" y="0" flags="0x1004"/>
    </TTGlyph>
    <TTGlyph name="ccircumflex" xMin="61" yMin="-37" xMax="1291" yMax="2069">
      <component glyphName="c" x="0" y="0" flags="0x1204"/>
      <component glyphName="circumflex" x="-122" y="1393" flags="0x1004"/>
    </TTGlyph>
    <TTGlyph name="cdotaccent" xMin="61" yMin="-37" xMax="1291" yMax="1899">
      <component glyphName="c" x="0" y="0" flags="0x1204"/>
      <component glyphName="dotaccent" x="321" y="1432" flags="0x1004"/>
    </TTGlyph>
    <TTGlyph name="cedilla" xMin="385" yMin="-782" xMax="1138" yMax="8">
      <contour>
        <pt x="533" y="8" on="1"/>
        <pt x="797" y="8" on="1"/>
        <pt x="797" y="-106" on="1"/>
        <pt x="879" y="-106" on="0"/>
        <pt x="994" y="-130" on="0"/>
        <pt x="1070" y="-171" on="0"/>
        <pt x="1113" y="-223" on="0"/>
        <pt x="1133" y="-281" on="0"/>
        <pt x="1138" y="-340" on="0"/>
        <pt x="1138" y="-366" on="1"/>
        <pt x="1138" y="-522" on="1"/>
        <pt x="1138" y="-548" on="0"/>
        <pt x="1133" y="-608" on="0"/>
        <pt x="1110" y="-665" on="0"/>
        <pt x="1063" y="-718" on="0"/>
        <pt x="980" y="-758" on="0"/>
        <pt x="853" y="-782" on="0"/>
        <pt x="762" y="-782" on="1"/>
        <pt x="670" y="-782" on="0"/>
        <pt x="542" y="-758" on="0"/>
        <pt x="458" y="-718" on="0"/>
        <pt x="412" y="-665" on="0"/>
        <pt x="390" y="-608" on="0"/>
        <pt x="385" y="-549" on="0"/>
        <pt x="385" y="-522" on="1"/>
        <pt x="385" y="-415" on="1"/>
        <pt x="729" y="-352" on="1"/>
        <pt x="729" y="-602" on="1"/>
        <pt x="797" y="-602" on="1"/>
        <pt x="797" y="-288" on="1"/>
        <pt x="533" y="-288" on="1"/>
      </contour>
    </TTGlyph>
    <TTGlyph name="cent" xMin="45" yMin="-304" xMax="1182" yMax="1709">
      <contour>
        <pt x="399" y="79" on="1"/>
        <pt x="311" y="92" on="0"/>
        <pt x="189" y="139" on="0"/>
        <pt x="111" y="201" on="0"/>
        <pt x="68" y="272" on="0"/>
        <pt x="48" y="348" on="0"/>
        <pt x="45" y="423" on="0"/>
        <pt x="45" y="457" on="1"/>
        <pt x="45" y="1022" on="1"/>
        <pt x="45" y="1055" on="0"/>
        <pt x="48" y="1130" on="0"/>
        <pt x="68" y="1204" on="0"/>
        <pt x="111" y="1276" on="0"/>
        <pt x="189" y="1337" on="0"/>
        <pt x="310" y="1384" on="0"/>
        <pt x="399" y="1397" on="1"/>
        <pt x="399" y="1709" on="1"/>
        <pt x="828" y="1709" on="1"/>
        <pt x="828" y="1397" on="1"/>
        <pt x="917" y="1384" on="0"/>
        <pt x="1039" y="1337" on="0"/>
        <pt x="1118" y="1276" on="0"/>
        <pt x="1160" y="1205" on="0"/>
        <pt x="1179" y="1130" on="0"/>
        <pt x="1182" y="1055" on="0"/>
        <pt x="1182" y="1022" on="1"/>
        <pt x="1180" y="866" on="1"/>
        <pt x="663" y="866" on="1"/>
        <pt x="663" y="1157" on="1"/>
        <pt x="561" y="1157" on="1"/>
        <pt x="561" y="319" on="1"/>
        <pt x="663" y="319" on="1"/>
        <pt x="663" y="645" on="1"/>
        <pt x="1182" y="645" on="1"/>
        <pt x="1182" y="457" on="1"/>
        <pt x="1182" y="423" on="0"/>
        <pt x="1179" y="348" on="0"/>
        <pt x="1159" y="273" on="0"/>
        <pt x="1116" y="201" on="0"/>
        <pt x="1038" y="139" on="0"/>
        <pt x="916" y="92" on="0"/>
        <pt x="828" y="79" on="1"/>
        <pt x="828" y="-304" on="1"/>
        <pt x="399" y="-304" on="1"/>
      </contour>
    </TTGlyph>
    <TTGlyph name="circumflex" xMin="315" yMin="61" xMax="1340" yMax="676">
      <contour>
        <pt x="1084" y="676" on="1"/>
        <pt x="1340" y="61" on="1"/>
        <pt x="905" y="61" on="1"/>
        <pt x="825" y="381" on="1"/>
        <pt x="749" y="61" on="1"/>
        <pt x="315" y="61" on="1"/>
        <pt x="561" y="676" on="1"/>
      </contour>
    </TTGlyph>
    <TTGlyph name="colon" xMin="100" yMin="92" xMax="558" yMax="1497">
      <contour>
        <pt x="558" y="92" on="1"/>
        <pt x="100" y="92" on="1"/>
        <pt x="100" y="559" on="1"/>
        <pt x="558" y="559" on="1"/>
      </contour>
      <contour>
        <pt x="558" y="1000" on="1"/>
        <pt x="100" y="1000" on="1"/>
        <pt x="100" y="1497" on="1"/>
        <pt x="558" y="1497" on="1"/>
      </contour>
    </TTGlyph>
    <TTGlyph name="comma" xMin="74" yMin="-367" xMax="566" yMax="487">
      <contour>
        <pt x="98" y="-168" on="1"/>
        <pt x="150" y="-156" on="0"/>
        <pt x="191" y="-133" on="1"/>
        <pt x="209" y="-123" on="0"/>
        <pt x="242" y="-98" on="0"/>
        <pt x="269" y="-65" on="0"/>
        <pt x="285" y="-24" on="0"/>
        <pt x="285" y="0" on="1"/>
        <pt x="74" y="0" on="1"/>
        <pt x="74" y="487" on="1"/>
        <pt x="566" y="487" on="1"/>
        <pt x="566" y="150" on="1"/>
        <pt x="566" y="-2" on="0"/>
        <pt x="502" y="-201" on="0"/>
        <pt x="382" y="-319" on="0"/>
        <pt x="208" y="-367" on="0"/>
        <pt x="98" y="-367" on="1"/>
      </contour>
    </TTGlyph>
    <TTGlyph name="copyright" xMin="51" yMin="-102" xMax="1586" yMax="1749">
      <contour>
        <pt x="819" y="-102" on="1"/>
        <pt x="673" y="-102" on="0"/>
        <pt x="453" y="-61" on="0"/>
        <pt x="290" y="8" on="0"/>
        <pt x="180" y="100" on="0"/>
        <pt x="108" y="204" on="0"/>
        <pt x="70" y="313" on="0"/>
        <pt x="53" y="415" on="0"/>
        <pt x="51" y="506" on="0"/>
        <pt x="51" y="539" on="1"/>
        <pt x="51" y="1116" on="1"/>
        <pt x="51" y="1160" on="0"/>
        <pt x="57" y="1288" on="0"/>
        <pt x="98" y="1429" on="0"/>
        <pt x="190" y="1568" on="0"/>
        <pt x="360" y="1680" on="0"/>
        <pt x="625" y="1749" on="0"/>
        <pt x="819" y="1749" on="1"/>
        <pt x="964" y="1749" on="0"/>
        <pt x="1185" y="1709" on="0"/>
        <pt x="1347" y="1641" on="0"/>
        <pt x="1458" y="1550" on="0"/>
        <pt x="1529" y="1447" on="0"/>
        <pt x="1567" y="1340" on="0"/>
        <pt x="1584" y="1238" on="0"/>
        <pt x="1586" y="1149" on="0"/>
        <pt x="1586" y="1116" on="1"/>
        <pt x="1586" y="539" on="1"/>
        <pt x="1586" y="506" on="0"/>
        <pt x="1584" y="415" on="0"/>
        <pt x="1567" y="313" on="0"/>
        <pt x="1529" y="204" on="0"/>
        <pt x="1458" y="100" on="0"/>
        <pt x="1347" y="8" on="0"/>
        <pt x="1185" y="-61" on="0"/>
        <pt x="964" y="-102" on="0"/>
      </contour>
      <contour>
        <pt x="819" y="69" on="1"/>
        <pt x="950" y="69" on="0"/>
        <pt x="1133" y="108" on="0"/>
        <pt x="1256" y="173" on="0"/>
        <pt x="1326" y="258" on="0"/>
        <pt x="1361" y="350" on="0"/>
        <pt x="1370" y="442" on="0"/>
        <pt x="1370" y="482" on="1"/>
        <pt x="1370" y="1165" on="1"/>
        <pt x="1370" y="1205" on="0"/>
        <pt x="1361" y="1296" on="0"/>
        <pt x="1326" y="1386" on="0"/>
        <pt x="1256" y="1470" on="0"/>
        <pt x="1133" y="1535" on="0"/>
        <pt x="950" y="1573" on="0"/>
        <pt x="819" y="1573" on="1"/>
        <pt x="688" y="1573" on="0"/>
        <pt x="504" y="1535" on="0"/>
        <pt x="382" y="1470" on="0"/>
        <pt x="312" y="1386" on="0"/>
        <pt x="277" y="1296" on="0"/>
        <pt x="268" y="1204" on="0"/>
        <pt x="268" y="1165" on="1"/>
        <pt x="268" y="1151" on="0"/>
        <pt x="270" y="1125" on="0"/>
        <pt x="269" y="1113" on="1"/>
        <pt x="269" y="534" on="1"/>
        <pt x="269" y="522" on="0"/>
        <pt x="268" y="496" on="0"/>
        <pt x="268" y="482" on="1"/>
        <pt x="268" y="442" on="0"/>
        <pt x="277" y="350" on="0"/>
        <pt x="312" y="258" on="0"/>
        <pt x="382" y="173" on="0"/>
        <pt x="504" y="108" on="0"/>
        <pt x="688" y="69" on="0"/>
      </contour>
      <contour>
        <pt x="768" y="375" on="1"/>
        <pt x="839" y="375" on="1"/>
        <pt x="839" y="752" on="1"/>
        <pt x="1189" y="752" on="1"/>
        <pt x="1189" y="485" on="1"/>
        <pt x="1189" y="457" on="0"/>
        <pt x="1185" y="396" on="0"/>
        <pt x="1163" y="336" on="0"/>
        <pt x="1116" y="281" on="0"/>
        <pt x="1028" y="240" on="0"/>
        <pt x="893" y="215" on="0"/>
        <pt x="795" y="215" on="1"/>
        <pt x="702" y="215" on="0"/>
        <pt x="573" y="240" on="0"/>
        <pt x="488" y="282" on="0"/>
        <pt x="442" y="337" on="0"/>
        <pt x="420" y="398" on="0"/>
        <pt x="416" y="460" on="0"/>
        <pt x="416" y="489" on="1"/>
        <pt x="416" y="1159" on="1"/>
        <pt x="416" y="1188" on="0"/>
        <pt x="420" y="1251" on="0"/>
        <pt x="442" y="1312" on="0"/>
        <pt x="488" y="1367" on="0"/>
        <pt x="573" y="1409" on="0"/>
        <pt x="701" y="1434" on="0"/>
        <pt x="795" y="1434" on="1"/>
        <pt x="893" y="1434" on="0"/>
        <pt x="1028" y="1409" on="0"/>
        <pt x="1116" y="1368" on="0"/>
        <pt x="1163" y="1313" on="0"/>
        <pt x="1185" y="1252" on="0"/>
        <pt x="1189" y="1191" on="0"/>
        <pt x="1189" y="1163" on="1"/>
        <pt x="1189" y="915" on="1"/>
        <pt x="839" y="915" on="1"/>
        <pt x="839" y="1274" on="1"/>
        <pt x="768" y="1274" on="1"/>
      </contour>
    </TTGlyph>
    <TTGlyph name="currency" xMin="53" yMin="188" xMax="1190" yMax="1414">
      <contour>
        <pt x="286" y="1286" on="1"/>
        <pt x="346" y="1312" on="0"/>
        <pt x="511" y="1343" on="0"/>
        <pt x="623" y="1343" on="1"/>
        <pt x="732" y="1343" on="0"/>
        <pt x="895" y="1313" on="0"/>
        <pt x="956" y="1287" on="1"/>
        <pt x="1061" y="1414" on="1"/>
        <pt x="1134" y="1330" on="1"/>
        <pt x="1052" y="1231" on="1"/>
        <pt x="1104" y="1189" on="0"/>
        <pt x="1160" y="1084" on="0"/>
        <pt x="1186" y="971" on="0"/>
        <pt x="1190" y="856" on="0"/>
        <pt x="1190" y="804" on="1"/>
        <pt x="1190" y="765" on="0"/>
        <pt x="1185" y="660" on="0"/>
        <pt x="1154" y="549" on="0"/>
        <pt x="1088" y="441" on="0"/>
        <pt x="1027" y="398" on="1"/>
        <pt x="1134" y="272" on="1"/>
        <pt x="1061" y="188" on="1"/>
        <pt x="929" y="346" on="1"/>
        <pt x="870" y="324" on="0"/>
        <pt x="720" y="299" on="0"/>
        <pt x="623" y="299" on="1"/>
        <pt x="524" y="299" on="0"/>
        <pt x="370" y="325" on="0"/>
        <pt x="313" y="348" on="1"/>
        <pt x="179" y="188" on="1"/>
        <pt x="107" y="272" on="1"/>
        <pt x="214" y="400" on="1"/>
        <pt x="154" y="443" on="0"/>
        <pt x="88" y="551" on="0"/>
        <pt x="58" y="661" on="0"/>
        <pt x="53" y="765" on="0"/>
        <pt x="53" y="804" on="1"/>
        <pt x="53" y="856" on="0"/>
        <pt x="57" y="970" on="0"/>
        <pt x="83" y="1082" on="0"/>
        <pt x="139" y="1187" on="0"/>
        <pt x="190" y="1229" on="1"/>
        <pt x="107" y="1330" on="1"/>
        <pt x="179" y="1414" on="1"/>
      </contour>
      <contour>
        <pt x="570" y="569" on="1"/>
        <pt x="671" y="569" on="1"/>
        <pt x="671" y="1069" on="1"/>
        <pt x="570" y="1069" on="1"/>
      </contour>
    </TTGlyph>
    <TTGlyph name="d" xMin="63" yMin="-37" xMax="1293" yMax="1710">
      <contour>
        <pt x="1293" y="1710" on="1"/>
        <pt x="1293" y="0" on="1"/>
        <pt x="882" y="0" on="1"/>
        <pt x="836" y="167" on="1"/>
        <pt x="806" y="117" on="0"/>
        <pt x="721" y="40" on="0"/>
        <pt x="619" y="-11" on="0"/>
        <pt x="505" y="-37" on="0"/>
        <pt x="445" y="-37" on="1"/>
        <pt x="373" y="-37" on="0"/>
        <pt x="235" y="13" on="0"/>
        <pt x="128" y="116" on="0"/>
        <pt x="63" y="272" on="0"/>
        <pt x="63" y="377" on="1"/>
        <pt x="63" y="955" on="1"/>
        <pt x="63" y="1055" on="0"/>
        <pt x="127" y="1202" on="0"/>
        <pt x="232" y="1298" on="0"/>
        <pt x="367" y="1344" on="0"/>
        <pt x="438" y="1344" on="1"/>
        <pt x="545" y="1344" on="0"/>
        <pt x="732" y="1270" on="0"/>
        <pt x="796" y="1199" on="1"/>
        <pt x="796" y="1710" on="1"/>
      </contour>
      <contour>
        <pt x="796" y="1060" on="1"/>
        <pt x="560" y="1060" on="1"/>
        <pt x="560" y="237" on="1"/>
        <pt x="796" y="237" on="1"/>
      </contour>
    </TTGlyph>
    <TTGlyph name="dagger" xMin="41" yMin="0" xMax="1097" yMax="1595">
      <contour>
        <pt x="825" y="0" on="1"/>
        <pt x="304" y="0" on="1"/>
        <pt x="304" y="900" on="1"/>
        <pt x="41" y="900" on="1"/>
        <pt x="41" y="1300" on="1"/>
        <pt x="317" y="1300" on="1"/>
        <pt x="317" y="1595" on="1"/>
        <pt x="825" y="1595" on="1"/>
        <pt x="825" y="1300" on="1"/>
        <pt x="1097" y="1300" on="1"/>
        <pt x="1097" y="900" on="1"/>
        <pt x="825" y="900" on="1"/>
      </contour>
    </TTGlyph>
    <TTGlyph name="daggerdbl" xMin="55" yMin="0" xMax="1111" yMax="1595">
      <contour>
        <pt x="839" y="695" on="1"/>
        <pt x="1111" y="695" on="1"/>
        <pt x="1111" y="295" on="1"/>
        <pt x="839" y="295" on="1"/>
        <pt x="839" y="0" on="1"/>
        <pt x="319" y="0" on="1"/>
        <pt x="319" y="295" on="1"/>
        <pt x="55" y="295" on="1"/>
        <pt x="55" y="695" on="1"/>
        <pt x="319" y="695" on="1"/>
        <pt x="319" y="900" on="1"/>
        <pt x="55" y="900" on="1"/>
        <pt x="55" y="1300" on="1"/>
        <pt x="319" y="1300" on="1"/>
        <pt x="319" y="1595" on="1"/>
        <pt x="839" y="1595" on="1"/>
        <pt x="839" y="1300" on="1"/>
        <pt x="1111" y="1300" on="1"/>
        <pt x="1111" y="900" on="1"/>
        <pt x="839" y="900" on="1"/>
      </contour>
    </TTGlyph>
    <TTGlyph name="dcaron" xMin="63" yMin="-37" xMax="1824" yMax="1710">
      <component glyphName="d" x="0" y="0" flags="0x1004"/>
      <component glyphName="quoteright" x="1266" y="107" flags="0x1004"/>
    </TTGlyph>
    <TTGlyph name="dcroat" xMin="63" yMin="-37" xMax="1349" yMax="1710">
      <contour>
        <pt x="1349" y="1595" on="1"/>
        <pt x="1349" y="1457" on="1"/>
        <pt x="509" y="1457" on="1"/>
        <pt x="509" y="1595" on="1"/>
      </contour>
      <contour>
        <pt x="1293" y="1710" on="1"/>
        <pt x="1293" y="0" on="1"/>
        <pt x="882" y="0" on="1"/>
        <pt x="836" y="167" on="1"/>
        <pt x="806" y="117" on="0"/>
        <pt x="721" y="40" on="0"/>
        <pt x="619" y="-11" on="0"/>
        <pt x="505" y="-37" on="0"/>
        <pt x="445" y="-37" on="1"/>
        <pt x="373" y="-37" on="0"/>
        <pt x="235" y="13" on="0"/>
        <pt x="128" y="116" on="0"/>
        <pt x="63" y="272" on="0"/>
        <pt x="63" y="377" on="1"/>
        <pt x="63" y="955" on="1"/>
        <pt x="63" y="1055" on="0"/>
        <pt x="127" y="1202" on="0"/>
        <pt x="232" y="1298" on="0"/>
        <pt x="367" y="1344" on="0"/>
        <pt x="438" y="1344" on="1"/>
        <pt x="545" y="1344" on="0"/>
        <pt x="732" y="1270" on="0"/>
        <pt x="796" y="1199" on="1"/>
        <pt x="796" y="1710" on="1"/>
      </contour>
      <contour>
        <pt x="796" y="1060" on="1"/>
        <pt x="560" y="1060" on="1"/>
        <pt x="560" y="237" on="1"/>
        <pt x="796" y="237" on="1"/>
      </contour>
    </TTGlyph>
    <TTGlyph name="degree" xMin="35" yMin="1081" xMax="677" yMax="1661">
      <contour>
        <pt x="355" y="1661" on="1"/>
        <pt x="427" y="1661" on="0"/>
        <pt x="545" y="1615" on="0"/>
        <pt x="630" y="1537" on="0"/>
        <pt x="677" y="1432" on="0"/>
        <pt x="677" y="1372" on="1"/>
        <pt x="677" y="1311" on="0"/>
        <pt x="630" y="1205" on="0"/>
        <pt x="545" y="1126" on="0"/>
        <pt x="427" y="1081" on="0"/>
        <pt x="355" y="1081" on="1"/>
        <pt x="284" y="1081" on="0"/>
        <pt x="167" y="1126" on="0"/>
        <pt x="82" y="1205" on="0"/>
        <pt x="35" y="1311" on="0"/>
        <pt x="35" y="1372" on="1"/>
        <pt x="35" y="1432" on="0"/>
        <pt x="82" y="1537" on="0"/>
        <pt x="167" y="1615" on="0"/>
        <pt x="284" y="1661" on="0"/>
      </contour>
      <contour>
        <pt x="357" y="1483" on="1"/>
        <pt x="305" y="1483" on="0"/>
        <pt x="248" y="1420" on="0"/>
        <pt x="248" y="1374" on="1"/>
        <pt x="248" y="1329" on="0"/>
        <pt x="305" y="1264" on="0"/>
        <pt x="357" y="1264" on="1"/>
        <pt x="411" y="1264" on="0"/>
        <pt x="466" y="1329" on="0"/>
        <pt x="466" y="1374" on="1"/>
        <pt x="466" y="1420" on="0"/>
        <pt x="411" y="1483" on="0"/>
      </contour>
    </TTGlyph>
    <TTGlyph name="dieresis" xMin="-209" yMin="82" xMax="816" yMax="418">
      <contour>
        <pt x="198" y="418" on="1"/>
        <pt x="198" y="82" on="1"/>
        <pt x="-209" y="82" on="1"/>
        <pt x="-209" y="418" on="1"/>
      </contour>
      <contour>
        <pt x="816" y="418" on="1"/>
        <pt x="816" y="82" on="1"/>
        <pt x="409" y="82" on="1"/>
        <pt x="409" y="418" on="1"/>
      </contour>
    </TTGlyph>
    <TTGlyph name="divide" xMin="39" yMin="92" xMax="1089" yMax="1497">
      <contour>
        <pt x="792" y="92" on="1"/>
        <pt x="334" y="92" on="1"/>
        <pt x="334" y="559" on="1"/>
        <pt x="792" y="559" on="1"/>
      </contour>
      <contour>
        <pt x="792" y="1000" on="1"/>
        <pt x="334" y="1000" on="1"/>
        <pt x="334" y="1497" on="1"/>
        <pt x="792" y="1497" on="1"/>
      </contour>
      <contour>
        <pt x="1089" y="908" on="1"/>
        <pt x="1089" y="670" on="1"/>
        <pt x="39" y="670" on="1"/>
        <pt x="39" y="908" on="1"/>
      </contour>
    </TTGlyph>
    <TTGlyph name="dollar" xMin="49" yMin="-248" xMax="1310" yMax="1843">
      <contour>
        <pt x="623" y="1106" on="1"/>
        <pt x="623" y="1090" on="0"/>
        <pt x="682" y="1077" on="0"/>
        <pt x="779" y="1066" on="0"/>
        <pt x="902" y="1050" on="0"/>
        <pt x="1031" y="1014" on="0"/>
        <pt x="1154" y="950" on="0"/>
        <pt x="1251" y="844" on="0"/>
        <pt x="1310" y="688" on="0"/>
        <pt x="1310" y="578" on="1"/>
        <pt x="1310" y="512" on="0"/>
        <pt x="1304" y="383" on="0"/>
        <pt x="1282" y="264" on="0"/>
        <pt x="1236" y="157" on="0"/>
        <pt x="1155" y="69" on="0"/>
        <pt x="1034" y="3" on="0"/>
        <pt x="947" y="-16" on="1"/>
        <pt x="947" y="-248" on="1"/>
        <pt x="437" y="-248" on="1"/>
        <pt x="437" y="-17" on="1"/>
        <pt x="351" y="-1" on="0"/>
        <pt x="226" y="50" on="0"/>
        <pt x="140" y="114" on="0"/>
        <pt x="87" y="188" on="0"/>
        <pt x="59" y="264" on="0"/>
        <pt x="49" y="338" on="0"/>
        <pt x="49" y="371" on="1"/>
        <pt x="49" y="533" on="1"/>
        <pt x="623" y="533" on="1"/>
        <pt x="623" y="233" on="1"/>
        <pt x="735" y="233" on="1"/>
        <pt x="735" y="553" on="1"/>
        <pt x="735" y="568" on="0"/>
        <pt x="676" y="589" on="0"/>
        <pt x="580" y="613" on="0"/>
        <pt x="456" y="642" on="0"/>
        <pt x="328" y="687" on="0"/>
        <pt x="204" y="752" on="0"/>
        <pt x="108" y="848" on="0"/>
        <pt x="49" y="977" on="0"/>
        <pt x="49" y="1064" on="1"/>
        <pt x="49" y="1195" on="0"/>
        <pt x="84" y="1387" on="0"/>
        <pt x="172" y="1519" on="0"/>
        <pt x="322" y="1597" on="0"/>
        <pt x="437" y="1615" on="1"/>
        <pt x="437" y="1843" on="1"/>
        <pt x="947" y="1843" on="1"/>
        <pt x="947" y="1612" on="1"/>
        <pt x="1024" y="1597" on="0"/>
        <pt x="1131" y="1550" on="0"/>
        <pt x="1203" y="1491" on="0"/>
        <pt x="1244" y="1422" on="0"/>
        <pt x="1264" y="1351" on="0"/>
        <pt x="1269" y="1280" on="0"/>
        <pt x="1269" y="1247" on="1"/>
        <pt x="1269" y="1128" on="1"/>
        <pt x="735" y="1128" on="1"/>
        <pt x="735" y="1364" on="1"/>
        <pt x="623" y="1364" on="1"/>
      </contour>
    </TTGlyph>
    <TTGlyph name="dotaccent" xMin="80" yMin="0" xMax="538" yMax="467">
      <contour>
        <pt x="538" y="0" on="1"/>
        <pt x="80" y="0" on="1"/>
        <pt x="80" y="467" on="1"/>
        <pt x="538" y="467" on="1"/>
      </contour>
    </TTGlyph>
    <TTGlyph name="dotlessi" xMin="80" yMin="0" xMax="594" yMax="1298">
      <contour>
        <pt x="594" y="0" on="1"/>
        <pt x="80" y="0" on="1"/>
        <pt x="80" y="1298" on="1"/>
        <pt x="594" y="1298" on="1"/>
      </contour>
    </TTGlyph>
    <TTGlyph name="e" xMin="61" yMin="-36" xMax="1291" yMax="1343">
      <contour>
        <pt x="1290" y="451" on="1"/>
        <pt x="1290" y="380" on="0"/>
        <pt x="1280" y="253" on="0"/>
        <pt x="1241" y="144" on="0"/>
        <pt x="1162" y="58" on="0"/>
        <pt x="1025" y="-3" on="0"/>
        <pt x="820" y="-36" on="0"/>
        <pt x="673" y="-36" on="1"/>
        <pt x="523" y="-36" on="0"/>
        <pt x="316" y="0" on="0"/>
        <pt x="180" y="60" on="0"/>
        <pt x="104" y="139" on="0"/>
        <pt x="68" y="226" on="0"/>
        <pt x="61" y="314" on="0"/>
        <pt x="61" y="354" on="1"/>
        <pt x="61" y="954" on="1"/>
        <pt x="61" y="994" on="0"/>
        <pt x="68" y="1082" on="0"/>
        <pt x="104" y="1168" on="0"/>
        <pt x="180" y="1247" on="0"/>
        <pt x="316" y="1307" on="0"/>
        <pt x="523" y="1343" on="0"/>
        <pt x="673" y="1343" on="1"/>
        <pt x="819" y="1343" on="0"/>
        <pt x="1025" y="1307" on="0"/>
        <pt x="1162" y="1247" on="0"/>
        <pt x="1241" y="1168" on="0"/>
        <pt x="1281" y="1082" on="0"/>
        <pt x="1291" y="993" on="0"/>
        <pt x="1291" y="954" on="1"/>
        <pt x="1291" y="579" on="1"/>
        <pt x="558" y="579" on="1"/>
        <pt x="558" y="237" on="1"/>
        <pt x="794" y="237" on="1"/>
        <pt x="794" y="450" on="1"/>
      </contour>
      <contour>
        <pt x="558" y="757" on="1"/>
        <pt x="794" y="757" on="1"/>
        <pt x="794" y="1060" on="1"/>
        <pt x="558" y="1060" on="1"/>
      </contour>
    </TTGlyph>
    <TTGlyph name="eacute" xMin="61" yMin="-36" xMax="1291" yMax="2202">
      <component glyphName="e" x="0" y="0" flags="0x1204"/>
      <component glyphName="acute" x="-122" y="1393" flags="0x1004"/>
    </TTGlyph>
    <TTGlyph name="ebreve" xMin="61" yMin="-36" xMax="1291" yMax="2126">
      <component glyphName="e" x="0" y="0" flags="0x1004"/>
      <component glyphName="breve" x="30" y="1395" flags="0x1004"/>
    </TTGlyph>
    <TTGlyph name="ecaron" xMin="61" yMin="-36" xMax="1291" yMax="2089">
      <component glyphName="e" x="0" y="0" flags="0x1204"/>
      <component glyphName="caron" x="-124" y="1393" flags="0x1004"/>
    </TTGlyph>
    <TTGlyph name="ecircumflex" xMin="61" yMin="-36" xMax="1291" yMax="2069">
      <component glyphName="e" x="0" y="0" flags="0x1204"/>
      <component glyphName="circumflex" x="-124" y="1393" flags="0x1004"/>
    </TTGlyph>
    <TTGlyph name="edieresis" xMin="61" yMin="-36" xMax="1314" yMax="1811">
      <component glyphName="e" x="23" y="0" flags="0x1204"/>
      <component glyphName="dieresis" x="270" y="1393" flags="0x1004"/>
    </TTGlyph>
    <TTGlyph name="edotaccent" xMin="61" yMin="-36" xMax="1291" yMax="1899">
      <component glyphName="e" x="0" y="0" flags="0x1204"/>
      <component glyphName="dotaccent" x="320" y="1432" flags="0x1004"/>
    </TTGlyph>
    <TTGlyph name="egrave" xMin="61" yMin="-36" xMax="1291" yMax="2202">
      <component glyphName="e" x="0" y="0" flags="0x1204"/>
      <component glyphName="grave" x="-124" y="1393" flags="0x1004"/>
    </TTGlyph>
    <TTGlyph name="eight" xMin="22" yMin="-41" xMax="1252" yMax="1630">
      <contour>
        <pt x="637" y="1630" on="1"/>
        <pt x="775" y="1630" on="0"/>
        <pt x="992" y="1579" on="0"/>
        <pt x="1143" y="1470" on="0"/>
        <pt x="1222" y="1300" on="0"/>
        <pt x="1222" y="1181" on="1"/>
        <pt x="1222" y="1127" on="0"/>
        <pt x="1203" y="1043" on="0"/>
        <pt x="1172" y="979" on="0"/>
        <pt x="1133" y="932" on="0"/>
        <pt x="1112" y="916" on="1"/>
        <pt x="1064" y="878" on="0"/>
        <pt x="1002" y="865" on="1"/>
        <pt x="1072" y="852" on="0"/>
        <pt x="1127" y="805" on="1"/>
        <pt x="1150" y="785" on="0"/>
        <pt x="1195" y="727" on="0"/>
        <pt x="1230" y="646" on="0"/>
        <pt x="1252" y="539" on="0"/>
        <pt x="1252" y="471" on="1"/>
        <pt x="1252" y="397" on="0"/>
        <pt x="1234" y="263" on="0"/>
        <pt x="1186" y="149" on="0"/>
        <pt x="1100" y="58" on="0"/>
        <pt x="963" y="-7" on="0"/>
        <pt x="769" y="-41" on="0"/>
        <pt x="637" y="-41" on="1"/>
        <pt x="505" y="-41" on="0"/>
        <pt x="311" y="-7" on="0"/>
        <pt x="174" y="58" on="0"/>
        <pt x="88" y="149" on="0"/>
        <pt x="40" y="263" on="0"/>
        <pt x="22" y="396" on="0"/>
        <pt x="22" y="471" on="1"/>
        <pt x="22" y="539" on="0"/>
        <pt x="36" y="646" on="0"/>
        <pt x="60" y="727" on="0"/>
        <pt x="90" y="785" on="0"/>
        <pt x="106" y="805" on="1"/>
        <pt x="143" y="852" on="0"/>
        <pt x="191" y="865" on="1"/>
        <pt x="149" y="878" on="0"/>
        <pt x="116" y="917" on="1"/>
        <pt x="102" y="933" on="0"/>
        <pt x="75" y="980" on="0"/>
        <pt x="54" y="1045" on="0"/>
        <pt x="41" y="1128" on="0"/>
        <pt x="41" y="1181" on="1"/>
        <pt x="41" y="1300" on="0"/>
        <pt x="124" y="1470" on="0"/>
        <pt x="278" y="1579" on="0"/>
        <pt x="499" y="1630" on="0"/>
      </contour>
      <contour>
        <pt x="519" y="1358" on="1"/>
        <pt x="519" y="961" on="1"/>
        <pt x="755" y="961" on="1"/>
        <pt x="755" y="1358" on="1"/>
      </contour>
      <contour>
        <pt x="519" y="236" on="1"/>
        <pt x="755" y="236" on="1"/>
        <pt x="755" y="721" on="1"/>
        <pt x="519" y="721" on="1"/>
      </contour>
    </TTGlyph>
    <TTGlyph name="ellipsis" xMin="74" yMin="0" xMax="1707" yMax="467">
      <contour>
        <pt x="532" y="0" on="1"/>
        <pt x="74" y="0" on="1"/>
        <pt x="74" y="467" on="1"/>
        <pt x="532" y="467" on="1"/>
      </contour>
      <contour>
        <pt x="1120" y="0" on="1"/>
        <pt x="662" y="0" on="1"/>
        <pt x="662" y="467" on="1"/>
        <pt x="1120" y="467" on="1"/>
      </contour>
      <contour>
        <pt x="1707" y="0" on="1"/>
        <pt x="1249" y="0" on="1"/>
        <pt x="1249" y="467" on="1"/>
        <pt x="1707" y="467" on="1"/>
      </contour>
    </TTGlyph>
    <TTGlyph name="emacron" xMin="61" yMin="-36" xMax="1291" yMax="1811">
      <component glyphName="e" x="0" y="0" flags="0x1204"/>
      <component glyphName="macron" x="263" y="1393" flags="0x1004"/>
    </TTGlyph>
    <TTGlyph name="emdash" xMin="59" yMin="461" xMax="1583" yMax="897">
      <contour>
        <pt x="1583" y="897" on="1"/>
        <pt x="1583" y="461" on="1"/>
        <pt x="59" y="461" on="1"/>
        <pt x="59" y="897" on="1"/>
      </contour>
    </TTGlyph>
    <TTGlyph name="endash" xMin="59" yMin="461" xMax="812" yMax="897">
      <contour>
        <pt x="812" y="897" on="1"/>
        <pt x="812" y="461" on="1"/>
        <pt x="59" y="461" on="1"/>
        <pt x="59" y="897" on="1"/>
      </contour>
    </TTGlyph>
    <TTGlyph name="eng" xMin="80" yMin="-462" xMax="1238" yMax="1343">
      <contour>
        <pt x="80" y="0" on="1"/>
        <pt x="80" y="1300" on="1"/>
        <pt x="542" y="1300" on="1"/>
        <pt x="568" y="1225" on="1"/>
        <pt x="590" y="1255" on="0"/>
        <pt x="659" y="1300" on="0"/>
        <pt x="738" y="1329" on="0"/>
        <pt x="820" y="1343" on="0"/>
        <pt x="855" y="1343" on="1"/>
        <pt x="948" y="1343" on="0"/>
        <pt x="1078" y="1303" on="0"/>
        <pt x="1163" y="1237" on="0"/>
        <pt x="1210" y="1151" on="0"/>
        <pt x="1233" y="1059" on="0"/>
        <pt x="1238" y="967" on="0"/>
        <pt x="1238" y="928" on="1"/>
        <pt x="1238" y="-46" on="1"/>
        <pt x="1238" y="-86" on="0"/>
        <pt x="1234" y="-179" on="0"/>
        <pt x="1210" y="-271" on="0"/>
        <pt x="1161" y="-357" on="0"/>
        <pt x="1070" y="-423" on="0"/>
        <pt x="932" y="-462" on="0"/>
        <pt x="832" y="-462" on="1"/>
        <pt x="755" y="-462" on="0"/>
        <pt x="635" y="-455" on="0"/>
        <pt x="544" y="-444" on="0"/>
        <pt x="478" y="-431" on="0"/>
        <pt x="454" y="-425" on="1"/>
        <pt x="454" y="-206" on="1"/>
        <pt x="710" y="-206" on="1"/>
        <pt x="710" y="1069" on="1"/>
        <pt x="608" y="1069" on="1"/>
        <pt x="608" y="0" on="1"/>
      </contour>
    </TTGlyph>
    <TTGlyph name="eogonek" xMin="63" yMin="-737" xMax="1293" yMax="1343">
      <component glyphName="e" x="2" y="0" flags="0x1004"/>
      <component glyphName="ogonek" x="117" y="0" flags="0x1004"/>
    </TTGlyph>
    <TTGlyph name="equal" xMin="70" yMin="0" xMax="824" yMax="897">
      <contour>
        <pt x="824" y="336" on="1"/>
        <pt x="824" y="0" on="1"/>
        <pt x="70" y="0" on="1"/>
        <pt x="70" y="336" on="1"/>
      </contour>
      <contour>
        <pt x="824" y="897" on="1"/>
        <pt x="824" y="561" on="1"/>
        <pt x="70" y="561" on="1"/>
        <pt x="70" y="897" on="1"/>
      </contour>
    </TTGlyph>
    <TTGlyph name="eth" xMin="33" yMin="-38" xMax="1176" yMax="1887">
      <contour>
        <pt x="425" y="1415" on="1"/>
        <pt x="387" y="1444" on="0"/>
        <pt x="315" y="1493" on="0"/>
        <pt x="287" y="1510" on="1"/>
        <pt x="254" y="1530" on="0"/>
        <pt x="226" y="1546" on="1"/>
        <pt x="429" y="1887" on="1"/>
        <pt x="476" y="1866" on="0"/>
        <pt x="531" y="1835" on="1"/>
        <pt x="578" y="1809" on="0"/>
        <pt x="697" y="1728" on="0"/>
        <pt x="763" y="1672" on="1"/>
        <pt x="951" y="1815" on="1"/>
        <pt x="1015" y="1692" on="1"/>
        <pt x="863" y="1576" on="1"/>
        <pt x="925" y="1511" on="0"/>
        <pt x="1038" y="1351" on="0"/>
        <pt x="1125" y="1160" on="0"/>
        <pt x="1176" y="935" on="0"/>
        <pt x="1176" y="806" on="1"/>
        <pt x="1176" y="653" on="0"/>
        <pt x="1162" y="409" on="0"/>
        <pt x="1120" y="221" on="0"/>
        <pt x="1042" y="87" on="0"/>
        <pt x="916" y="2" on="0"/>
        <pt x="734" y="-38" on="0"/>
        <pt x="608" y="-38" on="1"/>
        <pt x="480" y="-38" on="0"/>
        <pt x="296" y="-4" on="0"/>
        <pt x="168" y="61" on="0"/>
        <pt x="90" y="157" on="0"/>
        <pt x="47" y="282" on="0"/>
        <pt x="33" y="434" on="0"/>
        <pt x="33" y="523" on="1"/>
        <pt x="33" y="604" on="0"/>
        <pt x="44" y="753" on="0"/>
        <pt x="79" y="880" on="0"/>
        <pt x="145" y="983" on="0"/>
        <pt x="256" y="1056" on="0"/>
        <pt x="418" y="1096" on="0"/>
        <pt x="531" y="1096" on="1"/>
        <pt x="658" y="1096" on="1"/>
        <pt x="658" y="1125" on="0"/>
        <pt x="638" y="1183" on="0"/>
        <pt x="604" y="1241" on="0"/>
        <pt x="558" y="1297" on="0"/>
        <pt x="531" y="1323" on="1"/>
        <pt x="303" y="1150" on="1"/>
        <pt x="240" y="1274" on="1"/>
      </contour>
      <contour>
        <pt x="656" y="826" on="1"/>
        <pt x="546" y="826" on="1"/>
        <pt x="546" y="236" on="1"/>
        <pt x="656" y="236" on="1"/>
      </contour>
    </TTGlyph>
    <TTGlyph name="exclam" xMin="86" yMin="0" xMax="601" yMax="1604">
      <contour>
        <pt x="553" y="492" on="1"/>
        <pt x="86" y="492" on="1"/>
        <pt x="86" y="1604" on="1"/>
        <pt x="601" y="1604" on="1"/>
      </contour>
      <contour>
        <pt x="86" y="0" on="1"/>
        <pt x="86" y="397" on="1"/>
        <pt x="601" y="397" on="1"/>
        <pt x="601" y="0" on="1"/>
      </contour>
    </TTGlyph>
    <TTGlyph name="exclamdown" xMin="86" yMin="0" xMax="601" yMax="1604">
      <component glyphName="exclam" x="0" y="1604" scalex="1.0" scaley="-1.0" flags="0x1004"/>
    </TTGlyph>
    <TTGlyph name="f" xMin="8" yMin="0" xMax="976" yMax="1734">
      <contour>
        <pt x="195" y="1300" on="1"/>
        <pt x="195" y="1418" on="0"/>
        <pt x="261" y="1583" on="0"/>
        <pt x="379" y="1687" on="0"/>
        <pt x="542" y="1734" on="0"/>
        <pt x="639" y="1734" on="1"/>
        <pt x="715" y="1734" on="0"/>
        <pt x="880" y="1707" on="0"/>
        <pt x="968" y="1683" on="1"/>
        <pt x="968" y="1477" on="1"/>
        <pt x="692" y="1477" on="1"/>
        <pt x="692" y="1300" on="1"/>
        <pt x="976" y="1300" on="1"/>
        <pt x="976" y="1098" on="1"/>
        <pt x="692" y="1098" on="1"/>
        <pt x="692" y="0" on="1"/>
        <pt x="195" y="0" on="1"/>
        <pt x="195" y="1098" on="1"/>
        <pt x="8" y="1098" on="1"/>
        <pt x="8" y="1300" on="1"/>
      </contour>
    </TTGlyph>
    <TTGlyph name="five" xMin="26" yMin="-38" xMax="1256" yMax="1595">
      <contour>
        <pt x="523" y="474" on="1"/>
        <pt x="523" y="237" on="1"/>
        <pt x="759" y="237" on="1"/>
        <pt x="759" y="838" on="1"/>
        <pt x="542" y="838" on="1"/>
        <pt x="522" y="655" on="1"/>
        <pt x="26" y="655" on="1"/>
        <pt x="179" y="1595" on="1"/>
        <pt x="1177" y="1595" on="1"/>
        <pt x="1177" y="1300" on="1"/>
        <pt x="606" y="1300" on="1"/>
        <pt x="563" y="998" on="1"/>
        <pt x="580" y="1028" on="0"/>
        <pt x="618" y="1053" on="1"/>
        <pt x="650" y="1073" on="0"/>
        <pt x="764" y="1108" on="0"/>
        <pt x="856" y="1108" on="1"/>
        <pt x="960" y="1108" on="0"/>
        <pt x="1111" y="1036" on="0"/>
        <pt x="1209" y="896" on="0"/>
        <pt x="1256" y="689" on="0"/>
        <pt x="1256" y="553" on="1"/>
        <pt x="1256" y="454" on="0"/>
        <pt x="1239" y="289" on="0"/>
        <pt x="1190" y="158" on="0"/>
        <pt x="1105" y="60" on="0"/>
        <pt x="968" y="-5" on="0"/>
        <pt x="774" y="-38" on="0"/>
        <pt x="642" y="-38" on="1"/>
        <pt x="447" y="-38" on="0"/>
        <pt x="205" y="37" on="0"/>
        <pt x="72" y="172" on="0"/>
        <pt x="26" y="360" on="0"/>
        <pt x="26" y="474" on="1"/>
      </contour>
    </TTGlyph>
    <TTGlyph name="florin" xMin="-162" yMin="-434" xMax="1033" yMax="1631">
      <contour>
        <pt x="583" y="-17" on="1"/>
        <pt x="571" y="-131" on="0"/>
        <pt x="494" y="-290" on="0"/>
        <pt x="377" y="-389" on="0"/>
        <pt x="225" y="-434" on="0"/>
        <pt x="138" y="-434" on="1"/>
        <pt x="68" y="-434" on="0"/>
        <pt x="-84" y="-407" on="0"/>
        <pt x="-162" y="-383" on="1"/>
        <pt x="-141" y="-177" on="1"/>
        <pt x="38" y="-177" on="1"/>
        <pt x="166" y="998" on="1"/>
        <pt x="-21" y="998" on="1"/>
        <pt x="2" y="1200" on="1"/>
        <pt x="189" y="1200" on="1"/>
        <pt x="191" y="1217" on="1"/>
        <pt x="203" y="1320" on="0"/>
        <pt x="263" y="1476" on="0"/>
        <pt x="381" y="1579" on="0"/>
        <pt x="568" y="1631" on="0"/>
        <pt x="708" y="1631" on="1"/>
        <pt x="802" y="1631" on="0"/>
        <pt x="925" y="1616" on="0"/>
        <pt x="964" y="1606" on="1"/>
        <pt x="983" y="1601" on="0"/>
        <pt x="1019" y="1591" on="0"/>
        <pt x="1033" y="1583" on="1"/>
        <pt x="1012" y="1377" on="1"/>
        <pt x="736" y="1377" on="1"/>
        <pt x="717" y="1200" on="1"/>
        <pt x="999" y="1200" on="1"/>
        <pt x="978" y="998" on="1"/>
        <pt x="694" y="998" on="1"/>
      </contour>
    </TTGlyph>
    <TTGlyph name="four" xMin="43" yMin="0" xMax="1234" yMax="1595">
      <contour>
        <pt x="1234" y="0" on="1"/>
        <pt x="737" y="0" on="1"/>
        <pt x="737" y="237" on="1"/>
        <pt x="43" y="237" on="1"/>
        <pt x="43" y="657" on="1"/>
        <pt x="310" y="1595" on="1"/>
        <pt x="803" y="1595" on="1"/>
        <pt x="539" y="657" on="1"/>
        <pt x="539" y="603" on="1"/>
        <pt x="737" y="603" on="1"/>
        <pt x="737" y="938" on="1"/>
        <pt x="1234" y="938" on="1"/>
      </contour>
    </TTGlyph>
    <TTGlyph name="g" xMin="63" yMin="-587" xMax="1293" yMax="1337">
      <contour>
        <pt x="796" y="101" on="1"/>
        <pt x="765" y="66" on="0"/>
        <pt x="684" y="12" on="0"/>
        <pt x="591" y="-25" on="0"/>
        <pt x="489" y="-44" on="0"/>
        <pt x="438" y="-44" on="1"/>
        <pt x="367" y="-44" on="0"/>
        <pt x="232" y="2" on="0"/>
        <pt x="127" y="98" on="0"/>
        <pt x="63" y="245" on="0"/>
        <pt x="63" y="345" on="1"/>
        <pt x="63" y="923" on="1"/>
        <pt x="63" y="1028" on="0"/>
        <pt x="128" y="1184" on="0"/>
        <pt x="235" y="1287" on="0"/>
        <pt x="373" y="1337" on="0"/>
        <pt x="445" y="1337" on="1"/>
        <pt x="503" y="1337" on="0"/>
        <pt x="617" y="1311" on="0"/>
        <pt x="720" y="1260" on="0"/>
        <pt x="806" y="1183" on="0"/>
        <pt x="836" y="1133" on="1"/>
        <pt x="882" y="1300" on="1"/>
        <pt x="1293" y="1300" on="1"/>
        <pt x="1293" y="58" on="1"/>
        <pt x="1293" y="-59" on="0"/>
        <pt x="1243" y="-246" on="0"/>
        <pt x="1157" y="-390" on="0"/>
        <pt x="1040" y="-492" on="0"/>
        <pt x="904" y="-557" on="0"/>
        <pt x="754" y="-587" on="0"/>
        <pt x="679" y="-587" on="1"/>
        <pt x="611" y="-587" on="0"/>
        <pt x="480" y="-563" on="0"/>
        <pt x="361" y="-518" on="0"/>
        <pt x="261" y="-454" on="0"/>
        <pt x="187" y="-375" on="0"/>
        <pt x="146" y="-283" on="0"/>
        <pt x="146" y="-232" on="1"/>
        <pt x="146" y="-210" on="0"/>
        <pt x="154" y="-182" on="0"/>
        <pt x="163" y="-159" on="1"/>
        <pt x="666" y="-171" on="1"/>
        <pt x="666" y="-288" on="1"/>
        <pt x="796" y="-288" on="1"/>
      </contour>
      <contour>
        <pt x="796" y="1060" on="1"/>
        <pt x="560" y="1060" on="1"/>
        <pt x="560" y="237" on="1"/>
        <pt x="796" y="237" on="1"/>
      </contour>
    </TTGlyph>
    <TTGlyph name="gbreve" xMin="63" yMin="-587" xMax="1293" yMax="2126">
      <component glyphName="g" x="0" y="0" flags="0x1204"/>
      <component glyphName="breve" x="41" y="1395" flags="0x1004"/>
    </TTGlyph>
    <TTGlyph name="gcircumflex" xMin="63" yMin="-587" xMax="1293" yMax="2069">
      <component glyphName="g" x="0" y="0" flags="0x1204"/>
      <component glyphName="circumflex" x="-125" y="1393" flags="0x1004"/>
    </TTGlyph>
    <TTGlyph name="gcommaaccent" xMin="63" yMin="-587" xMax="1293" yMax="2284">
      <component glyphName="g" x="0" y="0" flags="0x1204"/>
      <component glyphName="quoteleft" x="343" y="649" flags="0x1004"/>
    </TTGlyph>
    <TTGlyph name="gdotaccent" xMin="63" yMin="-587" xMax="1293" yMax="1899">
      <component glyphName="g" x="0" y="0" flags="0x1204"/>
      <component glyphName="dotaccent" x="319" y="1432" flags="0x1004"/>
    </TTGlyph>
    <TTGlyph name="germandbls" xMin="27" yMin="-205" xMax="1257" yMax="1595">
      <contour>
        <pt x="524" y="-205" on="1"/>
        <pt x="27" y="-205" on="1"/>
        <pt x="27" y="1217" on="1"/>
        <pt x="27" y="1256" on="0"/>
        <pt x="36" y="1343" on="0"/>
        <pt x="74" y="1427" on="0"/>
        <pt x="151" y="1503" on="0"/>
        <pt x="288" y="1561" on="0"/>
        <pt x="495" y="1595" on="0"/>
        <pt x="644" y="1595" on="1"/>
        <pt x="777" y="1595" on="0"/>
        <pt x="961" y="1554" on="0"/>
        <pt x="1082" y="1486" on="0"/>
        <pt x="1149" y="1397" on="0"/>
        <pt x="1181" y="1303" on="0"/>
        <pt x="1187" y="1209" on="0"/>
        <pt x="1187" y="1170" on="1"/>
        <pt x="1187" y="1111" on="0"/>
        <pt x="1164" y="1026" on="0"/>
        <pt x="1125" y="964" on="0"/>
        <pt x="1076" y="923" on="0"/>
        <pt x="1051" y="909" on="1"/>
        <pt x="991" y="876" on="0"/>
        <pt x="915" y="870" on="1"/>
        <pt x="950" y="868" on="0"/>
        <pt x="1027" y="853" on="0"/>
        <pt x="1103" y="822" on="0"/>
        <pt x="1173" y="775" on="0"/>
        <pt x="1226" y="706" on="0"/>
        <pt x="1257" y="613" on="0"/>
        <pt x="1257" y="553" on="1"/>
        <pt x="1257" y="258" on="1"/>
        <pt x="1257" y="222" on="0"/>
        <pt x="1247" y="150" on="0"/>
        <pt x="1211" y="85" on="0"/>
        <pt x="1139" y="28" on="0"/>
        <pt x="1017" y="-13" on="0"/>
        <pt x="834" y="-37" on="0"/>
        <pt x="705" y="-37" on="1"/>
        <pt x="621" y="-37" on="1"/>
        <pt x="621" y="194" on="1"/>
        <pt x="760" y="194" on="1"/>
        <pt x="760" y="750" on="1"/>
        <pt x="648" y="750" on="1"/>
        <pt x="648" y="981" on="1"/>
        <pt x="760" y="981" on="1"/>
        <pt x="760" y="1358" on="1"/>
        <pt x="524" y="1358" on="1"/>
      </contour>
    </TTGlyph>
    <TTGlyph name="grave" xMin="385" yMin="41" xMax="1280" yMax="809">
      <contour>
        <pt x="593" y="809" on="1"/>
        <pt x="1280" y="246" on="1"/>
        <pt x="1210" y="41" on="1"/>
        <pt x="385" y="266" on="1"/>
      </contour>
    </TTGlyph>
    <TTGlyph name="greater" xMin="68" yMin="0" xMax="861" yMax="1597">
      <contour>
        <pt x="861" y="489" on="1"/>
        <pt x="68" y="0" on="1"/>
        <pt x="68" y="504" on="1"/>
        <pt x="611" y="797" on="1"/>
        <pt x="68" y="1092" on="1"/>
        <pt x="68" y="1597" on="1"/>
        <pt x="861" y="1098" on="1"/>
      </contour>
    </TTGlyph>
    <TTGlyph name="guillemotleft" xMin="43" yMin="0" xMax="1532" yMax="1597">
      <contour>
        <pt x="43" y="1098" on="1"/>
        <pt x="750" y="1597" on="1"/>
        <pt x="750" y="1092" on="1"/>
        <pt x="292" y="797" on="1"/>
        <pt x="750" y="504" on="1"/>
        <pt x="750" y="0" on="1"/>
        <pt x="43" y="489" on="1"/>
      </contour>
      <contour>
        <pt x="825" y="1098" on="1"/>
        <pt x="1532" y="1597" on="1"/>
        <pt x="1532" y="1092" on="1"/>
        <pt x="1074" y="797" on="1"/>
        <pt x="1532" y="504" on="1"/>
        <pt x="1532" y="0" on="1"/>
        <pt x="825" y="489" on="1"/>
      </contour>
    </TTGlyph>
    <TTGlyph name="guillemotright" xMin="74" yMin="0" xMax="1563" yMax="1597">
      <component glyphName="guillemotleft" x="1606" y="0" scalex="-1.0" scaley="1.0" flags="0x1004"/>
    </TTGlyph>
    <TTGlyph name="guilsinglleft" xMin="43" yMin="0" xMax="835" yMax="1595">
      <contour>
        <pt x="43" y="1098" on="1"/>
        <pt x="835" y="1595" on="1"/>
        <pt x="835" y="1090" on="1"/>
        <pt x="292" y="797" on="1"/>
        <pt x="835" y="504" on="1"/>
        <pt x="835" y="0" on="1"/>
        <pt x="43" y="489" on="1"/>
      </contour>
    </TTGlyph>
    <TTGlyph name="guilsinglright" xMin="74" yMin="0" xMax="867" yMax="1597">
      <contour>
        <pt x="867" y="489" on="1"/>
        <pt x="74" y="0" on="1"/>
        <pt x="74" y="504" on="1"/>
        <pt x="617" y="797" on="1"/>
        <pt x="74" y="1092" on="1"/>
        <pt x="74" y="1597" on="1"/>
        <pt x="867" y="1098" on="1"/>
      </contour>
    </TTGlyph>
    <TTGlyph name="h" xMin="80" yMin="0" xMax="1310" yMax="1710">
      <contour>
        <pt x="80" y="0" on="1"/>
        <pt x="80" y="1710" on="1"/>
        <pt x="577" y="1710" on="1"/>
        <pt x="577" y="1188" on="1"/>
        <pt x="600" y="1225" on="0"/>
        <pt x="674" y="1283" on="0"/>
        <pt x="766" y="1322" on="0"/>
        <pt x="872" y="1343" on="0"/>
        <pt x="928" y="1343" on="1"/>
        <pt x="998" y="1343" on="0"/>
        <pt x="1135" y="1299" on="0"/>
        <pt x="1243" y="1208" on="0"/>
        <pt x="1310" y="1066" on="0"/>
        <pt x="1310" y="968" on="1"/>
        <pt x="1310" y="0" on="1"/>
        <pt x="813" y="0" on="1"/>
        <pt x="813" y="1060" on="1"/>
        <pt x="577" y="1060" on="1"/>
        <pt x="577" y="0" on="1"/>
      </contour>
    </TTGlyph>
    <TTGlyph name="hbar" xMin="-12" yMin="0" xMax="1298" yMax="1710">
      <contour>
        <pt x="878" y="1594" on="1"/>
        <pt x="878" y="1454" on="1"/>
        <pt x="-12" y="1454" on="1"/>
        <pt x="-12" y="1594" on="1"/>
      </contour>
      <contour>
        <pt x="68" y="0" on="1"/>
        <pt x="68" y="1710" on="1"/>
        <pt x="565" y="1710" on="1"/>
        <pt x="565" y="1188" on="1"/>
        <pt x="588" y="1225" on="0"/>
        <pt x="662" y="1283" on="0"/>
        <pt x="754" y="1322" on="0"/>
        <pt x="860" y="1343" on="0"/>
        <pt x="916" y="1343" on="1"/>
        <pt x="986" y="1343" on="0"/>
        <pt x="1123" y="1299" on="0"/>
        <pt x="1231" y="1208" on="0"/>
        <pt x="1298" y="1066" on="0"/>
        <pt x="1298" y="968" on="1"/>
        <pt x="1298" y="0" on="1"/>
        <pt x="801" y="0" on="1"/>
        <pt x="801" y="1060" on="1"/>
        <pt x="565" y="1060" on="1"/>
        <pt x="565" y="0" on="1"/>
      </contour>
    </TTGlyph>
    <TTGlyph name="hcircumflex" xMin="-67" yMin="0" xMax="1163" yMax="2393">
      <component glyphName="h" x="-147" y="0" flags="0x1204"/>
      <component glyphName="circumflex" x="-283" y="1717" flags="0x1004"/>
    </TTGlyph>
    <TTGlyph name="hungarumlaut" xMin="821" yMin="30" xMax="1789" yMax="1015">
      <contour>
        <pt x="1274" y="957" on="1"/>
        <pt x="1004" y="30" on="1"/>
        <pt x="821" y="30" on="1"/>
        <pt x="821" y="1015" on="1"/>
      </contour>
      <contour>
        <pt x="1789" y="953" on="1"/>
        <pt x="1519" y="30" on="1"/>
        <pt x="1336" y="30" on="1"/>
        <pt x="1336" y="1011" on="1"/>
      </contour>
    </TTGlyph>
    <TTGlyph name="hyphen" xMin="59" yMin="461" xMax="812" yMax="897">
      <contour>
        <pt x="812" y="897" on="1"/>
        <pt x="812" y="461" on="1"/>
        <pt x="59" y="461" on="1"/>
        <pt x="59" y="897" on="1"/>
      </contour>
    </TTGlyph>
    <TTGlyph name="i" xMin="80" yMin="0" xMax="577" yMax="1710">
      <contour>
        <pt x="577" y="0" on="1"/>
        <pt x="80" y="0" on="1"/>
        <pt x="80" y="1300" on="1"/>
        <pt x="577" y="1300" on="1"/>
      </contour>
      <contour>
        <pt x="577" y="1710" on="1"/>
        <pt x="577" y="1473" on="1"/>
        <pt x="80" y="1473" on="1"/>
        <pt x="80" y="1710" on="1"/>
      </contour>
    </TTGlyph>
    <TTGlyph name="iacute" xMin="-65" yMin="0" xMax="831" yMax="2202">
      <component glyphName="dotlessi" x="-96" y="0" flags="0x1004"/>
      <component glyphName="acute" x="-532" y="1393" flags="0x1004"/>
    </TTGlyph>
    <TTGlyph name="ibreve" xMin="-188" yMin="0" xMax="640" yMax="2126">
      <component glyphName="dotlessi" x="-15" y="0" flags="0x1004"/>
      <component glyphName="breve" x="-338" y="1395" flags="0x1004"/>
    </TTGlyph>
    <TTGlyph name="icircumflex" xMin="-216" yMin="0" xMax="809" yMax="2069">
      <component glyphName="dotlessi" x="-58" y="0" flags="0x1004"/>
      <component glyphName="circumflex" x="-531" y="1393" flags="0x1004"/>
    </TTGlyph>
    <TTGlyph name="idieresis" xMin="-209" yMin="0" xMax="816" yMax="1811">
      <component glyphName="dotlessi" x="32" y="0" flags="0x1204"/>
      <component glyphName="dieresis" x="0" y="1393" flags="0x1004"/>
    </TTGlyph>
    <TTGlyph name="igrave" xMin="-149" yMin="0" xMax="746" yMax="2202">
      <component glyphName="dotlessi" x="-2" y="0" flags="0x1204"/>
      <component glyphName="grave" x="-534" y="1393" flags="0x1004"/>
    </TTGlyph>
    <TTGlyph name="ij" xMin="80" yMin="-332" xMax="1247" yMax="1710">
      <component glyphName="i" x="0" y="0" flags="0x1004"/>
      <component glyphName="j" x="774" y="0" flags="0x1004"/>
    </TTGlyph>
    <TTGlyph name="imacron" xMin="-147" yMin="0" xMax="777" yMax="1811">
      <component glyphName="dotlessi" x="52" y="0" flags="0x1204"/>
      <component glyphName="macron" x="0" y="1393" flags="0x1004"/>
    </TTGlyph>
    <TTGlyph name="iogonek" xMin="40" yMin="-737" xMax="539" yMax="1710">
      <component glyphName="i" x="-38" y="0" flags="0x1204"/>
      <component glyphName="ogonek" x="-236" y="0" flags="0x1004"/>
    </TTGlyph>
    <TTGlyph name="itilde" xMin="-298" yMin="0" xMax="862" yMax="2101">
      <component glyphName="dotlessi" x="45" y="0" flags="0x1204"/>
      <component glyphName="tilde" x="-257" y="1395" flags="0x1004"/>
    </TTGlyph>
    <TTGlyph name="j" xMin="-221" yMin="-332" xMax="473" yMax="1710">
      <contour>
        <pt x="-24" y="1300" on="1"/>
        <pt x="473" y="1300" on="1"/>
        <pt x="473" y="94" on="1"/>
        <pt x="473" y="-5" on="0"/>
        <pt x="410" y="-162" on="0"/>
        <pt x="295" y="-273" on="0"/>
        <pt x="134" y="-332" on="0"/>
        <pt x="37" y="-332" on="1"/>
        <pt x="-23" y="-332" on="0"/>
        <pt x="-152" y="-309" on="0"/>
        <pt x="-221" y="-285" on="1"/>
        <pt x="-221" y="-66" on="1"/>
        <pt x="-24" y="-66" on="1"/>
      </contour>
      <contour>
        <pt x="473" y="1710" on="1"/>
        <pt x="473" y="1473" on="1"/>
        <pt x="-24" y="1473" on="1"/>
        <pt x="-24" y="1710" on="1"/>
      </contour>
    </TTGlyph>
    <TTGlyph name="jcircumflex" xMin="-221" yMin="-322" xMax="828" yMax="2010">
      <contour>
        <pt x="563" y="94" on="1"/>
        <pt x="563" y="54" on="0"/>
        <pt x="559" y="-39" on="0"/>
        <pt x="535" y="-131" on="0"/>
        <pt x="486" y="-217" on="0"/>
        <pt x="395" y="-283" on="0"/>
        <pt x="257" y="-322" on="0"/>
        <pt x="157" y="-322" on="1"/>
        <pt x="80" y="-322" on="0"/>
        <pt x="-40" y="-315" on="0"/>
        <pt x="-131" y="-304" on="0"/>
        <pt x="-197" y="-291" on="0"/>
        <pt x="-221" y="-285" on="1"/>
        <pt x="-221" y="-66" on="1"/>
        <pt x="35" y="-66" on="1"/>
        <pt x="35" y="1300" on="1"/>
        <pt x="563" y="1300" on="1"/>
      </contour>
      <contour>
        <pt x="572" y="2010" on="1"/>
        <pt x="828" y="1395" on="1"/>
        <pt x="393" y="1395" on="1"/>
        <pt x="313" y="1715" on="1"/>
        <pt x="237" y="1395" on="1"/>
        <pt x="-197" y="1395" on="1"/>
        <pt x="49" y="2010" on="1"/>
      </contour>
    </TTGlyph>
    <TTGlyph name="k" xMin="80" yMin="0" xMax="1356" yMax="1710">
      <contour>
        <pt x="80" y="0" on="1"/>
        <pt x="80" y="1710" on="1"/>
        <pt x="577" y="1710" on="1"/>
        <pt x="577" y="888" on="1"/>
        <pt x="819" y="1300" on="1"/>
        <pt x="1349" y="1300" on="1"/>
        <pt x="1032" y="820" on="1"/>
        <pt x="1356" y="0" on="1"/>
        <pt x="850" y="0" on="1"/>
        <pt x="679" y="485" on="1"/>
        <pt x="577" y="348" on="1"/>
        <pt x="577" y="0" on="1"/>
      </contour>
    </TTGlyph>
    <TTGlyph name="kcommaaccent" xMin="80" yMin="-941" xMax="1356" yMax="1710">
      <component glyphName="k" x="0" y="0" flags="0x1004"/>
      <component glyphName="comma" x="360" y="-574" flags="0x1004"/>
    </TTGlyph>
    <TTGlyph name="kgreenlandic" xMin="80" yMin="0" xMax="1401" yMax="1300">
      <contour>
        <pt x="80" y="0" on="1"/>
        <pt x="80" y="1299" on="1"/>
        <pt x="608" y="1299" on="1"/>
        <pt x="608" y="858" on="1"/>
        <pt x="850" y="1300" on="1"/>
        <pt x="1380" y="1300" on="1"/>
        <pt x="1077" y="790" on="1"/>
        <pt x="1401" y="0" on="1"/>
        <pt x="881" y="0" on="1"/>
        <pt x="710" y="455" on="1"/>
        <pt x="608" y="318" on="1"/>
        <pt x="608" y="0" on="1"/>
      </contour>
    </TTGlyph>
    <TTGlyph name="l" xMin="80" yMin="0" xMax="577" yMax="1710">
      <contour>
        <pt x="577" y="0" on="1"/>
        <pt x="80" y="0" on="1"/>
        <pt x="80" y="1710" on="1"/>
        <pt x="577" y="1710" on="1"/>
      </contour>
    </TTGlyph>
    <TTGlyph name="lacute" xMin="-58" yMin="0" xMax="838" yMax="2569">
      <component glyphName="l" x="-94" y="0" flags="0x1204"/>
      <component glyphName="acute" x="-525" y="1760" flags="0x1004"/>
    </TTGlyph>
    <TTGlyph name="lcaron" xMin="80" yMin="0" xMax="1225" yMax="1711">
      <component glyphName="l" x="0" y="0" flags="0x1004"/>
      <component glyphName="quoteright" x="667" y="108" flags="0x1004"/>
    </TTGlyph>
    <TTGlyph name="lcommaaccent" xMin="80" yMin="-934" xMax="577" yMax="1710">
      <component glyphName="l" x="0" y="0" flags="0x1004"/>
      <component glyphName="comma" x="6" y="-567" flags="0x1004"/>
    </TTGlyph>
    <TTGlyph name="ldot" xMin="80" yMin="0" xMax="1198" yMax="1710">
      <component glyphName="l" x="0" y="0" flags="0x1004"/>
      <component glyphName="periodcentered" x="660" y="0" flags="0x1004"/>
    </TTGlyph>
    <TTGlyph name="less" xMin="43" yMin="0" xMax="835" yMax="1597">
      <contour>
        <pt x="43" y="1098" on="1"/>
        <pt x="835" y="1597" on="1"/>
        <pt x="835" y="1092" on="1"/>
        <pt x="292" y="797" on="1"/>
        <pt x="835" y="504" on="1"/>
        <pt x="835" y="0" on="1"/>
        <pt x="43" y="489" on="1"/>
      </contour>
    </TTGlyph>
    <TTGlyph name="logicalnot" xMin="53" yMin="278" xMax="1044" yMax="1317">
      <contour>
        <pt x="1044" y="278" on="1"/>
        <pt x="837" y="278" on="1"/>
        <pt x="837" y="641" on="1"/>
        <pt x="53" y="641" on="1"/>
        <pt x="53" y="1317" on="1"/>
        <pt x="1044" y="1317" on="1"/>
      </contour>
    </TTGlyph>
    <TTGlyph name="longs" xMin="8" yMin="0" xMax="976" yMax="1734">
      <component glyphName="f" x="0" y="0" flags="0x1004"/>
    </TTGlyph>
    <TTGlyph name="lslash" xMin="14" yMin="0" xMax="945" yMax="1710">
      <contour>
        <pt x="945" y="1023" on="1"/>
        <pt x="14" y="539" on="1"/>
        <pt x="14" y="788" on="1"/>
        <pt x="945" y="1271" on="1"/>
      </contour>
      <contour>
        <pt x="711" y="0" on="1"/>
        <pt x="214" y="0" on="1"/>
        <pt x="214" y="1710" on="1"/>
        <pt x="711" y="1710" on="1"/>
      </contour>
    </TTGlyph>
    <TTGlyph name="m" xMin="80" yMin="0" xMax="1983" yMax="1344">
      <contour>
        <pt x="80" y="0" on="1"/>
        <pt x="80" y="1300" on="1"/>
        <pt x="471" y="1300" on="1"/>
        <pt x="517" y="1133" on="1"/>
        <pt x="543" y="1185" on="0"/>
        <pt x="627" y="1264" on="0"/>
        <pt x="731" y="1317" on="0"/>
        <pt x="848" y="1344" on="0"/>
        <pt x="906" y="1344" on="1"/>
        <pt x="955" y="1344" on="0"/>
        <pt x="1050" y="1321" on="0"/>
        <pt x="1134" y="1274" on="0"/>
        <pt x="1204" y="1204" on="0"/>
        <pt x="1228" y="1157" on="1"/>
        <pt x="1256" y="1203" on="0"/>
        <pt x="1341" y="1273" on="0"/>
        <pt x="1443" y="1320" on="0"/>
        <pt x="1557" y="1344" on="0"/>
        <pt x="1614" y="1344" on="1"/>
        <pt x="1683" y="1344" on="0"/>
        <pt x="1816" y="1298" on="0"/>
        <pt x="1920" y="1204" on="0"/>
        <pt x="1983" y="1063" on="0"/>
        <pt x="1983" y="968" on="1"/>
        <pt x="1983" y="0" on="1"/>
        <pt x="1506" y="0" on="1"/>
        <pt x="1506" y="1060" on="1"/>
        <pt x="1269" y="1060" on="1"/>
        <pt x="1270" y="1055" on="0"/>
        <pt x="1270" y="1044" on="0"/>
        <pt x="1270" y="1039" on="1"/>
        <pt x="1270" y="0" on="1"/>
        <pt x="793" y="0" on="1"/>
        <pt x="793" y="1060" on="1"/>
        <pt x="557" y="1060" on="1"/>
        <pt x="557" y="0" on="1"/>
      </contour>
    </TTGlyph>
    <TTGlyph name="macron" xMin="-147" yMin="82" xMax="777" yMax="418">
      <contour>
        <pt x="777" y="418" on="1"/>
        <pt x="777" y="82" on="1"/>
        <pt x="-147" y="82" on="1"/>
        <pt x="-147" y="418" on="1"/>
      </contour>
    </TTGlyph>
    <TTGlyph name="minus" xMin="61" yMin="461" xMax="814" yMax="897">
      <contour>
        <pt x="814" y="897" on="1"/>
        <pt x="814" y="461" on="1"/>
        <pt x="61" y="461" on="1"/>
        <pt x="61" y="897" on="1"/>
      </contour>
    </TTGlyph>
    <TTGlyph name="multiply" xMin="35" yMin="4" xMax="1132" yMax="1294">
      <contour>
        <pt x="1132" y="924" on="1"/>
        <pt x="899" y="649" on="1"/>
        <pt x="1132" y="375" on="1"/>
        <pt x="816" y="4" on="1"/>
        <pt x="584" y="279" on="1"/>
        <pt x="350" y="4" on="1"/>
        <pt x="35" y="375" on="1"/>
        <pt x="269" y="649" on="1"/>
        <pt x="35" y="924" on="1"/>
        <pt x="350" y="1294" on="1"/>
        <pt x="584" y="1020" on="1"/>
        <pt x="816" y="1294" on="1"/>
      </contour>
    </TTGlyph>
    <TTGlyph name="n" xMin="80" yMin="0" xMax="1310" yMax="1344">
      <contour>
        <pt x="80" y="0" on="1"/>
        <pt x="80" y="1300" on="1"/>
        <pt x="491" y="1300" on="1"/>
        <pt x="537" y="1133" on="1"/>
        <pt x="563" y="1185" on="0"/>
        <pt x="647" y="1264" on="0"/>
        <pt x="751" y="1317" on="0"/>
        <pt x="869" y="1344" on="0"/>
        <pt x="930" y="1344" on="1"/>
        <pt x="1001" y="1344" on="0"/>
        <pt x="1138" y="1298" on="0"/>
        <pt x="1245" y="1205" on="0"/>
        <pt x="1310" y="1063" on="0"/>
        <pt x="1310" y="968" on="1"/>
        <pt x="1310" y="0" on="1"/>
        <pt x="813" y="0" on="1"/>
        <pt x="813" y="1060" on="1"/>
        <pt x="577" y="1060" on="1"/>
        <pt x="577" y="0" on="1"/>
      </contour>
    </TTGlyph>
    <TTGlyph name="nacute" xMin="80" yMin="0" xMax="1310" yMax="2202">
      <component glyphName="n" x="0" y="0" flags="0x1204"/>
      <component glyphName="acute" x="-114" y="1393" flags="0x1004"/>
    </TTGlyph>
    <TTGlyph name="napostrophe" xMin="80" yMin="0" xMax="1310" yMax="1344">
      <component glyphName="n" x="0" y="0" flags="0x1004"/>
    </TTGlyph>
    <TTGlyph name="ncaron" xMin="80" yMin="0" xMax="1310" yMax="2089">
      <component glyphName="n" x="0" y="0" flags="0x1204"/>
      <component glyphName="caron" x="-116" y="1393" flags="0x1004"/>
    </TTGlyph>
    <TTGlyph name="ncommaaccent" xMin="80" yMin="-935" xMax="1310" yMax="1344">
      <component glyphName="n" x="0" y="0" flags="0x1204"/>
      <component glyphName="comma" x="335" y="-568" flags="0x1004"/>
    </TTGlyph>
    <TTGlyph name="nine" xMin="29" yMin="-38" xMax="1259" yMax="1632">
      <contour>
        <pt x="762" y="1358" on="1"/>
        <pt x="526" y="1358" on="1"/>
        <pt x="526" y="796" on="1"/>
        <pt x="762" y="796" on="1"/>
      </contour>
      <contour>
        <pt x="646" y="1632" on="1"/>
        <pt x="777" y="1632" on="0"/>
        <pt x="970" y="1598" on="0"/>
        <pt x="1106" y="1535" on="0"/>
        <pt x="1192" y="1444" on="0"/>
        <pt x="1241" y="1330" on="0"/>
        <pt x="1259" y="1195" on="0"/>
        <pt x="1259" y="1119" on="1"/>
        <pt x="1259" y="539" on="1"/>
        <pt x="1259" y="472" on="0"/>
        <pt x="1243" y="335" on="0"/>
        <pt x="1197" y="207" on="0"/>
        <pt x="1113" y="94" on="0"/>
        <pt x="977" y="10" on="0"/>
        <pt x="781" y="-38" on="0"/>
        <pt x="646" y="-38" on="1"/>
        <pt x="499" y="-38" on="0"/>
        <pt x="299" y="8" on="0"/>
        <pt x="171" y="84" on="0"/>
        <pt x="103" y="183" on="0"/>
        <pt x="74" y="288" on="0"/>
        <pt x="70" y="392" on="0"/>
        <pt x="70" y="436" on="1"/>
        <pt x="526" y="436" on="1"/>
        <pt x="526" y="237" on="1"/>
        <pt x="762" y="237" on="1"/>
        <pt x="762" y="526" on="1"/>
        <pt x="635" y="526" on="1"/>
        <pt x="451" y="526" on="0"/>
        <pt x="215" y="587" on="0"/>
        <pt x="80" y="718" on="0"/>
        <pt x="29" y="925" on="0"/>
        <pt x="29" y="1071" on="1"/>
        <pt x="29" y="1160" on="0"/>
        <pt x="47" y="1312" on="0"/>
        <pt x="96" y="1437" on="0"/>
        <pt x="182" y="1533" on="0"/>
        <pt x="319" y="1598" on="0"/>
        <pt x="514" y="1632" on="0"/>
      </contour>
    </TTGlyph>
    <TTGlyph name="ntilde" xMin="80" yMin="0" xMax="1411" yMax="2101">
      <component glyphName="n" x="101" y="0" flags="0x1204"/>
      <component glyphName="tilde" x="121" y="1395" flags="0x1004"/>
    </TTGlyph>
    <TTGlyph name="numbersign" xMin="39" yMin="0" xMax="1507" yMax="1595">
      <contour>
        <pt x="1393" y="300" on="1"/>
        <pt x="1243" y="300" on="1"/>
        <pt x="1205" y="0" on="1"/>
        <pt x="715" y="0" on="1"/>
        <pt x="754" y="299" on="1"/>
        <pt x="649" y="299" on="1"/>
        <pt x="611" y="0" on="1"/>
        <pt x="121" y="0" on="1"/>
        <pt x="160" y="299" on="1"/>
        <pt x="39" y="299" on="1"/>
        <pt x="92" y="730" on="1"/>
        <pt x="216" y="730" on="1"/>
        <pt x="234" y="872" on="1"/>
        <pt x="100" y="872" on="1"/>
        <pt x="153" y="1304" on="1"/>
        <pt x="291" y="1304" on="1"/>
        <pt x="329" y="1595" on="1"/>
        <pt x="817" y="1595" on="1"/>
        <pt x="779" y="1304" on="1"/>
        <pt x="885" y="1304" on="1"/>
        <pt x="923" y="1595" on="1"/>
        <pt x="1411" y="1595" on="1"/>
        <pt x="1373" y="1304" on="1"/>
        <pt x="1507" y="1304" on="1"/>
        <pt x="1455" y="873" on="1"/>
        <pt x="1318" y="873" on="1"/>
        <pt x="1299" y="730" on="1"/>
        <pt x="1446" y="730" on="1"/>
      </contour>
      <contour>
        <pt x="705" y="730" on="1"/>
        <pt x="809" y="730" on="1"/>
        <pt x="828" y="872" on="1"/>
        <pt x="724" y="872" on="1"/>
      </contour>
    </TTGlyph>
    <TTGlyph name="o" xMin="61" yMin="-39" xMax="1291" yMax="1343">
      <contour>
        <pt x="558" y="237" on="1"/>
        <pt x="794" y="237" on="1"/>
        <pt x="794" y="1060" on="1"/>
        <pt x="558" y="1060" on="1"/>
      </contour>
      <contour>
        <pt x="682" y="-39" on="1"/>
        <pt x="532" y="-39" on="0"/>
        <pt x="323" y="-3" on="0"/>
        <pt x="185" y="57" on="0"/>
        <pt x="108" y="137" on="0"/>
        <pt x="70" y="223" on="0"/>
        <pt x="61" y="312" on="0"/>
        <pt x="61" y="352" on="1"/>
        <pt x="61" y="952" on="1"/>
        <pt x="61" y="992" on="0"/>
        <pt x="70" y="1081" on="0"/>
        <pt x="108" y="1168" on="0"/>
        <pt x="185" y="1247" on="0"/>
        <pt x="323" y="1307" on="0"/>
        <pt x="532" y="1343" on="0"/>
        <pt x="682" y="1343" on="1"/>
        <pt x="831" y="1343" on="0"/>
        <pt x="1038" y="1307" on="0"/>
        <pt x="1173" y="1247" on="0"/>
        <pt x="1248" y="1168" on="0"/>
        <pt x="1284" y="1081" on="0"/>
        <pt x="1291" y="992" on="0"/>
        <pt x="1291" y="952" on="1"/>
        <pt x="1291" y="352" on="1"/>
        <pt x="1291" y="312" on="0"/>
        <pt x="1284" y="223" on="0"/>
        <pt x="1248" y="137" on="0"/>
        <pt x="1173" y="57" on="0"/>
        <pt x="1038" y="-3" on="0"/>
        <pt x="831" y="-39" on="0"/>
      </contour>
    </TTGlyph>
    <TTGlyph name="oacute" xMin="61" yMin="-39" xMax="1291" yMax="2202">
      <component glyphName="o" x="0" y="0" flags="0x1204"/>
      <component glyphName="acute" x="-121" y="1393" flags="0x1004"/>
    </TTGlyph>
    <TTGlyph name="obreve" xMin="61" yMin="-39" xMax="1291" yMax="2126">
      <component glyphName="o" x="0" y="0" flags="0x1004"/>
      <component glyphName="breve" x="61" y="1395" flags="0x1004"/>
    </TTGlyph>
    <TTGlyph name="ocircumflex" xMin="61" yMin="-39" xMax="1291" yMax="2069">
      <component glyphName="o" x="0" y="0" flags="0x1204"/>
      <component glyphName="circumflex" x="-123" y="1393" flags="0x1004"/>
    </TTGlyph>
    <TTGlyph name="odieresis" xMin="61" yMin="-39" xMax="1313" yMax="1811">
      <component glyphName="o" x="22" y="0" flags="0x1204"/>
      <component glyphName="dieresis" x="270" y="1393" flags="0x1004"/>
    </TTGlyph>
    <TTGlyph name="oe" xMin="69" yMin="-36" xMax="1919" yMax="1343">
      <contour>
        <pt x="1919" y="555" on="1"/>
        <pt x="1919" y="369" on="1"/>
        <pt x="1919" y="329" on="0"/>
        <pt x="1917" y="238" on="0"/>
        <pt x="1890" y="148" on="0"/>
        <pt x="1826" y="65" on="0"/>
        <pt x="1704" y="2" on="0"/>
        <pt x="1512" y="-36" on="0"/>
        <pt x="1370" y="-36" on="1"/>
        <pt x="1266" y="-36" on="0"/>
        <pt x="1129" y="-8" on="0"/>
        <pt x="1043" y="32" on="0"/>
        <pt x="1000" y="78" on="0"/>
        <pt x="991" y="96" on="1"/>
        <pt x="979" y="77" on="0"/>
        <pt x="928" y="31" on="0"/>
        <pt x="842" y="-9" on="0"/>
        <pt x="715" y="-36" on="0"/>
        <pt x="628" y="-36" on="1"/>
        <pt x="486" y="-36" on="0"/>
        <pt x="292" y="2" on="0"/>
        <pt x="168" y="65" on="0"/>
        <pt x="102" y="148" on="0"/>
        <pt x="73" y="238" on="0"/>
        <pt x="69" y="329" on="0"/>
        <pt x="69" y="369" on="1"/>
        <pt x="69" y="932" on="1"/>
        <pt x="69" y="972" on="0"/>
        <pt x="73" y="1064" on="0"/>
        <pt x="102" y="1155" on="0"/>
        <pt x="168" y="1240" on="0"/>
        <pt x="292" y="1304" on="0"/>
        <pt x="486" y="1343" on="0"/>
        <pt x="628" y="1343" on="1"/>
        <pt x="719" y="1343" on="0"/>
        <pt x="849" y="1314" on="0"/>
        <pt x="936" y="1272" on="0"/>
        <pt x="983" y="1227" on="0"/>
        <pt x="991" y="1212" on="1"/>
        <pt x="1003" y="1229" on="0"/>
        <pt x="1053" y="1274" on="0"/>
        <pt x="1141" y="1315" on="0"/>
        <pt x="1274" y="1343" on="0"/>
        <pt x="1370" y="1343" on="1"/>
        <pt x="1513" y="1343" on="0"/>
        <pt x="1705" y="1304" on="0"/>
        <pt x="1827" y="1240" on="0"/>
        <pt x="1890" y="1155" on="0"/>
        <pt x="1917" y="1064" on="0"/>
        <pt x="1919" y="972" on="0"/>
        <pt x="1919" y="932" on="1"/>
        <pt x="1915" y="621" on="1"/>
        <pt x="1223" y="621" on="1"/>
        <pt x="1223" y="278" on="1"/>
        <pt x="1420" y="278" on="1"/>
        <pt x="1420" y="555" on="1"/>
      </contour>
      <contour>
        <pt x="566" y="278" on="1"/>
        <pt x="763" y="278" on="1"/>
        <pt x="763" y="1029" on="1"/>
        <pt x="566" y="1029" on="1"/>
      </contour>
      <contour>
        <pt x="1223" y="827" on="1"/>
        <pt x="1420" y="827" on="1"/>
        <pt x="1420" y="1029" on="1"/>
        <pt x="1223" y="1029" on="1"/>
      </contour>
    </TTGlyph>
    <TTGlyph name="ogonek" xMin="276" yMin="-737" xMax="723" yMax="79">
      <contour>
        <pt x="722" y="-737" on="1"/>
        <pt x="605" y="-737" on="0"/>
        <pt x="436" y="-675" on="0"/>
        <pt x="328" y="-572" on="0"/>
        <pt x="276" y="-438" on="0"/>
        <pt x="276" y="-367" on="1"/>
        <pt x="276" y="-286" on="0"/>
        <pt x="338" y="-126" on="0"/>
        <pt x="454" y="0" on="0"/>
        <pt x="619" y="79" on="0"/>
        <pt x="723" y="79" on="1"/>
        <pt x="723" y="0" on="1"/>
        <pt x="672" y="0" on="0"/>
        <pt x="590" y="-40" on="0"/>
        <pt x="533" y="-105" on="0"/>
        <pt x="503" y="-187" on="0"/>
        <pt x="503" y="-229" on="1"/>
        <pt x="503" y="-266" on="0"/>
        <pt x="528" y="-336" on="0"/>
        <pt x="582" y="-390" on="0"/>
        <pt x="665" y="-422" on="0"/>
        <pt x="722" y="-422" on="1"/>
      </contour>
    </TTGlyph>
    <TTGlyph name="ograve" xMin="61" yMin="-39" xMax="1291" yMax="2202">
      <component glyphName="o" x="0" y="0" flags="0x1204"/>
      <component glyphName="grave" x="-123" y="1393" flags="0x1004"/>
    </TTGlyph>
    <TTGlyph name="ohungarumlaut" xMin="61" yMin="-39" xMax="1291" yMax="2408">
      <component glyphName="o" x="0" y="0" flags="0x1204"/>
      <component glyphName="hungarumlaut" x="-507" y="1393" flags="0x1004"/>
    </TTGlyph>
    <TTGlyph name="omacron" xMin="61" yMin="-39" xMax="1291" yMax="1811">
      <component glyphName="o" x="0" y="0" flags="0x1204"/>
      <component glyphName="macron" x="264" y="1393" flags="0x1004"/>
    </TTGlyph>
    <TTGlyph name="one" xMin="16" yMin="0" xMax="762" yMax="1595">
      <contour>
        <pt x="762" y="1595" on="1"/>
        <pt x="762" y="0" on="1"/>
        <pt x="265" y="0" on="1"/>
        <pt x="265" y="1200" on="1"/>
        <pt x="16" y="1200" on="1"/>
        <pt x="16" y="1384" on="1"/>
        <pt x="60" y="1384" on="0"/>
        <pt x="161" y="1409" on="0"/>
        <pt x="255" y="1461" on="0"/>
        <pt x="335" y="1541" on="0"/>
        <pt x="358" y="1595" on="1"/>
      </contour>
    </TTGlyph>
    <TTGlyph name="onehalf" xMin="35" yMin="0" xMax="2442" yMax="1605">
      <component glyphName="backslash" x="1555" y="0" scalex="-1.0" scaley="1.0" flags="0x1004"/>
      <component glyphName="uni00B2" x="1478" y="0" flags="0x1004"/>
      <component glyphName="uni00B9" x="10" y="329" flags="0x1004"/>
    </TTGlyph>
    <TTGlyph name="onequarter" xMin="35" yMin="-1" xMax="2414" yMax="1611">
      <component glyphName="uni00B9" x="10" y="335" flags="0x1004"/>
      <component glyphName="backslash" x="1559" y="0" scalex="-1.0" scaley="1.0" flags="0x1004"/>
      <component glyphName="uni2074" x="1434" y="-331" flags="0x1004"/>
    </TTGlyph>
    <TTGlyph name="ordfeminine" xMin="37" yMin="253" xMax="1310" yMax="1632">
      <component glyphName="a" x="2" y="289" flags="0x1004"/>
    </TTGlyph>
    <TTGlyph name="ordmasculine" xMin="61" yMin="-39" xMax="1291" yMax="1343">
      <component glyphName="o" x="0" y="0" flags="0x1204"/>
    </TTGlyph>
    <TTGlyph name="oslash" xMin="59" yMin="-131" xMax="1250" yMax="1432">
      <contour>
        <pt x="659" y="-39" on="1"/>
        <pt x="543" y="-39" on="0"/>
        <pt x="369" y="-16" on="0"/>
        <pt x="305" y="4" on="1"/>
        <pt x="215" y="-131" on="1"/>
        <pt x="99" y="-53" on="1"/>
        <pt x="178" y="65" on="1"/>
        <pt x="136" y="96" on="0"/>
        <pt x="88" y="168" on="0"/>
        <pt x="64" y="243" on="0"/>
        <pt x="59" y="318" on="0"/>
        <pt x="59" y="352" on="1"/>
        <pt x="59" y="952" on="1"/>
        <pt x="59" y="992" on="0"/>
        <pt x="67" y="1081" on="0"/>
        <pt x="104" y="1168" on="0"/>
        <pt x="179" y="1247" on="0"/>
        <pt x="312" y="1307" on="0"/>
        <pt x="514" y="1343" on="0"/>
        <pt x="659" y="1343" on="1"/>
        <pt x="774" y="1343" on="0"/>
        <pt x="945" y="1320" on="0"/>
        <pt x="1008" y="1300" on="1"/>
        <pt x="1097" y="1432" on="1"/>
        <pt x="1206" y="1350" on="1"/>
        <pt x="1132" y="1240" on="1"/>
        <pt x="1174" y="1209" on="0"/>
        <pt x="1222" y="1137" on="0"/>
        <pt x="1245" y="1062" on="0"/>
        <pt x="1250" y="986" on="0"/>
        <pt x="1250" y="952" on="1"/>
        <pt x="1250" y="352" on="1"/>
        <pt x="1250" y="312" on="0"/>
        <pt x="1243" y="223" on="0"/>
        <pt x="1207" y="137" on="0"/>
        <pt x="1134" y="57" on="0"/>
        <pt x="1003" y="-3" on="0"/>
        <pt x="803" y="-39" on="0"/>
      </contour>
      <contour>
        <pt x="556" y="627" on="1"/>
        <pt x="753" y="920" on="1"/>
        <pt x="753" y="1029" on="1"/>
        <pt x="556" y="1029" on="1"/>
      </contour>
      <contour>
        <pt x="753" y="278" on="1"/>
        <pt x="753" y="673" on="1"/>
        <pt x="556" y="379" on="1"/>
        <pt x="556" y="278" on="1"/>
      </contour>
    </TTGlyph>
    <TTGlyph name="oslashacute" xMin="59" yMin="-131" xMax="1250" yMax="2202">
      <component glyphName="oslash" x="0" y="0" flags="0x1004"/>
      <component glyphName="acute" x="-168" y="1393" flags="0x1004"/>
    </TTGlyph>
    <TTGlyph name="otilde" xMin="61" yMin="-39" xMax="1380" yMax="2101">
      <component glyphName="o" x="89" y="0" flags="0x1204"/>
      <component glyphName="tilde" x="102" y="1395" flags="0x1004"/>
    </TTGlyph>
    <TTGlyph name="p" xMin="80" yMin="-408" xMax="1310" yMax="1337">
      <contour>
        <pt x="80" y="-408" on="1"/>
        <pt x="80" y="1300" on="1"/>
        <pt x="491" y="1300" on="1"/>
        <pt x="537" y="1133" on="1"/>
        <pt x="567" y="1183" on="0"/>
        <pt x="653" y="1260" on="0"/>
        <pt x="755" y="1311" on="0"/>
        <pt x="870" y="1337" on="0"/>
        <pt x="928" y="1337" on="1"/>
        <pt x="1000" y="1337" on="0"/>
        <pt x="1138" y="1287" on="0"/>
        <pt x="1245" y="1184" on="0"/>
        <pt x="1310" y="1028" on="0"/>
        <pt x="1310" y="923" on="1"/>
        <pt x="1310" y="345" on="1"/>
        <pt x="1310" y="245" on="0"/>
        <pt x="1246" y="98" on="0"/>
        <pt x="1141" y="2" on="0"/>
        <pt x="1006" y="-44" on="0"/>
        <pt x="935" y="-44" on="1"/>
        <pt x="883" y="-44" on="0"/>
        <pt x="782" y="-25" on="0"/>
        <pt x="689" y="12" on="0"/>
        <pt x="608" y="66" on="0"/>
        <pt x="577" y="101" on="1"/>
        <pt x="577" y="-408" on="1"/>
      </contour>
      <contour>
        <pt x="577" y="236" on="1"/>
        <pt x="813" y="236" on="1"/>
        <pt x="813" y="1060" on="1"/>
        <pt x="577" y="1060" on="1"/>
      </contour>
    </TTGlyph>
    <TTGlyph name="paragraph" xMin="37" yMin="0" xMax="1092" yMax="1600">
      <contour>
        <pt x="520" y="659" on="1"/>
        <pt x="382" y="659" on="0"/>
        <pt x="196" y="726" on="0"/>
        <pt x="84" y="845" on="0"/>
        <pt x="37" y="1009" on="0"/>
        <pt x="37" y="1107" on="1"/>
        <pt x="37" y="1217" on="0"/>
        <pt x="82" y="1399" on="0"/>
        <pt x="207" y="1529" on="0"/>
        <pt x="430" y="1600" on="0"/>
        <pt x="609" y="1600" on="1"/>
        <pt x="1092" y="1600" on="1"/>
        <pt x="1092" y="0" on="1"/>
        <pt x="856" y="0" on="1"/>
        <pt x="856" y="658" on="1"/>
        <pt x="757" y="658" on="1"/>
        <pt x="757" y="0" on="1"/>
        <pt x="520" y="0" on="1"/>
      </contour>
    </TTGlyph>
    <TTGlyph name="parenleft" xMin="57" yMin="-330" xMax="854" yMax="1935">
      <contour>
        <pt x="57" y="803" on="1"/>
        <pt x="57" y="1068" on="0"/>
        <pt x="106" y="1441" on="0"/>
        <pt x="201" y="1693" on="0"/>
        <pt x="338" y="1839" on="0"/>
        <pt x="515" y="1914" on="0"/>
        <pt x="730" y="1935" on="0"/>
        <pt x="854" y="1935" on="1"/>
        <pt x="854" y="1657" on="1"/>
        <pt x="802" y="1657" on="0"/>
        <pt x="719" y="1648" on="0"/>
        <pt x="656" y="1600" on="0"/>
        <pt x="611" y="1496" on="0"/>
        <pt x="582" y="1306" on="0"/>
        <pt x="569" y="1015" on="0"/>
        <pt x="569" y="803" on="1"/>
        <pt x="569" y="591" on="0"/>
        <pt x="582" y="300" on="0"/>
        <pt x="611" y="110" on="0"/>
        <pt x="656" y="6" on="0"/>
        <pt x="719" y="-42" on="0"/>
        <pt x="802" y="-51" on="0"/>
        <pt x="854" y="-51" on="1"/>
        <pt x="854" y="-330" on="1"/>
        <pt x="730" y="-330" on="0"/>
        <pt x="515" y="-309" on="0"/>
        <pt x="338" y="-234" on="0"/>
        <pt x="201" y="-87" on="0"/>
        <pt x="106" y="164" on="0"/>
        <pt x="57" y="538" on="0"/>
      </contour>
    </TTGlyph>
    <TTGlyph name="parenright" xMin="-61" yMin="-330" xMax="736" yMax="1935">
      <contour>
        <pt x="736" y="803" on="1"/>
        <pt x="736" y="538" on="0"/>
        <pt x="687" y="164" on="0"/>
        <pt x="593" y="-87" on="0"/>
        <pt x="455" y="-234" on="0"/>
        <pt x="278" y="-309" on="0"/>
        <pt x="63" y="-330" on="0"/>
        <pt x="-61" y="-330" on="1"/>
        <pt x="-61" y="-51" on="1"/>
        <pt x="-9" y="-51" on="0"/>
        <pt x="74" y="-42" on="0"/>
        <pt x="137" y="6" on="0"/>
        <pt x="182" y="110" on="0"/>
        <pt x="211" y="300" on="0"/>
        <pt x="224" y="591" on="0"/>
        <pt x="224" y="803" on="1"/>
        <pt x="224" y="1015" on="0"/>
        <pt x="211" y="1306" on="0"/>
        <pt x="182" y="1496" on="0"/>
        <pt x="137" y="1600" on="0"/>
        <pt x="74" y="1648" on="0"/>
        <pt x="-9" y="1657" on="0"/>
        <pt x="-61" y="1657" on="1"/>
        <pt x="-61" y="1935" on="1"/>
        <pt x="63" y="1935" on="0"/>
        <pt x="278" y="1914" on="0"/>
        <pt x="455" y="1839" on="0"/>
        <pt x="593" y="1693" on="0"/>
        <pt x="687" y="1441" on="0"/>
        <pt x="736" y="1068" on="0"/>
      </contour>
    </TTGlyph>
    <TTGlyph name="percent" xMin="45" yMin="-40" xMax="2432" yMax="1670">
      <contour>
        <pt x="540" y="1334" on="1"/>
        <pt x="458" y="1334" on="1"/>
        <pt x="458" y="669" on="1"/>
        <pt x="540" y="669" on="1"/>
      </contour>
      <contour>
        <pt x="497" y="454" on="1"/>
        <pt x="384" y="454" on="0"/>
        <pt x="229" y="482" on="0"/>
        <pt x="129" y="530" on="0"/>
        <pt x="74" y="593" on="0"/>
        <pt x="49" y="662" on="0"/>
        <pt x="45" y="733" on="0"/>
        <pt x="45" y="765" on="1"/>
        <pt x="45" y="1244" on="1"/>
        <pt x="45" y="1276" on="0"/>
        <pt x="49" y="1346" on="0"/>
        <pt x="74" y="1415" on="0"/>
        <pt x="129" y="1477" on="0"/>
        <pt x="229" y="1525" on="0"/>
        <pt x="384" y="1553" on="0"/>
        <pt x="497" y="1553" on="1"/>
        <pt x="610" y="1553" on="0"/>
        <pt x="765" y="1525" on="0"/>
        <pt x="865" y="1477" on="0"/>
        <pt x="920" y="1415" on="0"/>
        <pt x="945" y="1346" on="0"/>
        <pt x="949" y="1276" on="0"/>
        <pt x="949" y="1244" on="1"/>
        <pt x="949" y="765" on="1"/>
        <pt x="949" y="733" on="0"/>
        <pt x="945" y="662" on="0"/>
        <pt x="920" y="593" on="0"/>
        <pt x="865" y="530" on="0"/>
        <pt x="765" y="482" on="0"/>
        <pt x="610" y="454" on="0"/>
      </contour>
      <contour>
        <pt x="2023" y="955" on="1"/>
        <pt x="1942" y="955" on="1"/>
        <pt x="1942" y="290" on="1"/>
        <pt x="2023" y="290" on="1"/>
      </contour>
      <contour>
        <pt x="1979" y="75" on="1"/>
        <pt x="1866" y="75" on="0"/>
        <pt x="1712" y="103" on="0"/>
        <pt x="1612" y="151" on="0"/>
        <pt x="1558" y="213" on="0"/>
        <pt x="1533" y="283" on="0"/>
        <pt x="1529" y="354" on="0"/>
        <pt x="1529" y="386" on="1"/>
        <pt x="1529" y="863" on="1"/>
        <pt x="1529" y="895" on="0"/>
        <pt x="1533" y="966" on="0"/>
        <pt x="1558" y="1035" on="0"/>
        <pt x="1612" y="1098" on="0"/>
        <pt x="1712" y="1146" on="0"/>
        <pt x="1866" y="1174" on="0"/>
        <pt x="1979" y="1174" on="1"/>
        <pt x="2092" y="1174" on="0"/>
        <pt x="2247" y="1146" on="0"/>
        <pt x="2348" y="1098" on="0"/>
        <pt x="2403" y="1035" on="0"/>
        <pt x="2428" y="966" on="0"/>
        <pt x="2432" y="895" on="0"/>
        <pt x="2432" y="863" on="1"/>
        <pt x="2432" y="386" on="1"/>
        <pt x="2432" y="354" on="0"/>
        <pt x="2428" y="283" on="0"/>
        <pt x="2403" y="213" on="0"/>
        <pt x="2348" y="151" on="0"/>
        <pt x="2247" y="103" on="0"/>
        <pt x="2092" y="75" on="0"/>
      </contour>
      <contour>
        <pt x="1639" y="1670" on="1"/>
        <pt x="1300" y="-40" on="1"/>
        <pt x="840" y="-40" on="1"/>
        <pt x="1184" y="1670" on="1"/>
      </contour>
    </TTGlyph>
    <TTGlyph name="period" xMin="74" yMin="0" xMax="532" yMax="467">
      <contour>
        <pt x="532" y="0" on="1"/>
        <pt x="74" y="0" on="1"/>
        <pt x="74" y="467" on="1"/>
        <pt x="532" y="467" on="1"/>
      </contour>
    </TTGlyph>
    <TTGlyph name="periodcentered" xMin="80" yMin="655" xMax="538" yMax="1122">
      <contour>
        <pt x="538" y="655" on="1"/>
        <pt x="80" y="655" on="1"/>
        <pt x="80" y="1122" on="1"/>
        <pt x="538" y="1122" on="1"/>
      </contour>
    </TTGlyph>
    <TTGlyph name="perthousand" xMin="45" yMin="-40" xMax="3416" yMax="1670">
      <contour>
        <pt x="1648" y="1670" on="1"/>
        <pt x="1308" y="-40" on="1"/>
        <pt x="849" y="-40" on="1"/>
        <pt x="1193" y="1670" on="1"/>
      </contour>
      <contour>
        <pt x="3008" y="955" on="1"/>
        <pt x="2926" y="955" on="1"/>
        <pt x="2926" y="290" on="1"/>
        <pt x="3008" y="290" on="1"/>
      </contour>
      <contour>
        <pt x="2965" y="75" on="1"/>
        <pt x="2852" y="75" on="0"/>
        <pt x="2697" y="103" on="0"/>
        <pt x="2597" y="151" on="0"/>
        <pt x="2542" y="213" on="0"/>
        <pt x="2517" y="283" on="0"/>
        <pt x="2513" y="354" on="0"/>
        <pt x="2513" y="386" on="1"/>
        <pt x="2513" y="863" on="1"/>
        <pt x="2513" y="895" on="0"/>
        <pt x="2517" y="966" on="0"/>
        <pt x="2542" y="1035" on="0"/>
        <pt x="2597" y="1098" on="0"/>
        <pt x="2697" y="1146" on="0"/>
        <pt x="2852" y="1174" on="0"/>
        <pt x="2965" y="1174" on="1"/>
        <pt x="3078" y="1174" on="0"/>
        <pt x="3232" y="1146" on="0"/>
        <pt x="3332" y="1098" on="0"/>
        <pt x="3387" y="1035" on="0"/>
        <pt x="3412" y="966" on="0"/>
        <pt x="3416" y="895" on="0"/>
        <pt x="3416" y="863" on="1"/>
        <pt x="3416" y="386" on="1"/>
        <pt x="3416" y="354" on="0"/>
        <pt x="3412" y="283" on="0"/>
        <pt x="3387" y="213" on="0"/>
        <pt x="3332" y="151" on="0"/>
        <pt x="3232" y="103" on="0"/>
        <pt x="3078" y="75" on="0"/>
      </contour>
      <contour>
        <pt x="2048" y="955" on="1"/>
        <pt x="1967" y="955" on="1"/>
        <pt x="1967" y="290" on="1"/>
        <pt x="2048" y="290" on="1"/>
      </contour>
      <contour>
        <pt x="2005" y="75" on="1"/>
        <pt x="1892" y="75" on="0"/>
        <pt x="1738" y="103" on="0"/>
        <pt x="1638" y="151" on="0"/>
        <pt x="1584" y="213" on="0"/>
        <pt x="1559" y="283" on="0"/>
        <pt x="1555" y="354" on="0"/>
        <pt x="1555" y="386" on="1"/>
        <pt x="1555" y="863" on="1"/>
        <pt x="1555" y="895" on="0"/>
        <pt x="1559" y="966" on="0"/>
        <pt x="1584" y="1035" on="0"/>
        <pt x="1638" y="1098" on="0"/>
        <pt x="1738" y="1146" on="0"/>
        <pt x="1892" y="1174" on="0"/>
        <pt x="2005" y="1174" on="1"/>
        <pt x="2118" y="1174" on="0"/>
        <pt x="2273" y="1146" on="0"/>
        <pt x="2373" y="1098" on="0"/>
        <pt x="2428" y="1035" on="0"/>
        <pt x="2453" y="966" on="0"/>
        <pt x="2457" y="895" on="0"/>
        <pt x="2457" y="863" on="1"/>
        <pt x="2457" y="386" on="1"/>
        <pt x="2457" y="354" on="0"/>
        <pt x="2453" y="283" on="0"/>
        <pt x="2428" y="213" on="0"/>
        <pt x="2373" y="151" on="0"/>
        <pt x="2273" y="103" on="0"/>
        <pt x="2118" y="75" on="0"/>
      </contour>
      <contour>
        <pt x="540" y="1334" on="1"/>
        <pt x="458" y="1334" on="1"/>
        <pt x="458" y="669" on="1"/>
        <pt x="540" y="669" on="1"/>
      </contour>
      <contour>
        <pt x="497" y="454" on="1"/>
        <pt x="384" y="454" on="0"/>
        <pt x="229" y="482" on="0"/>
        <pt x="129" y="530" on="0"/>
        <pt x="74" y="593" on="0"/>
        <pt x="49" y="662" on="0"/>
        <pt x="45" y="733" on="0"/>
        <pt x="45" y="765" on="1"/>
        <pt x="45" y="1244" on="1"/>
        <pt x="45" y="1276" on="0"/>
        <pt x="49" y="1346" on="0"/>
        <pt x="74" y="1415" on="0"/>
        <pt x="129" y="1477" on="0"/>
        <pt x="229" y="1525" on="0"/>
        <pt x="384" y="1553" on="0"/>
        <pt x="497" y="1553" on="1"/>
        <pt x="610" y="1553" on="0"/>
        <pt x="765" y="1525" on="0"/>
        <pt x="865" y="1477" on="0"/>
        <pt x="920" y="1415" on="0"/>
        <pt x="945" y="1346" on="0"/>
        <pt x="949" y="1276" on="0"/>
        <pt x="949" y="1244" on="1"/>
        <pt x="949" y="765" on="1"/>
        <pt x="949" y="733" on="0"/>
        <pt x="945" y="662" on="0"/>
        <pt x="920" y="593" on="0"/>
        <pt x="865" y="530" on="0"/>
        <pt x="765" y="482" on="0"/>
        <pt x="610" y="454" on="0"/>
      </contour>
    </TTGlyph>
    <TTGlyph name="plus" xMin="43" yMin="0" xMax="1111" yMax="1298">
      <contour>
        <pt x="354" y="891" on="1"/>
        <pt x="354" y="1298" on="1"/>
        <pt x="800" y="1298" on="1"/>
        <pt x="800" y="891" on="1"/>
        <pt x="1111" y="891" on="1"/>
        <pt x="1111" y="408" on="1"/>
        <pt x="800" y="408" on="1"/>
        <pt x="800" y="0" on="1"/>
        <pt x="354" y="0" on="1"/>
        <pt x="354" y="408" on="1"/>
        <pt x="43" y="408" on="1"/>
        <pt x="43" y="891" on="1"/>
      </contour>
    </TTGlyph>
    <TTGlyph name="plusminus" xMin="41" yMin="-1" xMax="1109" yMax="1801">
      <contour>
        <pt x="352" y="1394" on="1"/>
        <pt x="352" y="1801" on="1"/>
        <pt x="798" y="1801" on="1"/>
        <pt x="798" y="1394" on="1"/>
        <pt x="1109" y="1394" on="1"/>
        <pt x="1109" y="911" on="1"/>
        <pt x="798" y="911" on="1"/>
        <pt x="798" y="503" on="1"/>
        <pt x="352" y="503" on="1"/>
        <pt x="352" y="911" on="1"/>
        <pt x="41" y="911" on="1"/>
        <pt x="41" y="1394" on="1"/>
      </contour>
      <contour>
        <pt x="946" y="435" on="1"/>
        <pt x="946" y="-1" on="1"/>
        <pt x="193" y="-1" on="1"/>
        <pt x="193" y="435" on="1"/>
      </contour>
    </TTGlyph>
    <TTGlyph name="q" xMin="63" yMin="-408" xMax="1293" yMax="1337">
      <contour>
        <pt x="796" y="-408" on="1"/>
        <pt x="796" y="101" on="1"/>
        <pt x="765" y="66" on="0"/>
        <pt x="684" y="12" on="0"/>
        <pt x="591" y="-25" on="0"/>
        <pt x="490" y="-44" on="0"/>
        <pt x="438" y="-44" on="1"/>
        <pt x="367" y="-44" on="0"/>
        <pt x="232" y="2" on="0"/>
        <pt x="127" y="98" on="0"/>
        <pt x="63" y="245" on="0"/>
        <pt x="63" y="345" on="1"/>
        <pt x="63" y="923" on="1"/>
        <pt x="63" y="1028" on="0"/>
        <pt x="128" y="1184" on="0"/>
        <pt x="235" y="1287" on="0"/>
        <pt x="373" y="1337" on="0"/>
        <pt x="445" y="1337" on="1"/>
        <pt x="503" y="1337" on="0"/>
        <pt x="618" y="1311" on="0"/>
        <pt x="720" y="1260" on="0"/>
        <pt x="806" y="1183" on="0"/>
        <pt x="836" y="1133" on="1"/>
        <pt x="882" y="1300" on="1"/>
        <pt x="1293" y="1300" on="1"/>
        <pt x="1293" y="-408" on="1"/>
      </contour>
      <contour>
        <pt x="796" y="1060" on="1"/>
        <pt x="560" y="1060" on="1"/>
        <pt x="560" y="237" on="1"/>
        <pt x="796" y="237" on="1"/>
      </contour>
    </TTGlyph>
    <TTGlyph name="question" xMin="39" yMin="0" xMax="1192" yMax="1632">
      <contour>
        <pt x="235" y="462" on="1"/>
        <pt x="235" y="573" on="0"/>
        <pt x="272" y="734" on="0"/>
        <pt x="332" y="850" on="0"/>
        <pt x="408" y="925" on="0"/>
        <pt x="488" y="974" on="0"/>
        <pt x="564" y="1003" on="0"/>
        <pt x="624" y="1025" on="0"/>
        <pt x="660" y="1048" on="0"/>
        <pt x="660" y="1066" on="1"/>
        <pt x="664" y="1364" on="1"/>
        <pt x="564" y="1364" on="1"/>
        <pt x="564" y="1070" on="1"/>
        <pt x="39" y="1070" on="1"/>
        <pt x="39" y="1247" on="1"/>
        <pt x="39" y="1287" on="0"/>
        <pt x="45" y="1375" on="0"/>
        <pt x="77" y="1461" on="0"/>
        <pt x="145" y="1538" on="0"/>
        <pt x="269" y="1597" on="0"/>
        <pt x="458" y="1632" on="0"/>
        <pt x="596" y="1632" on="1"/>
        <pt x="727" y="1632" on="0"/>
        <pt x="917" y="1608" on="0"/>
        <pt x="1050" y="1554" on="0"/>
        <pt x="1131" y="1467" on="0"/>
        <pt x="1176" y="1341" on="0"/>
        <pt x="1192" y="1172" on="0"/>
        <pt x="1192" y="1064" on="1"/>
        <pt x="1192" y="948" on="0"/>
        <pt x="1132" y="798" on="0"/>
        <pt x="1041" y="704" on="0"/>
        <pt x="936" y="655" on="0"/>
        <pt x="845" y="625" on="0"/>
        <pt x="785" y="603" on="0"/>
        <pt x="785" y="583" on="1"/>
        <pt x="785" y="462" on="1"/>
      </contour>
      <contour>
        <pt x="237" y="397" on="1"/>
        <pt x="785" y="397" on="1"/>
        <pt x="785" y="0" on="1"/>
        <pt x="237" y="0" on="1"/>
      </contour>
    </TTGlyph>
    <TTGlyph name="questiondown" xMin="41" yMin="-39" xMax="1194" yMax="1593">
      <component glyphName="question" x="1233" y="1593" scale="-1.0" flags="0x1004"/>
    </TTGlyph>
    <TTGlyph name="quotedbl" xMin="35" yMin="798" xMax="1021" yMax="1604">
      <contour>
        <pt x="408" y="798" on="1"/>
        <pt x="120" y="798" on="1"/>
        <pt x="35" y="1604" on="1"/>
        <pt x="493" y="1604" on="1"/>
      </contour>
      <contour>
        <pt x="936" y="798" on="1"/>
        <pt x="648" y="798" on="1"/>
        <pt x="563" y="1604" on="1"/>
        <pt x="1021" y="1604" on="1"/>
      </contour>
    </TTGlyph>
    <TTGlyph name="quotedblbase" xMin="47" yMin="-507" xMax="1033" yMax="299">
      <contour>
        <pt x="420" y="-507" on="1"/>
        <pt x="132" y="-507" on="1"/>
        <pt x="47" y="299" on="1"/>
        <pt x="505" y="299" on="1"/>
      </contour>
      <contour>
        <pt x="948" y="-507" on="1"/>
        <pt x="660" y="-507" on="1"/>
        <pt x="575" y="299" on="1"/>
        <pt x="1033" y="299" on="1"/>
      </contour>
    </TTGlyph>
    <TTGlyph name="quotedblleft" xMin="66" yMin="781" xMax="1117" yMax="1635">
      <contour>
        <pt x="535" y="1436" on="1"/>
        <pt x="482" y="1424" on="0"/>
        <pt x="441" y="1401" on="1"/>
        <pt x="423" y="1391" on="0"/>
        <pt x="390" y="1366" on="0"/>
        <pt x="364" y="1333" on="0"/>
        <pt x="348" y="1292" on="0"/>
        <pt x="348" y="1268" on="1"/>
        <pt x="558" y="1268" on="1"/>
        <pt x="558" y="781" on="1"/>
        <pt x="66" y="781" on="1"/>
        <pt x="66" y="1118" on="1"/>
        <pt x="66" y="1270" on="0"/>
        <pt x="130" y="1469" on="0"/>
        <pt x="251" y="1587" on="0"/>
        <pt x="425" y="1635" on="0"/>
        <pt x="535" y="1635" on="1"/>
      </contour>
      <contour>
        <pt x="1092" y="1436" on="1"/>
        <pt x="1039" y="1424" on="0"/>
        <pt x="998" y="1401" on="1"/>
        <pt x="980" y="1391" on="0"/>
        <pt x="947" y="1366" on="0"/>
        <pt x="921" y="1333" on="0"/>
        <pt x="905" y="1292" on="0"/>
        <pt x="905" y="1268" on="1"/>
        <pt x="1117" y="1268" on="1"/>
        <pt x="1117" y="781" on="1"/>
        <pt x="623" y="781" on="1"/>
        <pt x="623" y="1118" on="1"/>
        <pt x="623" y="1270" on="0"/>
        <pt x="687" y="1469" on="0"/>
        <pt x="809" y="1587" on="0"/>
        <pt x="982" y="1635" on="0"/>
        <pt x="1092" y="1635" on="1"/>
      </contour>
    </TTGlyph>
    <TTGlyph name="quotedblright" xMin="66" yMin="749" xMax="1119" yMax="1603">
      <contour>
        <pt x="90" y="948" on="1"/>
        <pt x="142" y="960" on="0"/>
        <pt x="183" y="983" on="1"/>
        <pt x="201" y="993" on="0"/>
        <pt x="234" y="1018" on="0"/>
        <pt x="261" y="1051" on="0"/>
        <pt x="277" y="1092" on="0"/>
        <pt x="277" y="1116" on="1"/>
        <pt x="66" y="1116" on="1"/>
        <pt x="66" y="1603" on="1"/>
        <pt x="558" y="1603" on="1"/>
        <pt x="558" y="1266" on="1"/>
        <pt x="558" y="1114" on="0"/>
        <pt x="494" y="915" on="0"/>
        <pt x="374" y="797" on="0"/>
        <pt x="200" y="749" on="0"/>
        <pt x="90" y="749" on="1"/>
      </contour>
      <contour>
        <pt x="651" y="948" on="1"/>
        <pt x="703" y="960" on="0"/>
        <pt x="744" y="983" on="1"/>
        <pt x="762" y="993" on="0"/>
        <pt x="795" y="1018" on="0"/>
        <pt x="822" y="1051" on="0"/>
        <pt x="838" y="1092" on="0"/>
        <pt x="838" y="1116" on="1"/>
        <pt x="627" y="1116" on="1"/>
        <pt x="627" y="1603" on="1"/>
        <pt x="1119" y="1603" on="1"/>
        <pt x="1119" y="1266" on="1"/>
        <pt x="1119" y="1114" on="0"/>
        <pt x="1055" y="915" on="0"/>
        <pt x="935" y="797" on="0"/>
        <pt x="761" y="749" on="0"/>
        <pt x="651" y="749" on="1"/>
      </contour>
    </TTGlyph>
    <TTGlyph name="quoteleft" xMin="66" yMin="781" xMax="558" yMax="1635">
      <contour>
        <pt x="535" y="1436" on="1"/>
        <pt x="482" y="1424" on="0"/>
        <pt x="441" y="1401" on="1"/>
        <pt x="423" y="1391" on="0"/>
        <pt x="390" y="1366" on="0"/>
        <pt x="364" y="1333" on="0"/>
        <pt x="348" y="1292" on="0"/>
        <pt x="348" y="1268" on="1"/>
        <pt x="558" y="1268" on="1"/>
        <pt x="558" y="781" on="1"/>
        <pt x="66" y="781" on="1"/>
        <pt x="66" y="1118" on="1"/>
        <pt x="66" y="1270" on="0"/>
        <pt x="130" y="1469" on="0"/>
        <pt x="251" y="1587" on="0"/>
        <pt x="425" y="1635" on="0"/>
        <pt x="535" y="1635" on="1"/>
      </contour>
    </TTGlyph>
    <TTGlyph name="quoteright" xMin="66" yMin="749" xMax="558" yMax="1603">
      <contour>
        <pt x="90" y="948" on="1"/>
        <pt x="142" y="960" on="0"/>
        <pt x="183" y="983" on="1"/>
        <pt x="201" y="993" on="0"/>
        <pt x="234" y="1018" on="0"/>
        <pt x="261" y="1051" on="0"/>
        <pt x="277" y="1092" on="0"/>
        <pt x="277" y="1116" on="1"/>
        <pt x="66" y="1116" on="1"/>
        <pt x="66" y="1603" on="1"/>
        <pt x="558" y="1603" on="1"/>
        <pt x="558" y="1266" on="1"/>
        <pt x="558" y="1114" on="0"/>
        <pt x="494" y="915" on="0"/>
        <pt x="374" y="797" on="0"/>
        <pt x="200" y="749" on="0"/>
        <pt x="90" y="749" on="1"/>
      </contour>
    </TTGlyph>
    <TTGlyph name="quotesinglbase" xMin="47" yMin="-406" xMax="505" yMax="400">
      <component glyphName="quotesingle" x="12" y="-1204" flags="0x1004"/>
    </TTGlyph>
    <TTGlyph name="quotesingle" xMin="35" yMin="798" xMax="493" yMax="1604">
      <contour>
        <pt x="408" y="798" on="1"/>
        <pt x="120" y="798" on="1"/>
        <pt x="35" y="1604" on="1"/>
        <pt x="493" y="1604" on="1"/>
      </contour>
    </TTGlyph>
    <TTGlyph name="r" xMin="80" yMin="0" xMax="855" yMax="1343">
      <contour>
        <pt x="80" y="0" on="1"/>
        <pt x="80" y="1300" on="1"/>
        <pt x="481" y="1300" on="1"/>
        <pt x="537" y="1095" on="1"/>
        <pt x="547" y="1145" on="0"/>
        <pt x="589" y="1221" on="0"/>
        <pt x="644" y="1276" on="0"/>
        <pt x="708" y="1312" on="0"/>
        <pt x="772" y="1333" on="0"/>
        <pt x="832" y="1342" on="0"/>
        <pt x="855" y="1343" on="1"/>
        <pt x="855" y="949" on="1"/>
        <pt x="577" y="869" on="1"/>
        <pt x="577" y="0" on="1"/>
      </contour>
    </TTGlyph>
    <TTGlyph name="racute" xMin="80" yMin="0" xMax="1061" yMax="2202">
      <component glyphName="r" x="0" y="0" flags="0x1204"/>
      <component glyphName="acute" x="-302" y="1393" flags="0x1004"/>
    </TTGlyph>
    <TTGlyph name="rcaron" xMin="-60" yMin="0" xMax="965" yMax="2089">
      <component glyphName="r" x="-70" y="0" flags="0x1204"/>
      <component glyphName="caron" x="-375" y="1393" flags="0x1004"/>
    </TTGlyph>
    <TTGlyph name="rcommaaccent" xMin="80" yMin="-934" xMax="855" yMax="1343">
      <component glyphName="r" x="0" y="0" flags="0x1204"/>
      <component glyphName="comma" x="66" y="-567" flags="0x1004"/>
    </TTGlyph>
    <TTGlyph name="registered" xMin="51" yMin="-102" xMax="1586" yMax="1749">
      <contour>
        <pt x="819" y="-102" on="1"/>
        <pt x="673" y="-102" on="0"/>
        <pt x="453" y="-61" on="0"/>
        <pt x="290" y="8" on="0"/>
        <pt x="180" y="100" on="0"/>
        <pt x="108" y="204" on="0"/>
        <pt x="70" y="313" on="0"/>
        <pt x="53" y="415" on="0"/>
        <pt x="51" y="506" on="0"/>
        <pt x="51" y="539" on="1"/>
        <pt x="51" y="1116" on="1"/>
        <pt x="51" y="1160" on="0"/>
        <pt x="57" y="1288" on="0"/>
        <pt x="98" y="1429" on="0"/>
        <pt x="190" y="1568" on="0"/>
        <pt x="360" y="1680" on="0"/>
        <pt x="625" y="1749" on="0"/>
        <pt x="819" y="1749" on="1"/>
        <pt x="964" y="1749" on="0"/>
        <pt x="1185" y="1709" on="0"/>
        <pt x="1347" y="1641" on="0"/>
        <pt x="1458" y="1550" on="0"/>
        <pt x="1529" y="1447" on="0"/>
        <pt x="1567" y="1340" on="0"/>
        <pt x="1584" y="1238" on="0"/>
        <pt x="1586" y="1149" on="0"/>
        <pt x="1586" y="1116" on="1"/>
        <pt x="1586" y="539" on="1"/>
        <pt x="1586" y="506" on="0"/>
        <pt x="1584" y="415" on="0"/>
        <pt x="1567" y="313" on="0"/>
        <pt x="1529" y="204" on="0"/>
        <pt x="1458" y="100" on="0"/>
        <pt x="1347" y="8" on="0"/>
        <pt x="1185" y="-61" on="0"/>
        <pt x="964" y="-102" on="0"/>
      </contour>
      <contour>
        <pt x="861" y="756" on="1"/>
        <pt x="786" y="756" on="1"/>
        <pt x="786" y="279" on="1"/>
        <pt x="434" y="279" on="1"/>
        <pt x="434" y="1434" on="1"/>
        <pt x="813" y="1434" on="1"/>
        <pt x="911" y="1434" on="0"/>
        <pt x="1046" y="1409" on="0"/>
        <pt x="1134" y="1368" on="0"/>
        <pt x="1181" y="1313" on="0"/>
        <pt x="1203" y="1252" on="0"/>
        <pt x="1207" y="1191" on="0"/>
        <pt x="1207" y="1163" on="1"/>
        <pt x="1207" y="1010" on="1"/>
        <pt x="1207" y="963" on="0"/>
        <pt x="1179" y="903" on="0"/>
        <pt x="1137" y="866" on="0"/>
        <pt x="1088" y="847" on="0"/>
        <pt x="1067" y="842" on="1"/>
        <pt x="1092" y="839" on="0"/>
        <pt x="1145" y="819" on="0"/>
        <pt x="1190" y="774" on="0"/>
        <pt x="1220" y="700" on="0"/>
        <pt x="1220" y="643" on="1"/>
        <pt x="1222" y="279" on="1"/>
        <pt x="861" y="279" on="1"/>
      </contour>
      <contour>
        <pt x="786" y="915" on="1"/>
        <pt x="861" y="915" on="1"/>
        <pt x="861" y="1274" on="1"/>
        <pt x="786" y="1274" on="1"/>
      </contour>
      <contour>
        <pt x="819" y="69" on="1"/>
        <pt x="950" y="69" on="0"/>
        <pt x="1133" y="108" on="0"/>
        <pt x="1256" y="173" on="0"/>
        <pt x="1326" y="258" on="0"/>
        <pt x="1361" y="350" on="0"/>
        <pt x="1370" y="442" on="0"/>
        <pt x="1370" y="482" on="1"/>
        <pt x="1370" y="1165" on="1"/>
        <pt x="1370" y="1205" on="0"/>
        <pt x="1361" y="1296" on="0"/>
        <pt x="1326" y="1386" on="0"/>
        <pt x="1256" y="1470" on="0"/>
        <pt x="1133" y="1535" on="0"/>
        <pt x="950" y="1573" on="0"/>
        <pt x="819" y="1573" on="1"/>
        <pt x="688" y="1573" on="0"/>
        <pt x="504" y="1535" on="0"/>
        <pt x="382" y="1470" on="0"/>
        <pt x="312" y="1386" on="0"/>
        <pt x="277" y="1296" on="0"/>
        <pt x="268" y="1204" on="0"/>
        <pt x="268" y="1165" on="1"/>
        <pt x="268" y="1151" on="0"/>
        <pt x="270" y="1125" on="0"/>
        <pt x="269" y="1113" on="1"/>
        <pt x="269" y="534" on="1"/>
        <pt x="269" y="522" on="0"/>
        <pt x="268" y="496" on="0"/>
        <pt x="268" y="482" on="1"/>
        <pt x="268" y="442" on="0"/>
        <pt x="277" y="350" on="0"/>
        <pt x="312" y="258" on="0"/>
        <pt x="382" y="173" on="0"/>
        <pt x="504" y="108" on="0"/>
        <pt x="688" y="69" on="0"/>
      </contour>
    </TTGlyph>
    <TTGlyph name="ring" xMin="53" yMin="141" xMax="695" yMax="721">
      <contour>
        <pt x="375" y="141" on="1"/>
        <pt x="308" y="141" on="0"/>
        <pt x="190" y="187" on="0"/>
        <pt x="103" y="265" on="0"/>
        <pt x="53" y="370" on="0"/>
        <pt x="53" y="430" on="1"/>
        <pt x="53" y="491" on="0"/>
        <pt x="103" y="597" on="0"/>
        <pt x="190" y="676" on="0"/>
        <pt x="308" y="721" on="0"/>
        <pt x="375" y="721" on="1"/>
        <pt x="441" y="721" on="0"/>
        <pt x="557" y="676" on="0"/>
        <pt x="644" y="597" on="0"/>
        <pt x="695" y="491" on="0"/>
        <pt x="695" y="430" on="1"/>
        <pt x="695" y="370" on="0"/>
        <pt x="644" y="265" on="0"/>
        <pt x="557" y="187" on="0"/>
        <pt x="441" y="141" on="0"/>
      </contour>
      <contour>
        <pt x="373" y="319" on="1"/>
        <pt x="395" y="319" on="0"/>
        <pt x="435" y="336" on="0"/>
        <pt x="465" y="365" on="0"/>
        <pt x="482" y="405" on="0"/>
        <pt x="482" y="428" on="1"/>
        <pt x="482" y="450" on="0"/>
        <pt x="465" y="490" on="0"/>
        <pt x="435" y="520" on="0"/>
        <pt x="395" y="538" on="0"/>
        <pt x="373" y="538" on="1"/>
        <pt x="350" y="538" on="0"/>
        <pt x="311" y="520" on="0"/>
        <pt x="281" y="490" on="0"/>
        <pt x="264" y="450" on="0"/>
        <pt x="264" y="428" on="1"/>
        <pt x="264" y="405" on="0"/>
        <pt x="281" y="365" on="0"/>
        <pt x="311" y="336" on="0"/>
        <pt x="350" y="319" on="0"/>
      </contour>
    </TTGlyph>
    <TTGlyph name="s" xMin="31" yMin="-36" xMax="1261" yMax="1343">
      <contour>
        <pt x="764" y="444" on="1"/>
        <pt x="756" y="453" on="0"/>
        <pt x="684" y="463" on="0"/>
        <pt x="578" y="476" on="0"/>
        <pt x="448" y="496" on="0"/>
        <pt x="314" y="534" on="0"/>
        <pt x="188" y="594" on="0"/>
        <pt x="90" y="686" on="0"/>
        <pt x="31" y="814" on="0"/>
        <pt x="31" y="902" on="1"/>
        <pt x="31" y="966" on="0"/>
        <pt x="51" y="1081" on="0"/>
        <pt x="102" y="1179" on="0"/>
        <pt x="192" y="1258" on="0"/>
        <pt x="332" y="1313" on="0"/>
        <pt x="528" y="1343" on="0"/>
        <pt x="661" y="1343" on="1"/>
        <pt x="794" y="1341" on="0"/>
        <pt x="982" y="1315" on="0"/>
        <pt x="1109" y="1271" on="0"/>
        <pt x="1184" y="1207" on="0"/>
        <pt x="1223" y="1127" on="0"/>
        <pt x="1234" y="1030" on="0"/>
        <pt x="1234" y="975" on="1"/>
        <pt x="1234" y="889" on="1"/>
        <pt x="764" y="919" on="1"/>
        <pt x="764" y="1060" on="1"/>
        <pt x="528" y="1060" on="1"/>
        <pt x="528" y="867" on="1"/>
        <pt x="537" y="858" on="0"/>
        <pt x="610" y="846" on="0"/>
        <pt x="716" y="831" on="0"/>
        <pt x="846" y="809" on="0"/>
        <pt x="979" y="771" on="0"/>
        <pt x="1104" y="713" on="0"/>
        <pt x="1202" y="625" on="0"/>
        <pt x="1261" y="503" on="0"/>
        <pt x="1261" y="421" on="1"/>
        <pt x="1261" y="308" on="0"/>
        <pt x="1210" y="137" on="0"/>
        <pt x="1072" y="22" on="0"/>
        <pt x="828" y="-36" on="0"/>
        <pt x="635" y="-36" on="1"/>
        <pt x="505" y="-33" on="0"/>
        <pt x="318" y="-6" on="0"/>
        <pt x="190" y="40" on="0"/>
        <pt x="114" y="105" on="0"/>
        <pt x="74" y="185" on="0"/>
        <pt x="61" y="281" on="0"/>
        <pt x="61" y="335" on="1"/>
        <pt x="61" y="413" on="1"/>
        <pt x="528" y="378" on="1"/>
        <pt x="528" y="237" on="1"/>
        <pt x="764" y="237" on="1"/>
      </contour>
    </TTGlyph>
    <TTGlyph name="sacute" xMin="31" yMin="-36" xMax="1261" yMax="2202">
      <component glyphName="s" x="0" y="0" flags="0x1204"/>
      <component glyphName="acute" x="-151" y="1393" flags="0x1004"/>
    </TTGlyph>
    <TTGlyph name="scaron" xMin="31" yMin="-36" xMax="1261" yMax="2089">
      <component glyphName="s" x="0" y="0" flags="0x1204"/>
      <component glyphName="caron" x="-152" y="1393" flags="0x1004"/>
    </TTGlyph>
    <TTGlyph name="scedilla" xMin="33" yMin="-782" xMax="1263" yMax="1343">
      <component glyphName="s" x="2" y="0" flags="0x1004"/>
      <component glyphName="cedilla" x="20" y="0" flags="0x1004"/>
    </TTGlyph>
    <TTGlyph name="scircumflex" xMin="31" yMin="-36" xMax="1261" yMax="2069">
      <component glyphName="s" x="0" y="0" flags="0x1204"/>
      <component glyphName="circumflex" x="-152" y="1393" flags="0x1004"/>
    </TTGlyph>
    <TTGlyph name="scommaaccent" xMin="33" yMin="-1021" xMax="1263" yMax="1343">
      <component glyphName="s" x="2" y="0" flags="0x1004"/>
      <component glyphName="comma" x="292" y="-654" flags="0x1004"/>
    </TTGlyph>
    <TTGlyph name="section" xMin="51" yMin="-39" xMax="1156" yMax="1772">
      <contour>
        <pt x="66" y="1331" on="1"/>
        <pt x="66" y="1395" on="0"/>
        <pt x="78" y="1510" on="0"/>
        <pt x="118" y="1608" on="0"/>
        <pt x="192" y="1687" on="0"/>
        <pt x="315" y="1742" on="0"/>
        <pt x="496" y="1772" on="0"/>
        <pt x="622" y="1772" on="1"/>
        <pt x="744" y="1772" on="0"/>
        <pt x="917" y="1747" on="0"/>
        <pt x="1033" y="1701" on="0"/>
        <pt x="1101" y="1636" on="0"/>
        <pt x="1136" y="1556" on="0"/>
        <pt x="1146" y="1463" on="0"/>
        <pt x="1146" y="1412" on="1"/>
        <pt x="1146" y="1386" on="0"/>
        <pt x="1145" y="1334" on="0"/>
        <pt x="1145" y="1307" on="1"/>
        <pt x="646" y="1307" on="1"/>
        <pt x="646" y="1498" on="1"/>
        <pt x="580" y="1498" on="1"/>
        <pt x="580" y="1249" on="1"/>
        <pt x="588" y="1240" on="0"/>
        <pt x="646" y="1234" on="0"/>
        <pt x="730" y="1230" on="0"/>
        <pt x="832" y="1225" on="0"/>
        <pt x="936" y="1207" on="0"/>
        <pt x="1034" y="1172" on="0"/>
        <pt x="1110" y="1111" on="0"/>
        <pt x="1156" y="1017" on="0"/>
        <pt x="1156" y="950" on="1"/>
        <pt x="1156" y="895" on="0"/>
        <pt x="1129" y="814" on="0"/>
        <pt x="1088" y="755" on="0"/>
        <pt x="1040" y="718" on="0"/>
        <pt x="997" y="696" on="0"/>
        <pt x="967" y="686" on="0"/>
        <pt x="965" y="686" on="1"/>
        <pt x="967" y="685" on="0"/>
        <pt x="995" y="674" on="0"/>
        <pt x="1034" y="649" on="0"/>
        <pt x="1078" y="607" on="0"/>
        <pt x="1116" y="544" on="0"/>
        <pt x="1141" y="458" on="0"/>
        <pt x="1141" y="402" on="1"/>
        <pt x="1141" y="338" on="0"/>
        <pt x="1129" y="223" on="0"/>
        <pt x="1089" y="125" on="0"/>
        <pt x="1016" y="46" on="0"/>
        <pt x="892" y="-9" on="0"/>
        <pt x="712" y="-39" on="0"/>
        <pt x="586" y="-39" on="1"/>
        <pt x="464" y="-39" on="0"/>
        <pt x="291" y="-14" on="0"/>
        <pt x="175" y="32" on="0"/>
        <pt x="107" y="97" on="0"/>
        <pt x="72" y="177" on="0"/>
        <pt x="62" y="270" on="0"/>
        <pt x="62" y="321" on="1"/>
        <pt x="62" y="347" on="0"/>
        <pt x="63" y="399" on="0"/>
        <pt x="63" y="426" on="1"/>
        <pt x="561" y="426" on="1"/>
        <pt x="561" y="235" on="1"/>
        <pt x="627" y="235" on="1"/>
        <pt x="627" y="484" on="1"/>
        <pt x="621" y="493" on="0"/>
        <pt x="585" y="493" on="1"/>
        <pt x="552" y="493" on="0"/>
        <pt x="454" y="484" on="0"/>
        <pt x="396" y="484" on="1"/>
        <pt x="356" y="484" on="0"/>
        <pt x="273" y="492" on="0"/>
        <pt x="197" y="516" on="0"/>
        <pt x="130" y="558" on="0"/>
        <pt x="80" y="624" on="0"/>
        <pt x="51" y="718" on="0"/>
        <pt x="51" y="783" on="1"/>
        <pt x="51" y="834" on="0"/>
        <pt x="76" y="913" on="0"/>
        <pt x="113" y="971" on="0"/>
        <pt x="157" y="1010" on="0"/>
        <pt x="196" y="1034" on="0"/>
        <pt x="223" y="1045" on="0"/>
        <pt x="225" y="1046" on="1"/>
        <pt x="222" y="1047" on="0"/>
        <pt x="172" y="1076" on="0"/>
        <pt x="114" y="1142" on="0"/>
        <pt x="66" y="1251" on="0"/>
      </contour>
      <contour>
        <pt x="635" y="750" on="1"/>
        <pt x="635" y="973" on="1"/>
        <pt x="573" y="973" on="1"/>
        <pt x="573" y="750" on="1"/>
      </contour>
    </TTGlyph>
    <TTGlyph name="semicolon" xMin="113" yMin="-247" xMax="605" yMax="1497">
      <contour>
        <pt x="579" y="1000" on="1"/>
        <pt x="121" y="1000" on="1"/>
        <pt x="121" y="1497" on="1"/>
        <pt x="579" y="1497" on="1"/>
      </contour>
      <contour>
        <pt x="137" y="-48" on="1"/>
        <pt x="189" y="-36" on="0"/>
        <pt x="230" y="-13" on="1"/>
        <pt x="248" y="-3" on="0"/>
        <pt x="281" y="22" on="0"/>
        <pt x="308" y="55" on="0"/>
        <pt x="324" y="96" on="0"/>
        <pt x="324" y="120" on="1"/>
        <pt x="113" y="120" on="1"/>
        <pt x="113" y="607" on="1"/>
        <pt x="605" y="607" on="1"/>
        <pt x="605" y="270" on="1"/>
        <pt x="605" y="118" on="0"/>
        <pt x="541" y="-81" on="0"/>
        <pt x="421" y="-199" on="0"/>
        <pt x="247" y="-247" on="0"/>
        <pt x="137" y="-247" on="1"/>
      </contour>
    </TTGlyph>
    <TTGlyph name="seven" xMin="16" yMin="0" xMax="711" yMax="1595">
      <contour>
        <pt x="711" y="1595" on="1"/>
        <pt x="711" y="1351" on="1"/>
        <pt x="514" y="0" on="1"/>
        <pt x="17" y="0" on="1"/>
        <pt x="208" y="1358" on="1"/>
        <pt x="16" y="1358" on="1"/>
        <pt x="16" y="1595" on="1"/>
      </contour>
    </TTGlyph>
    <TTGlyph name="six" xMin="52" yMin="-38" xMax="1282" yMax="1632">
      <contour>
        <pt x="549" y="237" on="1"/>
        <pt x="785" y="237" on="1"/>
        <pt x="785" y="798" on="1"/>
        <pt x="549" y="798" on="1"/>
      </contour>
      <contour>
        <pt x="666" y="-38" on="1"/>
        <pt x="535" y="-38" on="0"/>
        <pt x="342" y="-4" on="0"/>
        <pt x="205" y="59" on="0"/>
        <pt x="119" y="150" on="0"/>
        <pt x="70" y="264" on="0"/>
        <pt x="52" y="399" on="0"/>
        <pt x="52" y="475" on="1"/>
        <pt x="52" y="1055" on="1"/>
        <pt x="52" y="1122" on="0"/>
        <pt x="68" y="1259" on="0"/>
        <pt x="114" y="1387" on="0"/>
        <pt x="198" y="1500" on="0"/>
        <pt x="335" y="1584" on="0"/>
        <pt x="531" y="1632" on="0"/>
        <pt x="666" y="1632" on="1"/>
        <pt x="808" y="1632" on="0"/>
        <pt x="1001" y="1586" on="0"/>
        <pt x="1125" y="1510" on="0"/>
        <pt x="1190" y="1411" on="0"/>
        <pt x="1219" y="1306" on="0"/>
        <pt x="1222" y="1201" on="0"/>
        <pt x="1222" y="1158" on="1"/>
        <pt x="784" y="1158" on="1"/>
        <pt x="784" y="1358" on="1"/>
        <pt x="549" y="1358" on="1"/>
        <pt x="549" y="1068" on="1"/>
        <pt x="677" y="1068" on="1"/>
        <pt x="861" y="1068" on="0"/>
        <pt x="1096" y="1007" on="0"/>
        <pt x="1231" y="876" on="0"/>
        <pt x="1282" y="669" on="0"/>
        <pt x="1282" y="523" on="1"/>
        <pt x="1282" y="434" on="0"/>
        <pt x="1264" y="282" on="0"/>
        <pt x="1215" y="157" on="0"/>
        <pt x="1129" y="61" on="0"/>
        <pt x="992" y="-4" on="0"/>
        <pt x="798" y="-38" on="0"/>
      </contour>
    </TTGlyph>
    <TTGlyph name="slash" xMin="33" yMin="0" xMax="925" yMax="1595">
      <component glyphName="backslash" x="954" y="0" scalex="-1.0" scaley="1.0" flags="0x1004"/>
    </TTGlyph>
    <TTGlyph name="sterling" xMin="45" yMin="0" xMax="1360" yMax="1632">
      <contour>
        <pt x="1105" y="718" on="1"/>
        <pt x="720" y="718" on="1"/>
        <pt x="720" y="268" on="1"/>
        <pt x="835" y="268" on="1"/>
        <pt x="835" y="562" on="1"/>
        <pt x="1360" y="562" on="1"/>
        <pt x="1360" y="385" on="1"/>
        <pt x="1360" y="345" on="0"/>
        <pt x="1356" y="257" on="0"/>
        <pt x="1334" y="171" on="0"/>
        <pt x="1287" y="94" on="0"/>
        <pt x="1201" y="35" on="0"/>
        <pt x="1068" y="0" on="0"/>
        <pt x="971" y="0" on="1"/>
        <pt x="897" y="0" on="0"/>
        <pt x="801" y="29" on="0"/>
        <pt x="738" y="69" on="0"/>
        <pt x="700" y="114" on="0"/>
        <pt x="685" y="130" on="1"/>
        <pt x="657" y="98" on="0"/>
        <pt x="607" y="53" on="0"/>
        <pt x="545" y="24" on="0"/>
        <pt x="460" y="8" on="0"/>
        <pt x="336" y="1" on="0"/>
        <pt x="164" y="0" on="0"/>
        <pt x="45" y="0" on="1"/>
        <pt x="45" y="265" on="1"/>
        <pt x="84" y="270" on="0"/>
        <pt x="116" y="283" on="1"/>
        <pt x="143" y="294" on="0"/>
        <pt x="188" y="337" on="0"/>
        <pt x="188" y="375" on="1"/>
        <pt x="188" y="718" on="1"/>
        <pt x="45" y="718" on="1"/>
        <pt x="45" y="940" on="1"/>
        <pt x="188" y="940" on="1"/>
        <pt x="188" y="1064" on="1"/>
        <pt x="188" y="1172" on="0"/>
        <pt x="204" y="1341" on="0"/>
        <pt x="249" y="1467" on="0"/>
        <pt x="331" y="1554" on="0"/>
        <pt x="464" y="1608" on="0"/>
        <pt x="654" y="1632" on="0"/>
        <pt x="785" y="1632" on="1"/>
        <pt x="922" y="1632" on="0"/>
        <pt x="1112" y="1597" on="0"/>
        <pt x="1235" y="1538" on="0"/>
        <pt x="1303" y="1461" on="0"/>
        <pt x="1336" y="1375" on="0"/>
        <pt x="1342" y="1287" on="0"/>
        <pt x="1342" y="1247" on="1"/>
        <pt x="1342" y="1070" on="1"/>
        <pt x="816" y="1070" on="1"/>
        <pt x="816" y="1364" on="1"/>
        <pt x="720" y="1364" on="1"/>
        <pt x="720" y="940" on="1"/>
        <pt x="1105" y="940" on="1"/>
      </contour>
    </TTGlyph>
    <TTGlyph name="t" xMin="16" yMin="0" xMax="800" yMax="1595">
      <contour>
        <pt x="636" y="0" on="1"/>
        <pt x="139" y="0" on="1"/>
        <pt x="139" y="1100" on="1"/>
        <pt x="16" y="1100" on="1"/>
        <pt x="16" y="1300" on="1"/>
        <pt x="139" y="1300" on="1"/>
        <pt x="139" y="1595" on="1"/>
        <pt x="636" y="1595" on="1"/>
        <pt x="636" y="1300" on="1"/>
        <pt x="800" y="1300" on="1"/>
        <pt x="800" y="1100" on="1"/>
        <pt x="636" y="1100" on="1"/>
      </contour>
    </TTGlyph>
    <TTGlyph name="tbar" xMin="41" yMin="0" xMax="837" yMax="1595">
      <contour>
        <pt x="822" y="797" on="1"/>
        <pt x="822" y="597" on="1"/>
        <pt x="41" y="597" on="1"/>
        <pt x="41" y="797" on="1"/>
      </contour>
      <contour>
        <pt x="673" y="0" on="1"/>
        <pt x="176" y="0" on="1"/>
        <pt x="176" y="1100" on="1"/>
        <pt x="53" y="1100" on="1"/>
        <pt x="53" y="1300" on="1"/>
        <pt x="176" y="1300" on="1"/>
        <pt x="176" y="1595" on="1"/>
        <pt x="673" y="1595" on="1"/>
        <pt x="673" y="1300" on="1"/>
        <pt x="837" y="1300" on="1"/>
        <pt x="837" y="1100" on="1"/>
        <pt x="673" y="1100" on="1"/>
      </contour>
    </TTGlyph>
    <TTGlyph name="tcaron" xMin="-106" yMin="0" xMax="1224" yMax="1713">
      <component glyphName="t" x="-122" y="0" flags="0x1004"/>
      <component glyphName="quoteright" x="666" y="110" flags="0x1004"/>
    </TTGlyph>
    <TTGlyph name="tcommaaccent" xMin="-106" yMin="-1021" xMax="678" yMax="1595">
      <component glyphName="t" x="-122" y="0" flags="0x1004"/>
      <component glyphName="comma" x="-56" y="-654" flags="0x1004"/>
    </TTGlyph>
</ttFont>
